<?xml version="1.0" encoding="UTF-8"?>

<svg version="1.2" baseProfile="tiny" width="100.89mm" height="100.89mm" viewBox="5324 8877 10089 10089" preserveAspectRatio="xMidYMid" fill-rule="evenodd" stroke-width="28.222" stroke-linejoin="round" xmlns="http://www.w3.org/2000/svg" xmlns:xlink="http://www.w3.org/1999/xlink" xml:space="preserve">
 <g visibility="visible" id="Slide_1">
  <g>
   <path fill="none" stroke="rgb(102,153,204)" id="Drawing_1_0" stroke-width="1058" stroke-linejoin="round" d="M 10369,18437 C 9537,18437 8831,18248 8111,17832 7391,17416 6874,16899 6458,16179 6042,15459 5853,14753 5853,13922 5853,13090 6042,12384 6458,11664 6874,10944 7391,10427 8111,10011 8831,9595 9537,9406 10368,9406 11200,9406 11906,9595 12626,10011 13346,10427 13863,10944 14279,11664 14695,12384 14884,13090 14884,13921 14884,14753 14695,15459 14279,16179 13863,16899 13346,17416 12626,17832 11906,18248 11200,18437 10369,18437 L 10369,18437 Z"/>
  </g>
  <g>
   <path fill="none" stroke="rgb(0,102,153)" id="Drawing_2_0" stroke-width="1058" stroke-linejoin="round" d="M 10388,12123 L 10348,15861"/>
  </g>
  <g>
   <path fill="rgb(207,231,245)" stroke="none" d="M 9576,11079 L 9459,11094 9343,11117 9227,11146 9114,11183 9001,11227 8891,11279 8783,11337 8677,11402 8575,11473 8475,11551 8378,11635 8285,11726 8196,11822 8111,11923 8030,12030 7953,12142 7881,12259 7814,12380 7752,12505 7695,12634 7643,12766 7597,12902 7556,13040 7521,13180 7491,13323 7467,13468 7450,13613 7438,13760 7432,13907 7432,14055 7438,14202 7450,14349 7467,14494 7491,14639 7521,14782 7556,14922 7597,15061 7643,15196 7695,15328 7752,15457 7814,15582 7881,15703 7953,15820 8030,15932 8111,16039 8196,16140 8285,16236 8378,16327 8475,16411 8575,16489 8678,16560 8783,16625 8891,16683 9001,16735 9114,16779 9228,16816 9343,16845 9459,16868 9576,16883 9605,16402 9507,16390 9410,16371 9314,16346 9219,16316 9126,16279 9034,16236 8943,16188 8855,16134 8769,16074 8686,16009 8606,15939 8528,15863 8454,15783 8382,15699 8315,15609 8251,15516 8191,15419 8135,15318 8083,15214 8035,15106 7992,14996 7953,14883 7919,14767 7890,14650 7865,14531 7845,14410 7831,14289 7821,14166 7816,14043 7816,13920 7821,13798 7831,13675 7845,13554 7865,13433 7890,13314 7919,13197 7953,13081 7992,12968 8035,12858 8083,12750 8135,12646 8191,12545 8251,12448 8315,12354 8382,12265 8454,12181 8528,12101 8606,12025 8686,11955 8770,11890 8855,11830 8943,11776 9034,11728 9126,11685 9219,11648 9314,11618 9410,11593 9507,11574 9605,11562 9576,11079 Z"/>
   <path fill="none" stroke="rgb(153,153,204)" id="Drawing_3_0" stroke-width="529" stroke-linejoin="round" d="M 9576,11079 L 9459,11094 9343,11117 9227,11146 9114,11183 9001,11227 8891,11279 8783,11337 8677,11402 8575,11473 8475,11551 8378,11635 8285,11726 8196,11822 8111,11923 8030,12030 7953,12142 7881,12259 7814,12380 7752,12505 7695,12634 7643,12766 7597,12902 7556,13040 7521,13180 7491,13323 7467,13468 7450,13613 7438,13760 7432,13907 7432,14055 7438,14202 7450,14349 7467,14494 7491,14639 7521,14782 7556,14922 7597,15061 7643,15196 7695,15328 7752,15457 7814,15582 7881,15703 7953,15820 8030,15932 8111,16039 8196,16140 8285,16236 8378,16327 8475,16411 8575,16489 8678,16560 8783,16625 8891,16683 9001,16735 9114,16779 9228,16816 9343,16845 9459,16868 9576,16883 9605,16402 9507,16390 9410,16371 9314,16346 9219,16316 9126,16279 9034,16236 8943,16188 8855,16134 8769,16074 8686,16009 8606,15939 8528,15863 8454,15783 8382,15699 8315,15609 8251,15516 8191,15419 8135,15318 8083,15214 8035,15106 7992,14996 7953,14883 7919,14767 7890,14650 7865,14531 7845,14410 7831,14289 7821,14166 7816,14043 7816,13920 7821,13798 7831,13675 7845,13554 7865,13433 7890,13314 7919,13197 7953,13081 7992,12968 8035,12858 8083,12750 8135,12646 8191,12545 8251,12448 8315,12354 8382,12265 8454,12181 8528,12101 8606,12025 8686,11955 8770,11890 8855,11830 8943,11776 9034,11728 9126,11685 9219,11648 9314,11618 9410,11593 9507,11574 9605,11562 9576,11079 Z"/>
   <rect fill="none" stroke="none" x="7431" y="11071" width="4643" height="5821"/>
  </g>
  <g>
   <path fill="rgb(207,231,245)" stroke="none" d="M 11189,11079 L 11306,11094 11422,11117 11538,11146 11651,11183 11764,11227 11874,11279 11982,11337 12088,11402 12190,11473 12290,11551 12387,11635 12480,11726 12569,11822 12654,11923 12735,12030 12812,12142 12884,12259 12951,12380 13013,12505 13070,12634 13122,12766 13168,12902 13209,13040 13244,13180 13274,13323 13298,13468 13315,13613 13327,13760 13333,13907 13333,14055 13327,14202 13315,14349 13298,14494 13274,14639 13244,14782 13209,14922 13168,15061 13122,15196 13070,15328 13013,15457 12951,15582 12884,15703 12812,15820 12735,15932 12654,16039 12569,16140 12480,16236 12387,16327 12290,16411 12190,16489 12087,16560 11982,16625 11874,16683 11764,16735 11651,16779 11537,16816 11422,16845 11306,16868 11189,16883 11160,16402 11258,16390 11355,16371 11451,16346 11546,16316 11639,16279 11731,16236 11822,16188 11910,16134 11996,16074 12079,16009 12159,15939 12237,15863 12311,15783 12383,15699 12450,15609 12514,15516 12574,15419 12630,15318 12682,15214 12730,15106 12773,14996 12812,14883 12846,14767 12875,14650 12900,14531 12920,14410 12934,14289 12944,14166 12949,14043 12949,13920 12944,13798 12934,13675 12920,13554 12900,13433 12875,13314 12846,13197 12812,13081 12773,12968 12730,12858 12682,12750 12630,12646 12574,12545 12514,12448 12450,12354 12383,12265 12311,12181 12237,12101 12159,12025 12079,11955 11995,11890 11910,11830 11822,11776 11731,11728 11639,11685 11546,11648 11451,11618 11355,11593 11258,11574 11160,11562 11189,11079 Z"/>
   <path fill="none" stroke="rgb(153,204,255)" id="Drawing_4_0" stroke-width="529" stroke-linejoin="round" d="M 11189,11079 L 11306,11094 11422,11117 11538,11146 11651,11183 11764,11227 11874,11279 11982,11337 12088,11402 12190,11473 12290,11551 12387,11635 12480,11726 12569,11822 12654,11923 12735,12030 12812,12142 12884,12259 12951,12380 13013,12505 13070,12634 13122,12766 13168,12902 13209,13040 13244,13180 13274,13323 13298,13468 13315,13613 13327,13760 13333,13907 13333,14055 13327,14202 13315,14349 13298,14494 13274,14639 13244,14782 13209,14922 13168,15061 13122,15196 13070,15328 13013,15457 12951,15582 12884,15703 12812,15820 12735,15932 12654,16039 12569,16140 12480,16236 12387,16327 12290,16411 12190,16489 12087,16560 11982,16625 11874,16683 11764,16735 11651,16779 11537,16816 11422,16845 11306,16868 11189,16883 11160,16402 11258,16390 11355,16371 11451,16346 11546,16316 11639,16279 11731,16236 11822,16188 11910,16134 11996,16074 12079,16009 12159,15939 12237,15863 12311,15783 12383,15699 12450,15609 12514,15516 12574,15419 12630,15318 12682,15214 12730,15106 12773,14996 12812,14883 12846,14767 12875,14650 12900,14531 12920,14410 12934,14289 12944,14166 12949,14043 12949,13920 12944,13798 12934,13675 12920,13554 12900,13433 12875,13314 12846,13197 12812,13081 12773,12968 12730,12858 12682,12750 12630,12646 12574,12545 12514,12448 12450,12354 12383,12265 12311,12181 12237,12101 12159,12025 12079,11955 11995,11890 11910,11830 11822,11776 11731,11728 11639,11685 11546,11648 11451,11618 11355,11593 11258,11574 11160,11562 11189,11079 Z"/>
   <rect fill="none" stroke="none" x="8693" y="11072" width="4643" height="5821"/>
  </g>
 </g>
</svg>