<?xml version="1.0" encoding="UTF-8" standalone="no"?>
<svg
   xmlns:dc="http://purl.org/dc/elements/1.1/"
   xmlns:cc="http://creativecommons.org/ns#"
   xmlns:rdf="http://www.w3.org/1999/02/22-rdf-syntax-ns#"
   xmlns:svg="http://www.w3.org/2000/svg"
   xmlns="http://www.w3.org/2000/svg"
   xmlns:xlink="http://www.w3.org/1999/xlink"
   id="svg2"
   height="48"
   width="48"
   version="1.1">
  <metadata
     id="metadata54">
    <rdf:RDF>
      <cc:Work
         rdf:about="">
        <dc:format>image/svg+xml</dc:format>
        <dc:type
           rdf:resource="http://purl.org/dc/dcmitype/StillImage" />
        <dc:title></dc:title>
      </cc:Work>
    </rdf:RDF>
  </metadata>
  <defs
     id="defs4">
    <linearGradient
       id="c">
      <stop
         id="stop7"
         offset="0"
         stop-color="#a3582d" />
      <stop
         id="stop9"
         offset="1"
         stop-color="#ba6d42" />
    </linearGradient>
    <linearGradient
       id="d"
       y1="49.75"
       x1="39.75"
       y2="11.25"
       x2="13.888"
       gradientUnits="userSpaceOnUse"
       gradientTransform="matrix(0.86658412,0,0,0.87069418,7.6008901,1.5267575)"
       xlink:href="#a">
      <stop
         id="stop12"
         stop-color="#d6602e"
         offset="0" />
      <stop
         id="stop14"
         offset="1"
         stop-color="#fd8f49" />
    </linearGradient>
    <linearGradient
       id="b"
       y1="531.77"
       x1="414.63"
       y2="523.38"
       x2="409.79"
       gradientUnits="userSpaceOnUse"
       gradientTransform="matrix(-1.45663 0 0 -1.45663 1013.146 1296.346)">
      <stop
         id="stop17"
         stop-color="#197cf1" />
      <stop
         id="stop19"
         offset="1"
         stop-color="#21c9fb" />
    </linearGradient>
    <linearGradient
       id="g"
       y1="537.26"
       x1="413.5"
       y2="519.75"
       x2="405.4"
       gradientUnits="userSpaceOnUse"
       gradientTransform="translate(2,0)">
      <stop
         id="stop22"
         stop-color="#eef1f2" />
      <stop
         id="stop24"
         offset="1"
         stop-color="#f9fafb" />
    </linearGradient>
    <linearGradient
       x1="412.86"
       xlink:href="#b"
       id="f"
       y1="528.745"
       y2="544.995"
       x2="413.485"
       gradientUnits="userSpaceOnUse"
       gradientTransform="scale(.8712) rotate(-45 -376.617 734.99)">
      <stop
         id="stop27"
         stop-color="#292929" />
      <stop
         id="stop29"
         offset="1"
         stop-opacity="0" />
    </linearGradient>
    <linearGradient
       gradientUnits="userSpaceOnUse"
       y2="12.5"
       x2="16"
       y1="46.75"
       x1="41"
       id="e"
       xlink:href="#c" />
    <linearGradient
       y2="523.38"
       x2="409.79"
       y1="531.77"
       x1="414.63"
       gradientTransform="matrix(-1.1784443,0,0,-1.246848,516.19652,684.37009)"
       gradientUnits="userSpaceOnUse"
       id="h"
       xlink:href="#b" />
  </defs>
  <g
     id="g38"
     transform="matrix(0.9947017,0,0,0.9994194,0.12492698,0.01187751)"
     style="stroke-width:2;stroke-linejoin:round">
    <path
       id="path40"
       transform="matrix(1.0053265,0,0,1.0005809,-0.12559241,-0.01188441)"
       d="M 24.882812 6.0078125 C 23.163904 6.1281797 21.703629 7.676735 22.84375 8.9667969 C 23.283645 9.4645466 27.321513 12.650241 29 14 L 11 14 C 8.1455239 13.996517 6.485634 18.100496 11 18 L 19.539062 18.115234 L 3.8691406 30.267578 C -0.44269599 33.611079 3.5769097 37.699046 7.1503906 34.716797 L 15.525391 27.726562 C 15.432683 29.504067 16.023899 32.343127 17.0625 34.169922 C 19.500253 38.374582 23.837852 42.013796 31.130859 41.978516 C 39.32878 41.938899 46.402989 35.323234 45.980469 26.845703 C 45.847101 23.497971 43.493649 19.252026 38.8125 15.607422 C 35.369778 12.927025 27.116192 6.7472241 26.601562 6.4257812 C 26.057361 6.0858688 25.455782 5.9676901 24.882812 6.0078125 z "
       style="fill:url(#d)" />
    <path
       id="path42"
       transform="matrix(0.8712,0,0,0.8712,5.77,1.51)"
       d="m 19.197266,6.9785156 c -0.152867,0.5047853 -0.06393,1.0522972 0.392578,1.5664063 0.436641,0.4917356 4.951575,4.0824041 7.107673,5.7873191 l 1.153956,0 C 25.914573,12.781984 20.097464,8.2396387 19.589844,7.6679688 19.390161,7.4430913 19.268223,7.2103268 19.197266,6.9785156 Z M 2.6972656,16.552734 c -0.2740475,1.268941 0.5973543,2.431851 3.2290422,2.373543 l 9.8478552,0.124503 1.691705,-1.273012 -11.5395602,0 C 3.914974,17.822335 2.907903,17.46602 2.6972656,16.552734 Z m 8.6289064,12.582032 -9.8457032,8.105468 c -2.6754196,2.222233 -5.5502054,1.020264 -5.8925782,-1.142578 -0.4084188,2.677649 2.8718882,4.530502 5.8925782,2.021485 l 9.6660162,-8.029298 c 0.06695,-0.466315 0.148419,-0.818671 0.179687,-0.955077 z m 34.982422,0.523437 c -0.251656,8.838212 -8.063396,15.643589 -17.464844,15.689453 -8.922361,0.04353 -14.295748,-5.244243 -16.592309,-10.373264 -0.574124,-1.288923 -0.857829,-2.550227 -1.094919,-3.815346 0.10326,2.53768 1.056307,5.265238 2.22625,7.160217 2.708278,4.315907 7.958139,8.207573 15.460978,8.170971 9.710496,-0.04737 17.725342,-7.589108 17.464844,-16.832031 z"
       style="opacity:0.5;fill:url(#e)" />
  </g>
  <path
     id="path44"
     d="m 37.070849,20.433824 -13.01586,12.278638 8.529688,8.250909 C 39.966866,40.019812 45.337652,35.09174 46.034589,28.50434 l -8.927786,-8.088493"
     style="opacity:0.2;fill:url(#f)" />
  <g
     id="g46"
     transform="matrix(0.9734707,0,0,1.029509,0.90266642,-0.43753635)"
     style="stroke-width:2;stroke-linecap:round;stroke-linejoin:round">
    <path
       id="path48"
       d="m 424.0378,528.3668 c 0.0943,2.68783 -0.95509,5.30443 -2.9369,7.25483 -2.00549,1.97372 -4.77925,3.08251 -7.68971,3.064 -2.90717,-0.0185 -5.67202,-1.16003 -7.66773,-3.15239 -1.96909,-1.96579 -3.01104,-4.58273 -2.91834,-7.25858 0.0911,-2.62957 1.27143,-5.10542 3.26479,-6.90221 1.97096,-1.77659 4.59636,-2.76219 7.31814,-2.7555 2.72467,0.007 5.35865,1.00726 7.33992,2.79941 2.00689,1.81534 3.19715,4.30929 3.28983,6.95044 0,0 0,0 0,0"
       transform="matrix(0.8712,0,0,0.8712,-329.264,-433.91)"
       style="fill:url(#g)" />
    <path
       id="path50"
       transform="matrix(1.0272523,0,0,0.97133682,-0.92726614,0.42499517)"
       d="M 30.996094 22 C 29.687663 21.99506 28.428302 22.504088 27.494141 23.417969 C 26.555684 24.336059 26.01724 25.590104 26 26.910156 C 25.982688 28.23947 26.495608 29.527396 27.429688 30.484375 C 28.368727 31.446455 29.652724 31.993102 30.996094 32 C 32.340073 32.007301 33.625716 31.474637 34.566406 30.521484 C 35.502694 29.572774 36.017805 28.288706 36 26.957031 C 35.982355 25.634643 35.441198 24.372307 34.5 23.445312 C 33.563703 22.523139 32.305097 22.005148 30.996094 22 z "
       style="fill:url(#h)" />
  </g>
</svg>
