<?xml version="1.0" encoding="UTF-8" standalone="no"?>
<svg
   xmlns:dc="http://purl.org/dc/elements/1.1/"
   xmlns:cc="http://creativecommons.org/ns#"
   xmlns:rdf="http://www.w3.org/1999/02/22-rdf-syntax-ns#"
   xmlns:svg="http://www.w3.org/2000/svg"
   xmlns="http://www.w3.org/2000/svg"
   xmlns:xlink="http://www.w3.org/1999/xlink"
   xmlns:sodipodi="http://sodipodi.sourceforge.net/DTD/sodipodi-0.dtd"
   xmlns:inkscape="http://www.inkscape.org/namespaces/inkscape"
   width="48"
   height="48"
   version="1.1"
   id="svg2"
   inkscape:version="0.91 r13725"
   sodipodi:docname="kdeapp.svg">
  <metadata
     id="metadata49">
    <rdf:RDF>
      <cc:Work
         rdf:about="">
        <dc:format>image/svg+xml</dc:format>
        <dc:type
           rdf:resource="http://purl.org/dc/dcmitype/StillImage" />
      </cc:Work>
    </rdf:RDF>
  </metadata>
  <sodipodi:namedview
     pagecolor="#ffffff"
     bordercolor="#666666"
     borderopacity="1"
     objecttolerance="10"
     gridtolerance="10"
     guidetolerance="10"
     inkscape:pageopacity="0"
     inkscape:pageshadow="2"
     inkscape:window-width="1360"
     inkscape:window-height="717"
     id="namedview47"
     showgrid="false"
     inkscape:zoom="4.9166667"
     inkscape:cx="24"
     inkscape:cy="24"
     inkscape:window-x="0"
     inkscape:window-y="26"
     inkscape:window-maximized="1"
     inkscape:current-layer="svg2" />
  <defs
     id="defs4">
    <linearGradient
       id="linearGradient4252">
      <stop
         style="stop-color:#000000;stop-opacity:1;"
         offset="0"
         id="stop7" />
      <stop
         style="stop-color:#000000;stop-opacity:0;"
         offset="1"
         id="stop9" />
    </linearGradient>
    <linearGradient
       xlink:href="#linearGradient4252"
       id="linearGradient4260"
       x1="17"
       y1="10"
       x2="35.942"
       y2="28.942"
       gradientUnits="userSpaceOnUse"
       gradientTransform="translate(-1,1)" />
    <linearGradient
       id="c-5"
       y1="-.883"
       x1="-41.26"
       y2="37.956"
       x2="-2.994"
       gradientUnits="userSpaceOnUse"
       gradientTransform="matrix(1.0454421,0,0,1.0298842,46.076843,3.856842)">
      <stop
         stop-color="#21c9fb"
         id="stop13" />
      <stop
         offset="1"
         stop-color="#1a86f2"
         id="stop15" />
    </linearGradient>
    <linearGradient
       xlink:href="#linearGradient4252"
       id="linearGradient4225"
       x1="31.021"
       y1="-9.896"
       x2="43.104"
       y2="-9.896"
       gradientUnits="userSpaceOnUse"
       gradientTransform="matrix(0.70710678,0.70710678,-0.70710678,0.70710678,0,0)" />
    <linearGradient
       xlink:href="#linearGradient4252"
       id="linearGradient4236"
       x1="23.716"
       y1="13.219"
       x2="26.348"
       y2="15.851"
       gradientUnits="userSpaceOnUse" />
  </defs>
  <path
     style="fill:url(#c-5);stroke-width:2;stroke-linejoin:bevel"
     d="M 9.4610528,4 C 6.4357896,4 4.0915791,6.401053 4.0000001,9.38 l 0,29.356842 C 4.0000001,41.652631 6.383158,44 9.3431576,44 L 38.538948,44 C 41.564211,44 44,41.6 44,38.62 L 44,9.263158 C 44,6.347369 41.616843,4 38.656843,4 Z"
     id="path19" />
  <path
     style="opacity:0.2;fill:url(#linearGradient4260);fill-opacity:1;stroke:none;stroke-width:2;stroke-linecap:round;stroke-linejoin:round;stroke-miterlimit:4;stroke-dasharray:none;stroke-opacity:1"
     d="m 22.162109,18.726562 -2.193359,-2.193359 -2.304688,1.455078 -0.867187,1.992188 -6.75,6.75 4.607422,4.607422 -1.964844,1.748047 L 22.603516,43 36.8125,43 C 39.686565,43 42,40.719679 42,37.888672 33.503716,27.406591 24,16 22.162109,18.726562 Z"
     id="path35" />
  <path
     style="fill:#000000;stroke-width:2;stroke-linejoin:bevel;fill-opacity:1;opacity:0.15"
     d="M 44 37.619141 C 44 40.599141 41.564326 43 38.539062 43 L 9.34375 43 C 6.3837504 43 4 40.652117 4 37.736328 L 4 38.736328 C 4 41.652117 6.3837504 44 9.34375 44 L 38.539062 44 C 41.564326 44 44 41.599141 44 38.619141 L 44 37.619141 z"
     id="path37" />
  <path
     style="opacity:0.2;fill:url(#linearGradient4225);fill-opacity:1;stroke:none;stroke-width:4;stroke-linecap:butt;stroke-linejoin:miter;stroke-miterlimit:4;stroke-dasharray:none;stroke-opacity:1"
     d="M 36.970703 10.988281 L 32.601562 12.166016 L 28.082031 21.666016 L 32 29.994141 L 43.285156 41.279297 C 43.737436 40.495097 44 39.58891 44 38.619141 L 44 18.017578 L 36.970703 10.988281 z"
     id="path39" />
  <path
     d="m 26.000804,9.9953918 4.531314,4.5313142 -3.142254,6.655326 -6.28785,-6.28785 z"
     style="opacity:0.2;fill:url(#linearGradient4236);fill-opacity:1;stroke:none;stroke-width:4;stroke-linecap:butt;stroke-linejoin:miter;stroke-miterlimit:4;stroke-dasharray:none;stroke-opacity:1"
     id="path41" />
  <path
     style="opacity:1;fill:#ffffff;fill-opacity:1;stroke:none;stroke-width:2;stroke-linecap:round;stroke-linejoin:round;stroke-miterlimit:4;stroke-dasharray:none;stroke-opacity:1"
     d="m 15.208984,14.617188 c -0.123062,-0.0059 -0.241909,0.03097 -0.339843,0.128906 l -2.123047,2.123047 c -0.195869,0.195869 -0.195869,0.511162 0,0.707031 l 2.193359,3.445312 c -0.175549,0.354193 -0.327571,0.719568 -0.455078,1.09375 L 10.5,23 C 10.223,23 10,23.223 10,23.5 l 0,3 c 0,0.277 0.229596,0.43991 0.5,0.5 l 3.986328,0.886719 c 0.12346,0.370523 0.270907,0.732616 0.441406,1.083984 l -2.197265,3.453125 c -0.148715,0.233695 -0.195869,0.511162 0,0.707031 l 2.121093,2.123047 c 0.19587,0.195869 0.511163,0.195869 0.707032,0 l 3.453125,-2.199218 c 0.357212,0.177942 0.725864,0.331927 1.103515,0.460937 L 21,37.5 c 0,0.277 0.223,0.5 0.5,0.5 l 3,0 c 0.277,0 0.43991,-0.229596 0.5,-0.5 l 0.886719,-3.986328 c 0.376029,-0.125362 0.743365,-0.275428 1.099609,-0.449219 l 3.4375,2.189453 c 0.195869,0.195869 0.511162,0.195869 0.707031,0 l 2.123047,-2.123047 c 0.195869,-0.195869 0.148715,-0.473336 0,-0.707031 l -0.9375,-1.472656 -0.699218,0.279297 -2.240235,-3.359375 C 28.247974,30.381473 25.752561,31.997186 23,32 c -3.865993,0 -7,-3.134007 -7,-7 0.0031,-2.700827 1.559779,-5.15891 4,-6.316406 l 0,-2.152344 c -0.336475,0.11516 -0.665829,0.250162 -0.986328,0.404297 l -3.4375,-2.189453 c -0.116848,-0.07436 -0.244125,-0.123012 -0.367188,-0.128906 z"
     id="path43" />
  <path
     style="opacity:1;fill:#ffffff;fill-opacity:1;stroke:none;stroke-width:2;stroke-linecap:round;stroke-linejoin:round;stroke-miterlimit:4;stroke-dasharray:none;stroke-opacity:1"
     d="M 26,10 21,10.462891 21,30 l 5,-1 0,-8 6,9 5,-2 L 30.5,19.585938 37.003906,11 31.767578,10 26,18.5 Z"
     id="path45" />
</svg>
