<?xml version="1.0" encoding="UTF-8" standalone="no"?>
<!-- Created with Inkscape (http://www.inkscape.org/) -->
<svg xmlns:inkscape="http://www.inkscape.org/namespaces/inkscape" xmlns:rdf="http://www.w3.org/1999/02/22-rdf-syntax-ns#" xmlns="http://www.w3.org/2000/svg" xmlns:sodipodi="http://sodipodi.sourceforge.net/DTD/sodipodi-0.dtd" xmlns:cc="http://creativecommons.org/ns#" xmlns:xlink="http://www.w3.org/1999/xlink" xmlns:dc="http://purl.org/dc/elements/1.1/" xmlns:svg="http://www.w3.org/2000/svg" xmlns:ns1="http://sozi.baierouge.fr" id="svg2" sodipodi:docname="webcam.svg" viewBox="0 0 252.94 258.26" version="1.1" inkscape:version="0.48.3.1 r9886">
  <defs id="defs4">
    <linearGradient id="linearGradient2987">
      <stop id="stop2989" style="stop-color:#ffffff" offset="0"/>
      <stop id="stop2991" style="stop-color:#cbcbcb" offset="1"/>
    </linearGradient>
    <radialGradient id="radialGradient2993" xlink:href="#linearGradient2987" gradientUnits="userSpaceOnUse" cy="285.36" cx="310" gradientTransform="matrix(.71241 1.0143 -.96992 .68122 365.93 -223.48)" r="121.5" inkscape:collect="always"/>
    <radialGradient id="radialGradient2997" gradientUnits="userSpaceOnUse" cy="285.36" cx="310" gradientTransform="matrix(.71241 1.0143 -.96992 .68122 365.93 -223.48)" r="121.5" inkscape:collect="always">
      <stop id="stop3779" style="stop-color:#f3f3f3" offset="0"/>
      <stop id="stop3781" style="stop-color:#aeaeae" offset="1"/>
    </radialGradient>
    <radialGradient id="radialGradient3023" gradientUnits="userSpaceOnUse" cy="411.18" cx="400.86" gradientTransform="matrix(-.49223 -.57427 .75926 -.65079 285.99 908.97)" r="121.5" inkscape:collect="always">
      <stop id="stop3019" style="stop-color:#ffffff" offset="0"/>
      <stop id="stop3021" style="stop-color:#ffffff;stop-opacity:0" offset="1"/>
    </radialGradient>
    <linearGradient id="linearGradient3033" y2="490.36" xlink:href="#linearGradient2987" gradientUnits="userSpaceOnUse" x2="359" gradientTransform="matrix(1.7046 0 0 1 -253.67 0)" y1="387.36" x1="359.59" inkscape:collect="always"/>
  </defs>
  <sodipodi:namedview id="base" fit-margin-left="0" inkscape:zoom="1" borderopacity="1.0" inkscape:current-layer="layer1" inkscape:cx="122.96875" inkscape:cy="140.26282" inkscape:window-maximized="1" showgrid="false" fit-margin-right="0" showguides="false" bordercolor="#666666" inkscape:window-x="1916" inkscape:guide-bbox="true" inkscape:window-y="-3" fit-margin-bottom="0" inkscape:window-width="1920" inkscape:pageopacity="0.0" inkscape:pageshadow="2" pagecolor="#ffffff" inkscape:document-units="px" inkscape:window-height="1180" fit-margin-top="0">
    <sodipodi:guide id="guide3025" position="125.46875,183.26282" orientation="1,0"/>
    <inkscape:grid id="grid3027" originy="-549.73718px" enabled="true" originx="-233.53125px" visible="true" snapvisiblegridlinesonly="true" type="xygrid" empspacing="5"/>
  </sodipodi:namedview>
  <g id="layer1" inkscape:label="Layer 1" inkscape:groupmode="layer" transform="translate(-233.53 -244.36)">
    <path id="path3029" style="fill:url(#linearGradient3033)" inkscape:connector-curvature="0" d="m240.68 492.36h238.65l-68.185-70h-102.28z"/>
    <path id="path2985" sodipodi:rx="120.5" sodipodi:ry="120.5" style="fill:url(#radialGradient2993)" sodipodi:type="arc" d="m479 353.86c0 66.55-53.95 120.5-120.5 120.5s-120.5-53.95-120.5-120.5 53.95-120.5 120.5-120.5 120.5 53.95 120.5 120.5z" transform="matrix(.90871 0 0 .90871 32.726 32.303)" sodipodi:cy="353.86218" sodipodi:cx="358.5"/>
    <path id="path2995" sodipodi:rx="120.5" sodipodi:ry="120.5" style="fill:url(#radialGradient2997)" sodipodi:type="arc" d="m479 353.86c0 66.55-53.95 120.5-120.5 120.5s-120.5-53.95-120.5-120.5 53.95-120.5 120.5-120.5 120.5 53.95 120.5 120.5z" transform="matrix(-.66404 0 0 -.66404 596.56 588.84)" sodipodi:cy="353.86218" sodipodi:cx="358.5"/>
    <path id="path2999" sodipodi:rx="120.5" sodipodi:ry="120.5" style="stroke-linejoin:round;stroke:#999999;stroke-linecap:round;stroke-width:1.2739;fill:url(#radialGradient2993)" sodipodi:type="arc" d="m479 353.86c0 66.55-53.95 120.5-120.5 120.5s-120.5-53.95-120.5-120.5 53.95-120.5 120.5-120.5 120.5 53.95 120.5 120.5z" transform="matrix(.59225 0 0 .59225 146.18 144.29)" sodipodi:cy="353.86218" sodipodi:cx="358.5"/>
    <path id="path3003" sodipodi:rx="120.5" sodipodi:ry="120.5" style="stroke-linejoin:round;stroke:#b3b3b3;stroke-linecap:round;stroke-width:2.7378;fill:url(#radialGradient2993)" sodipodi:type="arc" d="m479 353.86c0 66.55-53.95 120.5-120.5 120.5s-120.5-53.95-120.5-120.5 53.95-120.5 120.5-120.5 120.5 53.95 120.5 120.5z" transform="matrix(.33706 0 0 .33706 237.66 234.59)" sodipodi:cy="353.86218" sodipodi:cx="358.5"/>
    <path id="path3007" sodipodi:rx="120.5" sodipodi:ry="120.5" style="stroke-linejoin:round;stroke:#b3b3b3;stroke-linecap:round;stroke-width:3.7524;fill:url(#radialGradient2993)" sodipodi:type="arc" d="m479 353.86c0 66.55-53.95 120.5-120.5 120.5s-120.5-53.95-120.5-120.5 53.95-120.5 120.5-120.5 120.5 53.95 120.5 120.5z" transform="matrix(-.24592 0 0 -.24592 446.66 440.88)" sodipodi:cy="353.86218" sodipodi:cx="358.5"/>
    <path id="path3011" sodipodi:rx="120.5" sodipodi:ry="120.5" style="fill:#000000" sodipodi:type="arc" d="m479 353.86c0 66.55-53.95 120.5-120.5 120.5s-120.5-53.95-120.5-120.5 53.95-120.5 120.5-120.5 120.5 53.95 120.5 120.5z" transform="matrix(-.18516 0 0 -.18516 424.88 419.38)" sodipodi:cy="353.86218" sodipodi:cx="358.5"/>
    <path id="path3015" sodipodi:rx="120.5" sodipodi:ry="120.5" style="fill:url(#radialGradient3023)" sodipodi:type="arc" d="m479 353.86c0 66.55-53.95 120.5-120.5 120.5s-120.5-53.95-120.5-120.5 53.95-120.5 120.5-120.5 120.5 53.95 120.5 120.5z" transform="matrix(-.17117 0 0 -.17117 419.87 414.43)" sodipodi:cy="353.86218" sodipodi:cx="358.5"/>
    <rect id="rect3035" style="stroke:#cccccc;stroke-width:.53557;fill:#b3b3b3" height="10" width="252.42" y="492.36" x="233.79"/>
  </g>
  <metadata>
    <rdf:RDF>
      <cc:Work>
        <dc:format>image/svg+xml</dc:format>
        <dc:type rdf:resource="http://purl.org/dc/dcmitype/StillImage"/>
        <cc:license rdf:resource="http://creativecommons.org/licenses/publicdomain/"/>
        <dc:publisher>
          <cc:Agent rdf:about="http://openclipart.org/">
            <dc:title>Openclipart</dc:title>
          </cc:Agent>
        </dc:publisher>
        <dc:title>webcam</dc:title>
        <dc:date>2012-06-15T09:06:37</dc:date>
        <dc:description>A typical desktop webcam</dc:description>
        <dc:source>https://openclipart.org/detail/170690/webcam-by-crimperman-170690</dc:source>
        <dc:creator>
          <cc:Agent>
            <dc:title>Crimperman</dc:title>
          </cc:Agent>
        </dc:creator>
        <dc:subject>
          <rdf:Bag>
            <rdf:li>camera</rdf:li>
            <rdf:li>photorealistic</rdf:li>
            <rdf:li>webcam</rdf:li>
            <rdf:li>white</rdf:li>
          </rdf:Bag>
        </dc:subject>
      </cc:Work>
      <cc:License rdf:about="http://creativecommons.org/licenses/publicdomain/">
        <cc:permits rdf:resource="http://creativecommons.org/ns#Reproduction"/>
        <cc:permits rdf:resource="http://creativecommons.org/ns#Distribution"/>
        <cc:permits rdf:resource="http://creativecommons.org/ns#DerivativeWorks"/>
      </cc:License>
    </rdf:RDF>
  </metadata>
</svg>