<svg xmlns="http://www.w3.org/2000/svg" viewBox="0 0 16 16">
  <defs id="defs3051">
    <style type="text/css" id="current-color-scheme">
      .ColorScheme-Text {
        color:#4d4d4d;
      }
      </style>
  </defs>
 <path 
     style="fill:currentColor;fill-opacity:1;stroke:none" 
     d="M 2 2 L 2 3 L 2 6 L 2 7 L 2 13 L 2 14 L 14 14 L 14 13 L 14 6 L 14 5 L 14 4 L 9.0078125 4 L 7.0078125 2 L 7 2.0078125 L 7 2 L 3 2 L 2 2 z M 3 3 L 6.5917969 3 L 7.59375 4 L 7 4 L 7 4.0078125 L 6.9921875 4 L 4.9921875 6 L 3 6 L 3 3 z "
     class="ColorScheme-Text"
     />
 <path 
     style="opacity:1;fill:#ececec;fill-opacity:1;stroke:none"
     d="M 10.056641 6.7558594 A 2.34375 2.34375 0 0 0 7.7167969 9 L 7 9 L 7 10 L 7 13 L 13 13 L 13 9 L 12.394531 9 A 2.34375 2.34375 0 0 0 10.056641 6.7558594 z M 10.048828 7.5371094 A 1.5625 1.5625 0 0 1 10.056641 7.5371094 A 1.5625 1.5625 0 0 1 11.615234 9 L 8.5 9 A 1.5625 1.5625 0 0 1 10.048828 7.5371094 z "
     />
</svg>
