<?xml version="1.0" encoding="UTF-8" standalone="no"?>
<!-- Created with Inkscape (http://www.inkscape.org/) -->

<svg
   xmlns:dc="http://purl.org/dc/elements/1.1/"
   xmlns:cc="http://creativecommons.org/ns#"
   xmlns:rdf="http://www.w3.org/1999/02/22-rdf-syntax-ns#"
   xmlns:svg="http://www.w3.org/2000/svg"
   xmlns="http://www.w3.org/2000/svg"
   xmlns:sodipodi="http://sodipodi.sourceforge.net/DTD/sodipodi-0.dtd"
   xmlns:inkscape="http://www.inkscape.org/namespaces/inkscape"
   width="22"
   version="1.1"
   height="22"
   id="svg2"
   inkscape:version="0.91 r13725"
   sodipodi:docname="application-vnd.iccprofile.svg">
  <sodipodi:namedview
     pagecolor="#ffffff"
     bordercolor="#666666"
     borderopacity="1"
     objecttolerance="10"
     gridtolerance="10"
     guidetolerance="10"
     inkscape:pageopacity="0"
     inkscape:pageshadow="2"
     inkscape:window-width="709"
     inkscape:window-height="480"
     id="namedview15"
     showgrid="false"
     inkscape:zoom="10.727273"
     inkscape:cx="0.6059322"
     inkscape:cy="11"
     inkscape:window-x="0"
     inkscape:window-y="0"
     inkscape:window-maximized="0"
     inkscape:current-layer="layer1" />
  <defs
     id="defs3871" />
  <metadata
     id="metadata3874">
    <rdf:RDF>
      <cc:Work
         rdf:about="">
        <dc:format>image/svg+xml</dc:format>
        <dc:type
           rdf:resource="http://purl.org/dc/dcmitype/StillImage" />
      </cc:Work>
    </rdf:RDF>
  </metadata>
  <g
     inkscape:label="Capa 1"
     inkscape:groupmode="layer"
     id="layer1"
     transform="matrix(1 0 0 1 -326 -534.3622)">
    <rect
       width="0"
       x="326.49567"
       y="535.98694"
       height="10.999983"
       style="fill:#f27935"
       id="rect4035" />
    <rect
       width="0"
       x="321.94366"
       y="538.50604"
       height="10.999983"
       style="fill:#f27935"
       id="rect4035-7" />
    <rect
       width="0"
       x="317.43588"
       y="526.08746"
       height="10.999983"
       style="fill:#f27935"
       id="rect4035-9" />
    <rect
       width="0"
       x="318.27991"
       y="538.32489"
       height="10.999983"
       style="fill:#f27935"
       id="rect4035-96" />
    <rect
       width="0"
       x="313.72791"
       y="540.84399"
       height="10.999983"
       style="fill:#f27935"
       id="rect4035-7-0" />
    <rect
       width="0"
       x="309.22012"
       y="528.42542"
       height="10.999983"
       style="fill:#f27935"
       id="rect4035-9-6" />
    <rect
       width="0"
       x="319.82672"
       y="550.47833"
       height="10.999983"
       style="fill:#e00a5e"
       id="rect4035-4" />
    <path
       inkscape:label="Capa 1"
       inkscape:connector-curvature="0"
       style="fill:#f9d24c;fill-opacity:1"
       id="rect4108"
       d="M 11,3 C 10.027093,6.4050342 7.6455537,9.3322765 6.5957031,11.675781 6.2282987,12.372552 6,13.15458 6,14 c 0,2.770002 2.2299982,5 5,5 2.770002,0 5,-2.229998 5,-5 0,-0.84542 -0.228299,-1.627448 -0.595703,-2.324219 C 14.354447,9.3322765 11.972897,6.4050342 11,3 Z m 2.283203,7.716797 C 14.3209,11.438005 15,12.635082 15,14 15,16.216002 13.216002,18 11,18 9.6350429,18 8.4379979,17.320951 7.7167969,16.283203 8.363845,16.732907 9.148916,17 10,17 c 2.216002,0 4,-1.783998 4,-4 0,-0.851084 -0.267093,-1.636155 -0.716797,-2.283203 z"
       transform="matrix(1 0 0 1 326 534.3622)" />
  </g>
</svg>
