<?xml version="1.0" encoding="UTF-8" standalone="no"?>
<svg
   xmlns:dc="http://purl.org/dc/elements/1.1/"
   xmlns:cc="http://creativecommons.org/ns#"
   xmlns:rdf="http://www.w3.org/1999/02/22-rdf-syntax-ns#"
   xmlns:svg="http://www.w3.org/2000/svg"
   xmlns="http://www.w3.org/2000/svg"
   xmlns:xlink="http://www.w3.org/1999/xlink"
   xmlns:sodipodi="http://sodipodi.sourceforge.net/DTD/sodipodi-0.dtd"
   xmlns:inkscape="http://www.inkscape.org/namespaces/inkscape"
   width="32"
   height="32"
   id="svg2"
   version="1.1"
   inkscape:version="0.91 r13725"
   sodipodi:docname="application-xmind.svg">
  <metadata
     id="metadata41">
    <rdf:RDF>
      <cc:Work
         rdf:about="">
        <dc:format>image/svg+xml</dc:format>
        <dc:type
           rdf:resource="http://purl.org/dc/dcmitype/StillImage" />
      </cc:Work>
    </rdf:RDF>
  </metadata>
  <sodipodi:namedview
     pagecolor="#ffffff"
     bordercolor="#666666"
     borderopacity="1"
     objecttolerance="10"
     gridtolerance="10"
     guidetolerance="10"
     inkscape:pageopacity="0"
     inkscape:pageshadow="2"
     inkscape:window-width="1920"
     inkscape:window-height="1023"
     id="namedview39"
     showgrid="false"
     inkscape:zoom="7.375"
     inkscape:cx="-4.5423729"
     inkscape:cy="16"
     inkscape:window-x="0"
     inkscape:window-y="28"
     inkscape:window-maximized="1"
     inkscape:current-layer="svg2" />
  <defs
     id="defs4">
    <linearGradient
       id="c"
       y1="524.8"
       x1="404.57"
       y2="531.8"
       x2="411.57"
       gradientUnits="userSpaceOnUse"
       gradientTransform="translate(-384.57,-515.8)">
      <stop
         stop-color="#383e51"
         id="stop17" />
      <stop
         offset="1"
         stop-color="#655c6f"
         stop-opacity="0"
         id="stop19" />
    </linearGradient>
    <linearGradient
       inkscape:collect="always"
       xlink:href="#linearGradient4241"
       id="linearGradient4180"
       x1="15.259041"
       y1="29.806559"
       x2="14.535745"
       y2="2.3851981"
       gradientUnits="userSpaceOnUse" />
    <linearGradient
       id="linearGradient4241"
       y1="392.35999"
       y2="365.35999"
       x2="0"
       gradientUnits="userSpaceOnUse"
       gradientTransform="translate(309.57,152.44)">
      <stop
         stop-color="#ffffff"
         stop-opacity="0"
         id="stop4243" />
      <stop
         offset="1"
         stop-color="#ffffff"
         stop-opacity=".2"
         id="stop4245" />
    </linearGradient>
  </defs>
  <path
     inkscape:connector-curvature="0"
     style="fill:#fa4b2d;fill-opacity:1"
     id="path23"
     d="m 5,30 0,-28 15,0 7,7 0,21 -7,0 z" />
  <rect
     width="15"
     x="5.0000072"
     y="-2.9999878"
     height="1"
     id="rect27"
     style="fill:#ffffff;fill-opacity:0.41199999"
     transform="scale(1,-1)" />
  <rect
     width="22"
     x="5.0000072"
     y="-29.999989"
     height="1"
     id="rect29"
     style="fill:#2e3132;fill-opacity:0.294"
     transform="scale(1,-1)" />
  <path
     d="M 27,9 20,2 20,9 Z"
     id="path33"
     style="fill:#ffffff;fill-rule:evenodd;fill-opacity:1;opacity:0.5"
     inkscape:connector-curvature="0" />
  <path
     d="M 27,16 20,9 27,9 Z"
     id="path35"
     style="opacity:0.2;fill:url(#c);fill-rule:evenodd"
     inkscape:connector-curvature="0" />
  <path
     style="fill:#ffffff;fill-opacity:1;opacity:0.75"
     inkscape:connector-curvature="0"
     id="path37"
     d="m 20.98,14 -3.475,0.629 c 0.05,2.376 -2.254,4.03 -4.416,-0.449 L 9,14.809 c 0.636,2.42 2.921,2.718 4.445,3.991 -0.762,1.194 -4.223,0.475 -4.13,4.2 l 3.475,-0.629 c -0.05,-2.376 3.96,-4.376 6.122,0.1 l 4.089,-0.629 c -0.638,-2.426 -3.066,-2.657 -4.589,-3.937 0.755,-1.734 3.254,-0.175 2.569,-3.904" />
  <path
     inkscape:connector-curvature="0"
     style="fill:url(#linearGradient4180);fill-opacity:1"
     id="path23-3"
     d="m 5,30 0,-28 15,0 7,7 0,21 -7,0 z" />
</svg>
