<?xml version="1.0" encoding="UTF-8" standalone="no"?>
<svg
   xmlns:dc="http://purl.org/dc/elements/1.1/"
   xmlns:cc="http://creativecommons.org/ns#"
   xmlns:rdf="http://www.w3.org/1999/02/22-rdf-syntax-ns#"
   xmlns:svg="http://www.w3.org/2000/svg"
   xmlns="http://www.w3.org/2000/svg"
   xmlns:xlink="http://www.w3.org/1999/xlink"
   xmlns:sodipodi="http://sodipodi.sourceforge.net/DTD/sodipodi-0.dtd"
   xmlns:inkscape="http://www.inkscape.org/namespaces/inkscape"
   width="64"
   viewBox="0 0 64 64"
   height="64"
   id="svg2"
   version="1.1"
   inkscape:version="0.91 r13725"
   sodipodi:docname="application-dicom.svg">
  <metadata
     id="metadata39">
    <rdf:RDF>
      <cc:Work
         rdf:about="">
        <dc:format>image/svg+xml</dc:format>
        <dc:type
           rdf:resource="http://purl.org/dc/dcmitype/StillImage" />
      </cc:Work>
    </rdf:RDF>
  </metadata>
  <sodipodi:namedview
     pagecolor="#ffffff"
     bordercolor="#666666"
     borderopacity="1"
     objecttolerance="10"
     gridtolerance="10"
     guidetolerance="10"
     inkscape:pageopacity="0"
     inkscape:pageshadow="2"
     inkscape:window-width="640"
     inkscape:window-height="480"
     id="namedview37"
     showgrid="false"
     inkscape:snap-bbox="true"
     inkscape:bbox-nodes="true"
     inkscape:zoom="1"
     inkscape:cx="56.084255"
     inkscape:cy="25.74175"
     inkscape:current-layer="svg2">
    <inkscape:grid
       type="xygrid"
       id="grid4222" />
  </sodipodi:namedview>
  <defs
     id="defs4">
    <linearGradient
       id="a"
       y1="3"
       y2="61"
       x2="0"
       gradientUnits="userSpaceOnUse"
       gradientTransform="matrix(1 0 0-1 0 64)">
      <stop
         stop-color="#5e6b78"
         id="stop7" />
      <stop
         offset="1"
         stop-color="#768492"
         id="stop9" />
    </linearGradient>
    <linearGradient
       id="b"
       y1="61"
       y2="47"
       x2="0"
       gradientUnits="userSpaceOnUse"
       gradientTransform="matrix(1 0 0-1 0 64)">
      <stop
         stop-color="#dedede"
         id="stop12" />
      <stop
         offset="1"
         stop-color="#fbfbfb"
         id="stop14" />
    </linearGradient>
    <linearGradient
       id="c"
       y1="17"
       x1="40"
       y2="31"
       x2="54"
       gradientUnits="userSpaceOnUse">
      <stop
         stop-color="#383e51"
         id="stop17" />
      <stop
         offset="1"
         stop-color="#655c6f"
         stop-opacity="0"
         id="stop19" />
    </linearGradient>
    <linearGradient
       x2="54"
       gradientUnits="userSpaceOnUse"
       y2="31"
       x1="40"
       y1="17"
       id="a-3">
      <stop
         id="stop4172"
         stop-color="#060606" />
      <stop
         id="stop4174"
         stop-opacity="0"
         offset="1" />
    </linearGradient>
    <linearGradient
       gradientTransform="translate(-48,-332.36)"
       x2="0"
       gradientUnits="userSpaceOnUse"
       y2="336.36"
       y1="392.36"
       id="b-6">
      <stop
         id="stop4177"
         stop-opacity="0"
         stop-color="#ffffff" />
      <stop
         id="stop4179"
         stop-opacity=".2"
         stop-color="#ffffff"
         offset="1" />
    </linearGradient>
    <path
       d="m10 61v-58h30l14 14v44h-14z"
       id="c-7" />
  </defs>
  <g
     id="g4251">
    <use
       id="use4182"
       xlink:href="#c-7"
       style="fill:#555555"
       x="0"
       y="0"
       width="100%"
       height="100%" />
    <g
       transform="scale(1,-1)"
       id="g4186"
       style="color:#000000;color-interpolation:sRGB;color-interpolation-filters:linearRGB;color-rendering:auto;image-rendering:auto;shape-rendering:auto;text-rendering:auto">
      <rect
         style="opacity:0.5;fill:#ffffff"
         x="10"
         y="-4"
         width="30"
         height="1"
         id="rect4188" />
      <rect
         style="opacity:0.25"
         x="10"
         y="-61"
         width="44"
         height="1"
         id="rect4190" />
    </g>
    <path
       style="color:#000000;opacity:0.5;color-interpolation:sRGB;color-interpolation-filters:linearRGB;fill:#ffffff;color-rendering:auto;image-rendering:auto;shape-rendering:auto;text-rendering:auto"
       inkscape:connector-curvature="0"
       d="M 54,17 40,3 40,17 Z"
       id="path4192" />
    <path
       style="opacity:0.2;fill:url(#a-3);fill-rule:evenodd"
       id="path4194"
       d="M 40,17 54,31 54,17 Z"
       inkscape:connector-curvature="0" />
    <use
       style="fill:url(#b-6)"
       id="use4198"
       xlink:href="#c-7"
       x="0"
       y="0"
       width="100%"
       height="100%" />
    <path
       style="color:#000000;clip-rule:nonzero;display:inline;overflow:visible;visibility:visible;opacity:0.75;isolation:auto;mix-blend-mode:normal;color-interpolation:sRGB;color-interpolation-filters:linearRGB;solid-color:#000000;solid-opacity:1;fill:#e0e0e0;fill-opacity:1;fill-rule:nonzero;stroke-width:1;stroke-linecap:butt;stroke-linejoin:miter;stroke-miterlimit:4;stroke-dasharray:none;stroke-dashoffset:0;stroke-opacity:1;filter-blend-mode:normal;filter-gaussianBlur-deviation:0;color-rendering:auto;image-rendering:auto;shape-rendering:auto;text-rendering:auto;enable-background:accumulate"
       id="path35"
       d="m30.3 20c-1.254 0-2.889.693-4.384 1.857-.897.377-1.527 1.249-1.527 2.263 0 .318.061.628.179.917-1.55.294-2.724 1.629-2.724 3.23 0 .333.051.661.152.978-.639.617-1 1.454-1 2.339 0 .692.22 1.334.595 1.865-.389.55-.595 1.193-.595 1.868 0 1.197.667 2.293 1.724 2.871-.018.148-.027.297-.027.446 0 1.614 1.078 3.041 2.64 3.527.68 1.137 1.916 1.838 3.27 1.838 1.484 0 2.771-.839 3.393-2.057.622 1.218 1.909 2.057 3.393 2.057 1.354 0 2.592-.701 3.272-1.838 1.563-.486 2.638-1.913 2.638-3.527 0-.149-.009-.298-.027-.446 1.057-.578 1.724-1.675 1.724-2.871 0-.676-.204-1.318-.593-1.868.374-.53.593-1.173.593-1.865 0-.885-.361-1.723-1-2.339.101-.317.152-.645.152-.978 0-1.6-1.174-2.936-2.724-3.23.118-.289.179-.599.179-.917 0-1.014-.63-1.886-1.527-2.263-1.495-1.164-3.129-1.857-4.384-1.857-.697 0-1.316.336-1.697.85-.381-.514-.999-.85-1.697-.85m0 .778c.716 0 1.299.57 1.299 1.27v5.03c-.357-.277-.808-.444-1.299-.444-.22 0-.398.174-.398.389 0 .215.178.389.398.389.716 0 1.299.57 1.299 1.27v9.344c-.494-.624-1.191-1.094-2.01-1.31-.212-.056-.431.067-.488.275-.057.207.069.421.281.477 1.306.343 2.217 1.505 2.217 2.826 0 1.615-1.344 2.929-2.995 2.929-1.115 0-2.13-.602-2.65-1.569-.052-.096-.143-.166-.25-.194-1.305-.343-2.215-1.504-2.215-2.824 0-.197.02-.396.06-.589.037-.179-.058-.359-.228-.433-.929-.404-1.529-1.304-1.529-2.296 0-.451.119-.882.347-1.264.594.512 1.371.824 2.223.824.22 0 .398-.174.398-.389 0-.215-.178-.389-.398-.389-1.418 0-2.57-1.129-2.57-2.515 0-.746.337-1.45.924-1.929.133-.108.178-.288.113-.444-.126-.302-.189-.62-.189-.944 0-1.386 1.152-2.513 2.57-2.513 1.418 0 2.572 1.127 2.572 2.513 0 .215.178.389.398.389.22 0 .398-.174.398-.389 0-1.744-1.395-3.174-3.151-3.283-.159-.26-.242-.557-.242-.864 0-.693.43-1.288 1.043-1.546.024-.007.046-.017.068-.029.19-.071.395-.109.61-.109.666 0 1.261.364 1.552.949.096.193.333.273.53.179.198-.094.279-.325.183-.519-.332-.669-.961-1.149-1.685-1.319 1.015-.605 2.01-.949 2.812-.949m3.393 0c.798 0 1.797.344 2.812.949-.724.17-1.353.651-1.685 1.319-.096.193-.014.425.183.519.198.094.436.014.532-.179.291-.586.885-.949 1.55-.949.215 0 .421.038.61.109.022.011.047.022.07.029.613.258 1.043.853 1.043 1.546 0 .307-.085.604-.244.864-1.756.109-3.149 1.539-3.149 3.283 0 .215.178.389.398.389.22 0 .398-.174.398-.389 0-1.386 1.152-2.513 2.57-2.513 1.418 0 2.572 1.127 2.572 2.513 0 .324-.064.641-.189.944-.065.157-.019.336.113.444.587.48.924 1.183.924 1.929 0 1.386-1.154 2.515-2.572 2.515-.22 0-.398.174-.398.389 0 .215.178.389.398.389.852 0 1.629-.312 2.223-.824.228.382.349.813.349 1.264 0 .991-.6 1.892-1.529 2.296-.17.074-.265.254-.228.433.04.193.06.392.06.589 0 1.32-.912 2.48-2.217 2.824-.107.028-.196.099-.248.194-.52.967-1.537 1.569-2.652 1.569-1.652 0-2.995-1.314-2.995-2.929 0-.109-.006-.219-.016-.326.01-.033.016-.067.016-.103v-12.841c0-.7.583-1.27 1.299-1.27.22 0 .398-.174.398-.389 0-.215-.178-.389-.398-.389-.49 0-.941.167-1.299.444v-3.373c0-.7.583-1.27 1.299-1.27m5.938 6.686c-.22 0-.398.174-.398.389 0 1.386-1.152 2.513-2.57 2.513-.697 0-1.349-.266-1.837-.753-.154-.153-.407-.156-.564-.006-.157.15-.16.396-.006.549.551.55 1.264.887 2.036.969.183 1.183 1.23 2.093 2.49 2.093.22 0 .398-.174.398-.389 0-.215-.178-.389-.398-.389-.824 0-1.514-.569-1.683-1.325 1.65-.211 2.929-1.592 2.929-3.262 0-.215-.178-.389-.398-.389m-14.42.416c-.22 0-.398.172-.398.387 0 1.67 1.279 3.054 2.929 3.264-.169.756-.859 1.323-1.683 1.323-.22 0-.398.174-.398.389 0 .215.178.389.398.389 1.26 0 2.308-.91 2.49-2.093.772-.082 1.484-.416 2.036-.967.154-.153.151-.401-.006-.551-.157-.15-.408-.148-.562.006-.488.487-1.14.755-1.837.755-1.418 0-2.572-1.129-2.572-2.515 0-.215-.178-.387-.398-.387m8.483 5.804c-.22 0-.398.174-.398.389 0 .215.178.389.398.389 1.418 0 2.572 1.129 2.572 2.515 0 .089-.006.177-.016.265-1.234.489-2.106 1.673-2.106 3.052 0 .215.178.389.398.389.22 0 .398-.174.398-.389 0-1.386 1.154-2.515 2.572-2.515.22 0 .398-.174.398-.389 0-.215-.178-.389-.398-.389-.153 0-.305.011-.452.031 0-.019.002-.037.002-.055 0-1.815-1.511-3.293-3.368-3.293m-4.664.829c-1.856 0-3.368 1.478-3.368 3.293 0 .019.002.036.002.055-.148-.019-.299-.031-.452-.031-.22 0-.398.174-.398.389 0 .215.178.389.398.389 1.418 0 2.572 1.129 2.572 2.515 0 .215.178.389.398.389.22 0 .398-.174.398-.389 0-1.379-.872-2.564-2.106-3.052-.009-.088-.016-.176-.016-.265 0-1.386 1.154-2.515 2.572-2.515.22 0 .398-.174.398-.389 0-.215-.178-.389-.398-.389"
       fill="#fbfbfb"
       opacity=".75" />
  </g>
</svg>
