<?xml version="1.0" encoding="UTF-8" standalone="no"?>
<svg
   xmlns:dc="http://purl.org/dc/elements/1.1/"
   xmlns:cc="http://creativecommons.org/ns#"
   xmlns:rdf="http://www.w3.org/1999/02/22-rdf-syntax-ns#"
   xmlns:svg="http://www.w3.org/2000/svg"
   xmlns="http://www.w3.org/2000/svg"
   xmlns:xlink="http://www.w3.org/1999/xlink"
   xmlns:sodipodi="http://sodipodi.sourceforge.net/DTD/sodipodi-0.dtd"
   xmlns:inkscape="http://www.inkscape.org/namespaces/inkscape"
   width="64"
   viewBox="0 0 64 64"
   height="64"
   id="svg2"
   version="1.1"
   inkscape:version="0.91 r13725"
   sodipodi:docname="application-x-python-bytecode.svg">
  <metadata
     id="metadata39">
    <rdf:RDF>
      <cc:Work
         rdf:about="">
        <dc:format>image/svg+xml</dc:format>
        <dc:type
           rdf:resource="http://purl.org/dc/dcmitype/StillImage" />
      </cc:Work>
    </rdf:RDF>
  </metadata>
  <sodipodi:namedview
     pagecolor="#ffffff"
     bordercolor="#666666"
     borderopacity="1"
     objecttolerance="10"
     gridtolerance="10"
     guidetolerance="10"
     inkscape:pageopacity="0"
     inkscape:pageshadow="2"
     inkscape:window-width="640"
     inkscape:window-height="480"
     id="namedview37"
     showgrid="false"
     inkscape:snap-bbox="true"
     inkscape:bbox-nodes="true"
     inkscape:zoom="1"
     inkscape:cx="35.65981"
     inkscape:cy="17.205784"
     inkscape:current-layer="svg2">
    <inkscape:grid
       type="xygrid"
       id="grid4221" />
  </sodipodi:namedview>
  <defs
     id="defs4">
    <linearGradient
       id="a"
       y1="3"
       y2="61"
       x2="0"
       gradientUnits="userSpaceOnUse"
       gradientTransform="matrix(1,0,0,-1,0,64)">
      <stop
         stop-color="#f39c12"
         id="stop7" />
      <stop
         offset="1"
         stop-color="#f89406"
         id="stop9" />
    </linearGradient>
    <linearGradient
       id="b"
       y1="61"
       y2="47"
       x2="0"
       gradientUnits="userSpaceOnUse"
       gradientTransform="matrix(1 0 0-1 0 64)">
      <stop
         stop-color="#fddda3"
         id="stop12" />
      <stop
         offset="1"
         stop-color="#fde3a7"
         id="stop14" />
    </linearGradient>
    <linearGradient
       id="c"
       y1="17"
       x1="40"
       y2="31"
       x2="54"
       gradientUnits="userSpaceOnUse">
      <stop
         stop-color="#383e51"
         id="stop17" />
      <stop
         offset="1"
         stop-color="#655c6f"
         stop-opacity="0"
         id="stop19" />
    </linearGradient>
    <linearGradient
       gradientTransform="matrix(1 0 0-1 0 64)"
       gradientUnits="userSpaceOnUse"
       x2="0"
       y2="61"
       y1="3"
       id="a-35">
      <stop
         id="stop7-6"
         stop-color="#cf000f" />
      <stop
         id="stop9-2"
         stop-color="#d91e18"
         offset="1" />
    </linearGradient>
    <linearGradient
       gradientTransform="matrix(1 0 0-1 0 64)"
       gradientUnits="userSpaceOnUse"
       x2="0"
       y2="47"
       y1="61"
       id="b-9">
      <stop
         id="stop12-1"
         stop-color="#fb7d80" />
      <stop
         id="stop14-2"
         stop-color="#fb9fa2"
         offset="1" />
    </linearGradient>
    <linearGradient
       id="a-3"
       y1="17"
       x1="40"
       y2="31"
       gradientUnits="userSpaceOnUse"
       x2="54">
      <stop
         stop-color="#060606"
         id="stop4172" />
      <stop
         offset="1"
         stop-opacity="0"
         id="stop4174" />
    </linearGradient>
    <linearGradient
       id="b-6"
       y1="392.36"
       y2="336.36"
       gradientUnits="userSpaceOnUse"
       x2="0"
       gradientTransform="translate(254,-36)">
      <stop
         stop-color="#ffffff"
         stop-opacity="0"
         id="stop4177" />
      <stop
         offset="1"
         stop-color="#ffffff"
         stop-opacity=".2"
         id="stop4179" />
    </linearGradient>
    <path
       id="c-7"
       d="m312 357.36v-58h30l14 14v44h-14z" />
  </defs>
  <use
     height="100%"
     width="100%"
     y="0"
     x="0"
     style="color:#000000;color-interpolation:sRGB;color-interpolation-filters:linearRGB;fill:#fbc31f;fill-opacity:1;color-rendering:auto;image-rendering:auto;shape-rendering:auto;text-rendering:auto"
     xlink:href="#c-7"
     id="use4186"
     transform="translate(-302,-296.36)" />
  <rect
     id="rect4190"
     height="1"
     width="30"
     y="-3.9999855"
     x="10"
     style="color:#000000;opacity:0.5;color-interpolation:sRGB;color-interpolation-filters:linearRGB;fill:#ffffff;color-rendering:auto;image-rendering:auto;shape-rendering:auto;text-rendering:auto"
     transform="scale(1,-1)" />
  <rect
     id="rect4192"
     height="1"
     width="44"
     y="-60.999985"
     x="10"
     style="color:#000000;opacity:0.25;color-interpolation:sRGB;color-interpolation-filters:linearRGB;color-rendering:auto;image-rendering:auto;shape-rendering:auto;text-rendering:auto"
     transform="scale(1,-1)" />
  <path
     style="opacity:0.6;fill:#000000;fill-opacity:1;fill-rule:evenodd"
     inkscape:connector-curvature="0"
     d="M 54,17 40,3 40,17 Z"
     id="path4196" />
  <path
     inkscape:connector-curvature="0"
     d="M 40,17 54,31 54,17 Z"
     id="path4198"
     style="opacity:0.1;fill:url(#a-3);fill-rule:evenodd" />
  <path
     d="m 30,22 c -1.662,0 -3,1.338 -3,3 l 0,2 5,0 0,1 -7,0 c -2.216,0 -4,1.784 -4,4 l 0,2 c 0,2.216 1.784,4 4,4 l 0,-2 c 0,-1.841 1.238,-3.369 2.926,-3.838 0.147,-0.041 0.297,-0.072 0.449,-0.1 C 28.58,32.03 28.786,32 29,32 l 7.225,0 C 36.702,31.469 37,30.773 37,30 l 0,-5 c 0,-1.662 -1.338,-3 -3,-3 z m -1,2 c 0.554,0 1,0.446 1,1 0,0.554 -0.446,1 -1,1 -0.554,0 -1,-0.446 -1,-1 0,-0.554 0.446,-1 1,-1 m 10,4 0,2 c 0,1.841 -1.238,3.369 -2.926,3.838 -0.147,0.041 -0.297,0.072 -0.449,0.1 C 35.42,33.97 35.214,34 35,34 l -7.225,0 C 27.298,34.531 27,35.227 27,36 l 0,5 c 0,1.662 1.338,3 3,3 l 4,0 c 1.662,0 3,-1.338 3,-3 l 0,-2 -5,0 0,-1 7,0 c 2.216,0 4,-1.784 4,-4 l 0,-2 c 0,-2.216 -1.784,-4 -4,-4 m -4,12 c 0.554,0 1,0.446 1,1 0,0.554 -0.446,1 -1,1 -0.554,0 -1,-0.446 -1,-1 0,-0.554 0.446,-1 1,-1"
     id="path35"
     style="color:#4d4d4d;clip-rule:nonzero;display:inline;overflow:visible;visibility:visible;opacity:0.6;isolation:auto;mix-blend-mode:normal;color-interpolation:sRGB;color-interpolation-filters:linearRGB;solid-color:#000000;solid-opacity:1;fill:#000000;fill-opacity:1;fill-rule:evenodd;stroke-width:1;stroke-linecap:butt;stroke-linejoin:miter;stroke-miterlimit:4;stroke-dasharray:none;stroke-dashoffset:0;stroke-opacity:1;color-rendering:auto;image-rendering:auto;shape-rendering:auto;text-rendering:auto;enable-background:accumulate"
     inkscape:connector-curvature="0"
     sodipodi:nodetypes="sscccssscsccscsssscsssccsccscssssscccsssccsssc" />
  <use
     transform="translate(-302,-296.36)"
     style="fill:url(#b-6)"
     id="use4202"
     xlink:href="#c-7"
     x="0"
     y="0"
     width="100%"
     height="100%" />
</svg>
