<?xml version="1.0" encoding="UTF-8" standalone="no"?>
<!-- Created with Inkscape (http://www.inkscape.org/) -->
<svg xmlns:inkscape="http://www.inkscape.org/namespaces/inkscape" xmlns:rdf="http://www.w3.org/1999/02/22-rdf-syntax-ns#" xmlns="http://www.w3.org/2000/svg" xmlns:sodipodi="http://sodipodi.sourceforge.net/DTD/sodipodi-0.dtd" xmlns:cc="http://creativecommons.org/ns#" xmlns:xlink="http://www.w3.org/1999/xlink" xmlns:dc="http://purl.org/dc/elements/1.1/" xmlns:svg="http://www.w3.org/2000/svg" xmlns:ns1="http://sozi.baierouge.fr" id="svg19655" inkscape:export-ydpi="392.72742" inkscape:export-filename="/home/jimmac/Desktop/poing.png" viewBox="0 0 48 48" sodipodi:version="0.32" inkscape:export-xdpi="392.72742" inkscape:output_extension="org.inkscape.output.svg.inkscape" inkscape:version="0.46" sodipodi:docname="dialog-information.svg" sodipodi:docbase="/home/garrett/Source/tango-icon-theme/scalable/status">
  <defs id="defs3">
    <linearGradient id="linearGradient2399">
      <stop id="stop2401" style="stop-color:#929470" offset="0"/>
      <stop id="stop2407" style="stop-color:#fcffc1" offset=".26471"/>
      <stop id="stop2409" style="stop-color:#f3f5ba" offset=".63235"/>
      <stop id="stop2403" style="stop-color:#929470" offset="1"/>
    </linearGradient>
    <linearGradient id="linearGradient20393">
      <stop id="stop20395" style="stop-color:#ffffff" offset="0"/>
      <stop id="stop2427" style="stop-color:#ffffff;stop-opacity:.44118" offset=".41176"/>
      <stop id="stop20397" style="stop-color:#000000;stop-opacity:.48039" offset="1"/>
    </linearGradient>
    <linearGradient id="linearGradient19894" y2="37.227" gradientUnits="userSpaceOnUse" x2="30.17" y1="37.227" x1="18.995">
      <stop id="stop19896" style="stop-color:#A3A349" offset=".005618"/>
      <stop id="stop19898" style="stop-color:#ACAC54" offset=".020787"/>
      <stop id="stop19900" style="stop-color:#C1C172" offset=".066001"/>
      <stop id="stop19902" style="stop-color:#D4D68E" offset=".1148"/>
      <stop id="stop19904" style="stop-color:#E2E4A6" offset=".1677"/>
      <stop id="stop19906" style="stop-color:#EDF0B8" offset=".2265"/>
      <stop id="stop19908" style="stop-color:#F3F6C3" offset=".2963"/>
      <stop id="stop19910" style="stop-color:#F5F8C7" offset=".4045"/>
      <stop id="stop19912" style="stop-color:#EEF0BE" offset=".5239"/>
      <stop id="stop19914" style="stop-color:#DBDDA9" offset=".6666"/>
      <stop id="stop19916" style="stop-color:#BEBD88" offset=".8211"/>
      <stop id="stop19918" style="stop-color:#989564" offset=".9832"/>
      <stop id="stop19920" style="stop-color:#949160" offset="1"/>
    </linearGradient>
    <radialGradient id="radialGradient20216" cx="14.772" gradientUnits="userSpaceOnUse" cy="74.21" r="7.829" gradientTransform="scale(1.7643 .56680)" inkscape:collect="always">
      <stop id="stop20212" style="stop-color:#000000;stop-opacity:.51546" offset="0"/>
      <stop id="stop20218" style="stop-color:#000000;stop-opacity:.14433" offset=".55172"/>
      <stop id="stop20214" style="stop-color:#000000;stop-opacity:0" offset="1"/>
    </radialGradient>
    <linearGradient id="linearGradient4100" y2="43.165" gradientUnits="userSpaceOnUse" x2="26.478" gradientTransform="matrix(1.6391 0 0 1.6391 -15.97 -29.794)" y1="43.165" x1="23.124" inkscape:collect="always">
      <stop id="stop19415" style="stop-color:#686868" offset=".005618"/>
      <stop id="stop19417" style="stop-color:#777777" offset=".030121"/>
      <stop id="stop19419" style="stop-color:#929292" offset=".083666"/>
      <stop id="stop19421" style="stop-color:#A7A7A7" offset=".1422"/>
      <stop id="stop19423" style="stop-color:#B6B6B6" offset=".2074"/>
      <stop id="stop19425" style="stop-color:#BEBEBE" offset=".2846"/>
      <stop id="stop19427" style="stop-color:#C1C1C1" offset=".4045"/>
      <stop id="stop19429" style="stop-color:#BCBCBC" offset=".4962"/>
      <stop id="stop19431" style="stop-color:#ADADAD" offset=".6057"/>
      <stop id="stop19433" style="stop-color:#959595" offset=".7245"/>
      <stop id="stop19435" style="stop-color:#747474" offset=".8497"/>
      <stop id="stop19437" style="stop-color:#494949" offset=".9789"/>
      <stop id="stop19439" style="stop-color:#414141" offset="1"/>
    </linearGradient>
    <linearGradient id="linearGradient4102" y2="26.74" gradientUnits="userSpaceOnUse" x2="24.613" gradientTransform="scale(1.0027 .99735)" y1="31.146" x1="24.613" inkscape:collect="always">
      <stop id="stop3302" style="stop-color:#4c4c28" offset="0"/>
      <stop id="stop3304" style="stop-color:#4c4c28;stop-opacity:0" offset="1"/>
    </linearGradient>
    <linearGradient id="linearGradient4104" y2="38.676" xlink:href="#linearGradient19894" gradientUnits="userSpaceOnUse" x2="-4.3908" gradientTransform="matrix(.56662 .029890 -.11856 .65654 36.185 20.083)" y1="38.676" x1="-22.874" inkscape:collect="always"/>
    <linearGradient id="linearGradient4106" y2="39.143" xlink:href="#linearGradient2399" gradientUnits="userSpaceOnUse" x2="-23.851" gradientTransform="matrix(.56662 .029890 -.11856 .65654 36.185 20.083)" y1="39.034" x1="-10.481" inkscape:collect="always"/>
    <linearGradient id="linearGradient4108" y2="38.676" xlink:href="#linearGradient19894" gradientUnits="userSpaceOnUse" x2="-4.3908" gradientTransform="scale(1.0264 .97423)" y1="38.676" x1="-22.874" inkscape:collect="always"/>
    <linearGradient id="linearGradient4110" y2="39.143" xlink:href="#linearGradient2399" gradientUnits="userSpaceOnUse" x2="-23.851" gradientTransform="scale(1.0264 .97423)" y1="39.034" x1="-10.481" inkscape:collect="always"/>
    <linearGradient id="linearGradient4116" y2="38.676" xlink:href="#linearGradient19894" gradientUnits="userSpaceOnUse" x2="-4.3908" gradientTransform="matrix(.61868 -.13203 .062627 .74118 31.12 8.3004)" y1="38.676" x1="-22.874" inkscape:collect="always"/>
    <linearGradient id="linearGradient4118" y2="39.143" xlink:href="#linearGradient2399" gradientUnits="userSpaceOnUse" x2="-23.851" gradientTransform="matrix(.61868 -.13203 .062627 .74118 31.12 8.3004)" y1="39.034" x1="-10.481" inkscape:collect="always"/>
    <linearGradient id="linearGradient4120" y2="54.863" gradientUnits="userSpaceOnUse" x2="11.906" gradientTransform="matrix(1.6034 0 0 .54940 .61417 .024498)" y1="55.363" x1="17.88" inkscape:collect="always">
      <stop id="stop3313" style="stop-color:#d6d7a5" offset="0"/>
      <stop id="stop3315" style="stop-color:#8e8f6d" offset="1"/>
    </linearGradient>
    <linearGradient id="linearGradient4122" y2="-29.598" gradientUnits="userSpaceOnUse" x2="-37.641" gradientTransform="matrix(-.90573 -.043862 .18951 -.96344 .61417 .024498)" y1="-29.799" x1="-29.007" inkscape:collect="always">
      <stop id="stop3267" style="stop-color:#929470" offset="0"/>
      <stop id="stop3269" style="stop-color:#60614a" offset=".26471"/>
      <stop id="stop3271" style="stop-color:#f3f5ba" offset=".63235"/>
      <stop id="stop3273" style="stop-color:#929470" offset="1"/>
    </linearGradient>
    <radialGradient id="radialGradient4124" gradientUnits="userSpaceOnUse" cy="29.869" cx="68.138" gradientTransform="matrix(.55129 1.2656e-16 -1.3557e-16 .76603 -10.487 3.5143)" r="33.934" inkscape:collect="always">
      <stop id="stop19512" style="stop-color:#ffffff;stop-opacity:.17526" offset="0"/>
      <stop id="stop19514" style="stop-color:#709ac8" offset="0.882"/>
      <stop id="stop19516" style="stop-color:#6f96dd" offset="1"/>
    </radialGradient>
    <linearGradient id="linearGradient4126" y2="3.8557" gradientUnits="userSpaceOnUse" x2="-5.2517" gradientTransform="matrix(.89413 0 0 .98523 1.516 .024498)" y1="16.652" x1="37.94" inkscape:collect="always">
      <stop id="stop3177" style="stop-color:#f1f3ff" offset="0"/>
      <stop id="stop3179" style="stop-color:#f1f3ff;stop-opacity:0" offset="1"/>
    </linearGradient>
    <linearGradient id="linearGradient4128" y2="18.163" xlink:href="#linearGradient20393" gradientUnits="userSpaceOnUse" x2="32.166" gradientTransform="matrix(-.6293 0 0 1.5891 50.688 3.8044)" y1="10.314" x1="30.62" inkscape:collect="always"/>
    <linearGradient id="linearGradient4130" y2="18.163" xlink:href="#linearGradient20393" gradientUnits="userSpaceOnUse" x2="32.166" gradientTransform="matrix(.6293 0 0 1.5891 1.4116 3.9294)" y1="10.314" x1="30.62" inkscape:collect="always"/>
    <linearGradient id="linearGradient4132" y2="32.251" gradientUnits="userSpaceOnUse" x2="9.3648" gradientTransform="matrix(1.9851 0 0 .50376 1.7866 4.5544)" y1="31.504" x1="14.637" inkscape:collect="always">
      <stop id="stop20430" style="stop-color:#a3a3a3" offset="0"/>
      <stop id="stop20432" style="stop-color:#b5b5b5;stop-opacity:0" offset="1"/>
    </linearGradient>
    <linearGradient id="linearGradient4134" y2="36.726" gradientUnits="userSpaceOnUse" x2="32.097" gradientTransform="matrix(1.1405 0 0 0.926 .27233 -3.2472)" y1="10.061" x1="16.999" inkscape:collect="always">
      <stop id="stop6341" style="stop-color:#ffffff" offset="0"/>
      <stop id="stop6343" style="stop-color:#ffffff;stop-opacity:0" offset="1"/>
    </linearGradient>
  </defs>
  <sodipodi:namedview id="base" bordercolor="#666666" inkscape:window-x="0" inkscape:window-y="30" pagecolor="#ffffff" inkscape:showpageshadow="false" inkscape:grid-bbox="true" inkscape:zoom="1" inkscape:pageshadow="2" showgrid="true" borderopacity="0.55294118" inkscape:current-layer="layer1" inkscape:cx="-132.96706" inkscape:cy="19.729332" inkscape:window-width="1060" inkscape:pageopacity="0.0" inkscape:window-height="818" inkscape:document-units="px">
    <inkscape:grid id="GridFromPre046Settings" opacity=".2" color="#0000ff" originy="0px" originx="0px" empspacing="4" spacingy="1px" spacingx="1px" empopacity="0.4" type="xygrid" empcolor="#0000ff"/>
  </sodipodi:namedview>
  <g id="layer1" inkscape:label="Layer 1" inkscape:groupmode="layer">
    <path id="path20208" sodipodi:rx="13.8125" sodipodi:ry="4.4375" style="opacity:.8;color:#000000;fill:url(#radialGradient20216)" sodipodi:type="arc" d="m39.875 42.062a13.812 4.4375 0 1 1 -27.625 0 13.812 4.4375 0 1 1 27.625 0z" transform="matrix(1.1972 0 0 1.0986 -6.2016 -3.2095)" sodipodi:cy="42.0625" sodipodi:cx="26.0625" inkscape:r_cy="true" inkscape:r_cx="true"/>
    <g id="g4076" inkscape:r_cx="true" inkscape:r_cy="true" transform="translate(0,1)">
      <path id="path19509" style="stroke:#565656;fill:url(#linearGradient4100)" inkscape:r_cy="true" d="m21.894 38.886v1.475c0 1.475 1.311 2.787 2.786 2.787s2.787-1.312 2.787-2.787v-1.475h-5.573z" transform="matrix(1.0758 0 0 .93749 -2.5513 3.0472)" inkscape:r_cx="true"/>
      <g id="g3173" inkscape:r_cy="true" inkscape:r_cx="true" transform="matrix(.98907 0 0 .99356 -.40874 .0079205)">
        <path id="path3209" style="stroke-linejoin:round;color:#000000;stroke:url(#linearGradient4102);stroke-linecap:round;stroke-width:2.0175;fill:#aeae57" inkscape:r_cy="true" d="m24.512 27.669c-3.303-0.008-7.049 0.963-5.019 2.799-0.503 0.203-1.223 0.656-1.138 1.717 0.047 0.554 0.634 0.894 1.437 1.144-0.91 0.639-1.489 1.314-1.437 1.936 0.046 0.548 0.621 0.923 1.408 1.173-0.887 0.631-1.46 1.322-1.408 1.936 0.079 0.938 2.103 1.989 6.484 1.868 3.154-0.086 5.938-0.651 6.158-1.868 0.086-0.478-0.305-0.923-0.91-1.32 0.453-0.456 0.77-0.919 0.734-1.349-0.047-0.55-0.615-0.923-1.408-1.173 0.887-0.632 1.459-1.322 1.408-1.936-0.047-0.55-0.615-0.894-1.408-1.144 0.898-0.635 1.46-1.318 1.408-1.936-0.058-0.687-3.205-1.84-6.309-1.847z" sodipodi:nodetypes="cccccccscccccccs" inkscape:r_cx="true"/>
        <path id="path3183" style="stroke-linejoin:round;color:#000000;stroke:url(#linearGradient4106);stroke-linecap:round;stroke-width:.089063;fill:url(#linearGradient4104)" inkscape:r_cy="true" d="m30.92 38.33c-0.219 1.216-3.329 1.903-8.305 1.654-3.151-0.158-3.332-1.04-3.112-2.257 0.22-1.216 2.955-2.069 6.107-1.902 3.151 0.166 5.53 1.288 5.31 2.505z" sodipodi:nodetypes="csccc" inkscape:r_cx="true"/>
        <path id="path1603" sodipodi:rx="10.341436" sodipodi:ry="3.2703688" style="stroke-linejoin:round;color:#000000;stroke:url(#linearGradient4110);stroke-linecap:round;stroke-width:.13035;fill:url(#linearGradient4108)" sodipodi:type="arc" inkscape:r_cx="true" transform="matrix(.60274 -.12862 .064284 .76079 31.12 14.491)" sodipodi:cy="27.228739" sodipodi:cx="-13.87697" inkscape:r_cy="true" d="m-3.5355 27.229a10.341 3.2704 0 1 1 -20.682 0 10.341 3.2704 0 1 1 20.682 0z"/>
        <path id="path2364" sodipodi:rx="10.341436" sodipodi:ry="3.2703688" style="stroke-linejoin:round;color:#000000;stroke:url(#linearGradient4110);stroke-linecap:round;stroke-width:.13035;fill:url(#linearGradient4108)" inkscape:r_cy="true" d="m-3.5355 27.229a10.341 3.2704 0 1 1 -20.682 0 10.341 3.2704 0 1 1 20.682 0z" transform="matrix(.60274 -.12862 .064284 .76079 31.12 11.396)" sodipodi:cy="27.228739" sodipodi:cx="-13.87697" sodipodi:type="arc" inkscape:r_cx="true"/>
        <path id="path2366" style="stroke-linejoin:round;color:#000000;stroke:url(#linearGradient4118);stroke-linecap:round;stroke-width:.089063;fill:url(#linearGradient4116)" inkscape:r_cy="true" d="m30.698 29.636c0 1.379-2.541 2.918-5.981 3.653-3.441 0.734-6.328 0.215-6.444-1.158-0.116-1.374 2.237-2.976 5.679-3.162 3.47-0.188 6.746-0.044 6.746 0.667z" sodipodi:nodetypes="cccss" inkscape:r_cx="true"/>
        <path id="path20372" sodipodi:rx="3.25" sodipodi:ry="3.25" style="color:#000000;fill:#ffffff" inkscape:r_cy="true" d="m31 22.375a3.25 3.25 0 1 1 -6.5 0 3.25 3.25 0 1 1 6.5 0z" transform="matrix(.33546 0 0 .33546 11.747 27.226)" sodipodi:cy="22.375" sodipodi:cx="27.75" sodipodi:type="arc" inkscape:r_cx="true"/>
        <path id="path3241" style="fill-rule:evenodd;fill:#000000;fill-opacity:.23392" inkscape:r_cy="true" d="m19.342 33.379c3.395 0.505 6.979-0.033 9.872-1.908 0.812-0.526 0.934-1.127 1.307-1.597-1.424 1.127-5.026 4.162-11.179 3.505z" sodipodi:nodetypes="cscc" inkscape:r_cx="true"/>
        <path id="path2435" sodipodi:rx="3.25" sodipodi:ry="3.25" style="color:#000000;fill:#ffffff" sodipodi:type="arc" inkscape:r_cx="true" transform="matrix(.33546 0 0 .33546 11.747 30.234)" sodipodi:cy="22.375" sodipodi:cx="27.75" inkscape:r_cy="true" d="m31 22.375a3.25 3.25 0 1 1 -6.5 0 3.25 3.25 0 1 1 6.5 0z"/>
        <path id="path3237" style="fill-rule:evenodd;fill:#000000;fill-opacity:.23392" inkscape:r_cy="true" d="m19.467 39.518c3.394 0.505 6.978-0.033 9.872-1.908 0.811-0.526 0.933-1.127 1.306-1.597-1.424 1.127-5.026 4.162-11.178 3.505z" sodipodi:nodetypes="cscc" inkscape:r_cx="true"/>
        <path id="path3239" style="fill-rule:evenodd;fill:#000000;fill-opacity:.23392" inkscape:r_cy="true" inkscape:r_cx="true" sodipodi:nodetypes="cscc" d="m19.487 36.407c3.395 0.505 6.979-0.033 9.872-1.908 0.812-0.526 0.934-1.127 1.307-1.597-1.424 1.127-5.026 4.162-11.179 3.505z"/>
      </g>
      <g id="g3146" inkscape:r_cy="true" inkscape:r_cx="true" transform="translate(-.98880)">
        <g id="g3141" inkscape:r_cy="true" inkscape:r_cx="true">
          <path id="path3243" style="stroke-linejoin:round;color:#000000;stroke:url(#linearGradient4122);stroke-linecap:round;stroke-width:.090833;fill:url(#linearGradient4120)" inkscape:r_cy="true" inkscape:r_cx="true" sodipodi:nodetypes="csscs" transform="matrix(.95444 0 0 .98987 1.4332 .63988)" d="m18.871 29.628c0-0.791 1.574-1.738 5.548-1.685 3.682 0.049 6.108 0.896 6.108 2.162 0 1.24-3.22 2.069-6.652 1.903-3.433-0.166-5.004-1.14-5.004-2.38z"/>
          <path id="path6305" style="stroke-linejoin:round;color:#000000;stroke:#616471;stroke-linecap:round;stroke-width:1.016;fill:url(#radialGradient4124)" inkscape:r_cy="true" inkscape:r_cx="true" sodipodi:nodetypes="csssssc" transform="matrix(.95444 0 0 .98987 1.4332 .63988)" d="m24.68 0.86229c-7.822 0-14.174 5.975-14.174 13.333 0 7.543 5.742 8.378 5.742 11.158 0 3.266 3.366 6.97 8.901 6.836 5.886-0.142 8.315-3.363 8.315-6.836 0-2.969 5.39-3.048 5.39-11.158 0-7.3577-6.352-13.333-14.174-13.333z"/>
          <path id="path2429" style="stroke-linejoin:round;color:#000000;stroke:url(#linearGradient4126);stroke-linecap:round;stroke-width:.94686;fill:none" inkscape:r_cy="true" inkscape:r_cx="true" sodipodi:nodetypes="csssssc" transform="matrix(.95444 0 0 .98987 1.4332 .63988)" d="m24.68 1.9277c-7.29 0-13.21 5.5686-13.21 12.426 0 7.029 5.351 7.808 5.351 10.399 0 3.044 3.138 6.495 8.296 6.371 5.486-0.133 7.75-3.135 7.75-6.371 0-2.767 5.023-2.841 5.023-10.399 0-6.8577-5.92-12.426-13.21-12.426z"/>
        </g>
        <g id="g1695" inkscape:r_cx="true" inkscape:r_cy="true" transform="matrix(.9375 0 0 .92694 .56922 .25176)">
          <path id="path1691" style="fill:url(#linearGradient4128)" inkscape:r_cx="true" inkscape:r_cy="true" d="m31.947 19.223c0.313 0.104 0.522 0.417 0.417 0.729l-3.857 11.572c-0.104 0.313-0.417 0.521-0.73 0.417-0.312-0.104-0.521-0.417-0.417-0.73l3.858-11.571c0.104-0.313 0.417-0.522 0.729-0.417z"/>
          <path id="path19612" style="fill:url(#linearGradient4130)" inkscape:r_cx="true" inkscape:r_cy="true" d="m20.152 19.348c-0.312 0.104-0.521 0.417-0.417 0.729l3.858 11.572c0.104 0.313 0.417 0.521 0.729 0.417 0.313-0.104 0.522-0.417 0.417-0.73l-3.857-11.571c-0.104-0.313-0.417-0.522-0.73-0.417z"/>
          <path id="path19614" style="stroke-linejoin:round;stroke:url(#linearGradient4132);stroke-linecap:round;stroke-width:.21455;fill:#ffffff" inkscape:r_cx="true" inkscape:r_cy="true" d="m20.255 19.273c-0.246 0.042-0.438 0.235-0.48 0.481-0.043 0.246 0.075 0.491 0.293 0.613 0 0 1.842 1.081 4.25 1.625s5.489 0.579 7.812-1.688c0.176-0.139 0.257-0.365 0.21-0.584s-0.214-0.392-0.43-0.447c-0.217-0.055-0.447 0.018-0.592 0.188-1.951 1.903-4.545 1.904-6.75 1.406s-3.906-1.5-3.906-1.5c-0.12-0.08-0.264-0.113-0.407-0.094z"/>
        </g>
        <path id="path6334" style="opacity:.59777;color:#000000;fill:url(#linearGradient4134)" inkscape:r_cy="true" inkscape:r_cx="true" transform="matrix(.95444 0 0 .98987 1.4332 .63988)" d="m25.001 3.5644c-6.263 0-11.346 4.0256-11.346 8.9836 0 1.98 0.978 3.714 2.351 5.199 1.553 0.632 3.244 1.086 5.109 1.086 6.263 0 11.346-4.026 11.346-8.9835 0-1.992-0.994-3.742-2.382-5.2321-1.546-0.6243-3.225-1.053-5.078-1.053z"/>
      </g>
    </g>
  </g>
  <metadata>
    <rdf:RDF>
      <cc:Work>
        <dc:format>image/svg+xml</dc:format>
        <dc:type rdf:resource="http://purl.org/dc/dcmitype/StillImage"/>
        <cc:license rdf:resource="http://creativecommons.org/licenses/publicdomain/"/>
        <dc:publisher>
          <cc:Agent rdf:about="http://openclipart.org/">
            <dc:title>Openclipart</dc:title>
          </cc:Agent>
        </dc:publisher>
        <dc:title>tango dialog information</dc:title>
        <dc:date>2010-04-03T15:22:52</dc:date>
        <dc:description>An icon from Tango Project. Since version 0.8.90 Tango Project icons are Public Domain.</dc:description>
        <dc:source>https://openclipart.org/detail/36637/tango-dialog-information-by-warszawianka</dc:source>
        <dc:creator>
          <cc:Agent>
            <dc:title>warszawianka</dc:title>
          </cc:Agent>
        </dc:creator>
        <dc:subject>
          <rdf:Bag>
            <rdf:li>electricity</rdf:li>
            <rdf:li>externalsource</rdf:li>
            <rdf:li>icon</rdf:li>
            <rdf:li>idea</rdf:li>
            <rdf:li>info</rdf:li>
            <rdf:li>information</rdf:li>
            <rdf:li>lightbulb</rdf:li>
            <rdf:li>tango</rdf:li>
          </rdf:Bag>
        </dc:subject>
      </cc:Work>
      <cc:License rdf:about="http://creativecommons.org/licenses/publicdomain/">
        <cc:permits rdf:resource="http://creativecommons.org/ns#Reproduction"/>
        <cc:permits rdf:resource="http://creativecommons.org/ns#Distribution"/>
        <cc:permits rdf:resource="http://creativecommons.org/ns#DerivativeWorks"/>
      </cc:License>
    </rdf:RDF>
  </metadata>
</svg>