<?xml version="1.0" encoding="UTF-8" standalone="no"?>
<svg xmlns="http://www.w3.org/2000/svg" xmlns:xlink="http://www.w3.org/1999/xlink" width="48" height="48">
 <defs>
  <linearGradient xlink:href="#1" id="0" y1="502.798" x2="0" y2="582.79797" gradientUnits="userSpaceOnUse" gradientTransform="matrix(0.9333343,0,0,0.9333343,25.904354,32.25266)"/>
  <linearGradient id="1">
   <stop stop-color="#f0ff01"/>
   <stop offset="1" stop-color="#ff9701"/>
  </linearGradient>
  <linearGradient xlink:href="#3" id="2" y1="507.798" x2="0" y2="547.79797" gradientUnits="userSpaceOnUse" gradientTransform="matrix(0.86274226,0,0,0.86274226,54.74625,69.22864)"/>
  <linearGradient id="3">
   <stop stop-color="#faffa5"/>
   <stop offset="1" stop-color="#edf573"/>
  </linearGradient>
  <linearGradient xlink:href="#5" id="4" y1="511.798" x2="0" y2="535.79797" gradientUnits="userSpaceOnUse" gradientTransform="translate(-1,-4)"/>
  <linearGradient id="5">
   <stop stop-color="#6f8181"/>
   <stop offset="1" stop-color="#334545"/>
  </linearGradient>
  <linearGradient xlink:href="#1" id="6" y1="529.79797" x2="0" y2="528.79797" gradientUnits="userSpaceOnUse"/>
  <linearGradient xlink:href="#1" id="7" y1="530.79797" x2="0" y2="529.79797" gradientUnits="userSpaceOnUse"/>
 </defs>
 <metadata/>
 <g transform="translate(-384.57143,-499.798)">
  <path d="m 411.07143,507.798 c -4.69442,-10e-6 -8.50001,3.80558 -8.5,8.5 -1e-5,4.69442 1.54505,8.5 1.54505,8.5 l 18.95495,0 c 3.047,0 5.5,-2.453 5.5,-5.5 0,-2.87832 -2.18919,-5.22539 -5,-5.47656 l 0,-0.52344 c 0,-2.5 -3,-5.5 -5.5,-5.5 0,0 -4.99511,-3.1e-4 -7,0 z" fill="#334545" transform="translate(0,-4)"/>
  <g transform="matrix(0.75000047,0,0,0.75000047,97.14267,126.94927)">
   <rect y="502.46466" x="388.57141" height="37.33337" width="37.33335" fill="url(#0)" rx="18.666674"/>
   <rect y="506.46466" x="392.57141" height="29.333317" width="29.3333" fill="url(#2)" rx="14.66665"/>
  </g>
  <g fill="#3b85b5">
   <path d="m 421.15722,540.38379 a 2,2 0 0 0 0,2.82842 2,2 0 0 0 2.82842,0 2,2 0 0 0 0,-2.82842 l -1.41421,-1.41422 -1.41421,1.41422 z"/>
   <path d="m 415.15722,540.38379 a 2,2 0 0 0 0,2.82842 2,2 0 0 0 2.82842,0 2,2 0 0 0 0,-2.82842 l -1.41421,-1.41422 -1.41421,1.41422 z"/>
   <path d="m 401.15722,540.38379 a 2,2 0 0 0 0,2.82842 2,2 0 0 0 2.82842,0 2,2 0 0 0 0,-2.82842 l -1.41421,-1.41422 -1.41421,1.41422 z"/>
   <path d="m 395.15722,540.38379 a 2,2 0 0 0 0,2.82842 2,2 0 0 0 2.82842,0 2,2 0 0 0 0,-2.82842 l -1.41421,-1.41422 -1.41421,1.41422 z"/>
   <path d="m 423.15722,534.38379 a 2,2 0 0 0 0,2.82842 2,2 0 0 0 2.82842,0 2,2 0 0 0 0,-2.82842 l -1.41421,-1.41422 -1.41421,1.41422 z"/>
   <path d="m 417.15722,534.38379 a 2,2 0 0 0 0,2.82842 2,2 0 0 0 2.82842,0 2,2 0 0 0 0,-2.82842 l -1.41421,-1.41422 -1.41421,1.41422 z"/>
   <path d="m 405.15722,534.38379 a 2,2 0 0 0 0,2.82842 2,2 0 0 0 2.82842,0 2,2 0 0 0 0,-2.82842 l -1.41421,-1.41422 -1.41421,1.41422 z"/>
   <path d="m 399.15722,534.38379 a 2,2 0 0 0 0,2.82842 2,2 0 0 0 2.82842,0 2,2 0 0 0 0,-2.82842 l -1.41421,-1.41422 -1.41421,1.41422 z"/>
  </g>
  <g color="#4d4d4d">
   <path d="m 412.55537,507.77391 a 10.010037,10.010037 0 0 1 9.84972,8.23092 8.0080333,8.0080333 0 0 1 6.16634,7.78514 8.0080333,8.0080333 0 0 1 -8.00803,8.00803 l -18.01807,0 a 6.0060179,6.0060179 0 0 1 -6.00602,-6.00602 6.0060179,6.0060179 0 0 1 6.00602,-6.00603 6.0060179,6.0060179 0 0 1 0.21506,0.0121 10.010037,10.010037 0 0 1 -0.21506,-2.01373 10.010037,10.010037 0 0 1 10.01004,-10.01004 z" fill="url(#4)"/>
   <path d="m 402.57139,517.26089 a 10.010037,10.010037 0 0 0 -0.0254,0.52344 10.010037,10.010037 0 0 0 0.0547,1.00586 6.0060179,6.0060179 0 0 1 0.16015,0.008 10.010037,10.010037 0 0 1 -0.18945,-1.53711 z m 25.97656,6.02148 a 8.0080333,8.0080333 0 0 1 -7.98437,7.51563 l -18.01758,0 a 6.0060179,6.0060179 0 0 1 -5.98242,-5.49609 6.0060179,6.0060179 0 0 0 -0.0234,0.49023 6.0060179,6.0060179 0 0 0 6.00586,6.00586 l 18.01758,0 a 8.0080333,8.0080333 0 0 0 8.00781,-8.00781 8.0080333,8.0080333 0 0 0 -0.0234,-0.50782 z" opacity="0.4" fill="#172525"/>
  </g>
  <g fill="#f0ff01">
   <path d="m 25.734375,29.367188 0.316406,0.947265 0.908203,2.724609 -1.517042,2.970474 1.058058,3.574448 -2.338351,3.576937 1.785617,2.522673 -0.845704,-2.53711 L 28,39.414062 27,36.123047 28.443359,33.884766 29,35 l 0,2 1,-2 -2.052734,-5.316406 z" transform="translate(384.57143,499.798)" shape-rendering="auto" mix-blend-mode="normal" color-interpolation-filters="linearRGB" isolation="auto" white-space="normal" solid-opacity="1" image-rendering="auto" solid-color="#000000" color="#000000" color-rendering="auto" color-interpolation="sRGB"/>
   <path d="m 404.57143,529.798 -2,2 1,2 -1,2 1,3 0,-3 1.5,-2 -0.5,-2 2,-2 z"/>
   <path d="m 417.57143,530.798 -1,1 1,1 0,-1 1,-1 z"/>
  </g>
  <rect width="6.999989" height="2.00003" x="408.57144" y="528.79797" ry="1.00001" rx="0" fill="url(#6)"/>
  <g fill="url(#7)">
   <rect width="2.999988" height="1.00003" x="416.57144" y="529.79797" ry="0.500013" rx="0"/>
   <rect width="4.999989" height="1.00003" x="402.57144" y="529.79797" rx="0.500013"/>
  </g>
 </g>
</svg>
