<svg xmlns="http://www.w3.org/2000/svg" viewBox="0 0 16 16">
  <defs id="defs3051">
    <style type="text/css" id="current-color-scheme">
      .ColorScheme-Text {
        color:#4d4d4d;
      }
      .ColorScheme-NegativeText {
        color:#da4453;
      }
      </style>
  </defs>
 <path style="fill:currentColor;fill-opacity:1;stroke:none" 
     d="M 5 2 C 3.892 2 3 2.892 3 4 L 3 8 C 3 9.108 3.892 10 5 10 C 6.108 10 7 9.108 7 8 L 7 4 C 7 2.892 6.108 2 5 2 z M 1 7 L 1 8 C 1 9.847 2.286 11.405469 4 11.855469 L 4 13 L 3 13 L 3 14 L 7 14 L 7 13 L 6 13 L 6 11.855469 C 7.714 11.404469 9 9.845 9 8 L 9 7 L 8 7 L 8 8 C 8 9.645 6.645 11 5 11 C 3.355 11 2 9.645 2 8 L 2 7 L 1 7 z "
     class="ColorScheme-Text"
     />
  <path
     style="fill:currentColor;fill-opacity:1;stroke:none" 
     class="ColorScheme-NegativeText"
     d="M 9,9.83 10.667,11.497 9,13.164 9.833,13.997 11.5,12.33 13.167,13.997 14,13.164 12.333,11.497 14,9.83 13.167,8.997 11.5,10.664 9.833,8.997 Z" />
</svg>
