/* XPM */
static char * vokoscreen_xpm[] = {
"32 32 661 2",
"  	c None",
". 	c #CBCBCB",
"+ 	c #C9C9CA",
"@ 	c #CACACB",
"# 	c #A9A9BB",
"$ 	c #6D6F9E",
"% 	c #8387AA",
"& 	c #9196B1",
"* 	c #A1A5B8",
"= 	c #AFB2BD",
"- 	c #BCBEC3",
"; 	c #C2C4C7",
"> 	c #C4C6C9",
", 	c #C5C7CA",
"' 	c #C5C7C9",
") 	c #9999B3",
"! 	c #6367A4",
"~ 	c #7E86B8",
"{ 	c #757FB6",
"] 	c #6C7DB3",
"^ 	c #6479B2",
"/ 	c #5D76B1",
"( 	c #5D79B1",
"_ 	c #617FB2",
": 	c #6786B3",
"< 	c #6F8CB6",
"[ 	c #7793B7",
"} 	c #809AB9",
"| 	c #8DA3BD",
"1 	c #98AABF",
"2 	c #A1AFBF",
"3 	c #ADB7C1",
"4 	c #B8BEC4",
"5 	c #BBC0C7",
"6 	c #BDC1C7",
"7 	c #BEC2C8",
"8 	c #C0C2C8",
"9 	c #C1C3C7",
"0 	c #989AB2",
"a 	c #6E75AB",
"b 	c #9098C3",
"c 	c #909BC6",
"d 	c #919FC7",
"e 	c #91A2CA",
"f 	c #92A6CC",
"g 	c #92A8CE",
"h 	c #92ABD1",
"i 	c #92AED4",
"j 	c #92B0D6",
"k 	c #90B0D6",
"l 	c #8EAFD5",
"m 	c #89ACD4",
"n 	c #6292C6",
"o 	c #2C6DB2",
"p 	c #2668AF",
"q 	c #2967AD",
"r 	c #356BAB",
"s 	c #4271AB",
"t 	c #5178AC",
"u 	c #5E7FAD",
"v 	c #6C85AF",
"w 	c #798DB0",
"x 	c #8795B3",
"y 	c #9DA5B9",
"z 	c #C2C3C4",
"A 	c #9A9DB3",
"B 	c #6F78AB",
"C 	c #8792BF",
"D 	c #8F9CC5",
"E 	c #8E9FC8",
"F 	c #8EA3CA",
"G 	c #8FA5CD",
"H 	c #92ABCF",
"I 	c #8CA6C6",
"J 	c #7E98B8",
"K 	c #7F9CBC",
"L 	c #89AACE",
"M 	c #8FB4D8",
"N 	c #93B7D8",
"O 	c #699BCA",
"P 	c #3377B7",
"Q 	c #2E73B5",
"R 	c #2E71B4",
"S 	c #2D6EB1",
"T 	c #2C6AAF",
"U 	c #2B66AC",
"V 	c #2A60A8",
"W 	c #295AA5",
"X 	c #2854A0",
"Y 	c #254D9A",
"Z 	c #355498",
"` 	c #99A0B1",
" .	c #A6A9BA",
"..	c #747EAD",
"+.	c #7A88BA",
"@.	c #8B9BC5",
"#.	c #8FA2C9",
"$.	c #8EA5CC",
"%.	c #8DA5C7",
"&.	c #7B8CA5",
"*.	c #717A89",
"=.	c #70767F",
"-.	c #6C7780",
";.	c #8298AC",
">.	c #92B4D3",
",.	c #93BADC",
"'.	c #619BCB",
").	c #307CBB",
"!.	c #2E7AB9",
"~.	c #2F77B8",
"{.	c #2F75B6",
"].	c #2F72B3",
"^.	c #2F6DB0",
"/.	c #2F68AD",
"(.	c #2E63A9",
"_.	c #2F5EA5",
":.	c #28539E",
"<.	c #264A94",
"[.	c #8490AC",
"}.	c #B5B7BF",
"|.	c #7883B0",
"1.	c #7284B8",
"2.	c #8196C2",
"3.	c #8BA1CA",
"4.	c #91A8CC",
"5.	c #7A889C",
"6.	c #4D505E",
"7.	c #85858E",
"8.	c #BABCC0",
"9.	c #6C6D75",
"0.	c #5E6067",
"a.	c #94A1AD",
"b.	c #9DBCD6",
"c.	c #5A9CCE",
"d.	c #2E82C0",
"e.	c #2E7FBE",
"f.	c #2F7ABA",
"g.	c #2F77B7",
"h.	c #2E72B4",
"i.	c #3068AD",
"j.	c #2A5FA6",
"k.	c #184B9A",
"l.	c #194492",
"m.	c #7183A8",
"n.	c #7C88B1",
"o.	c #6D82B7",
"p.	c #8096C3",
"q.	c #829BC7",
"r.	c #9EB0CA",
"s.	c #5D6378",
"t.	c #81828D",
"u.	c #8A8C93",
"v.	c #BFC2C6",
"w.	c #181A2D",
"x.	c #393A49",
"y.	c #A0A6AC",
"z.	c #7F8C99",
"A.	c #4D82A8",
"B.	c #2C86C0",
"C.	c #3177B3",
"D.	c #307AB7",
"E.	c #2E81C0",
"F.	c #2E7BBB",
"G.	c #3072B4",
"H.	c #1A57A3",
"I.	c #11499A",
"J.	c #124294",
"K.	c #687EA7",
"L.	c #7E8CB0",
"M.	c #6D83B8",
"N.	c #8098C4",
"O.	c #7F9BC7",
"P.	c #96A1B3",
"Q.	c #737897",
"R.	c #6F6F76",
"S.	c #151728",
"T.	c #CED1D6",
"U.	c #7E828F",
"V.	c #A1A7B1",
"W.	c #89909A",
"X.	c #373B48",
"Y.	c #4D6178",
"Z.	c #2E5E8E",
"`.	c #283B67",
" +	c #3072AB",
".+	c #2F87C5",
"++	c #3081BF",
"@+	c #2D7ABA",
"#+	c #236EB3",
"$+	c #1760A9",
"%+	c #1255A2",
"&+	c #124E9D",
"*+	c #174A9A",
"=+	c #6C83AD",
"-+	c #7F8CAF",
";+	c #7188B9",
">+	c #8099C5",
",+	c #809CC7",
"'+	c #757E90",
")+	c #A7ABBF",
"!+	c #7F8289",
"~+	c #606371",
"{+	c #C5C9CF",
"]+	c #9DA6AE",
"^+	c #BBC4CB",
"/+	c #4B505F",
"(+	c #29293A",
"_+	c #607287",
":+	c #3B78A7",
"<+	c #27608C",
"[+	c #2F88C1",
"}+	c #2A89C5",
"|+	c #237EBE",
"1+	c #1B74B7",
"2+	c #1468B0",
"3+	c #125FAA",
"4+	c #1258A5",
"5+	c #1452A0",
"6+	c #2F5EA6",
"7+	c #6882AE",
"8+	c #A2A9B7",
"9+	c #8693B1",
"0+	c #7189B9",
"a+	c #7F99C6",
"b+	c #809EC8",
"c+	c #626B79",
"d+	c #B3B7C0",
"e+	c #989CA3",
"f+	c #B8BDC4",
"g+	c #ABB3BC",
"h+	c #393A3E",
"i+	c #B8BBBE",
"j+	c #919EAC",
"k+	c #7F8A99",
"l+	c #6E8FA6",
"m+	c #2F95C9",
"n+	c #1E90CB",
"o+	c #1B8BCA",
"p+	c #1884C4",
"q+	c #147BBE",
"r+	c #1172B9",
"s+	c #126AB3",
"t+	c #1263AD",
"u+	c #125BA7",
"v+	c #1957A3",
"w+	c #4974B3",
"x+	c #5978AB",
"y+	c #9CA6B7",
"z+	c #98A2B7",
"A+	c #6B84B6",
"B+	c #7D98C6",
"C+	c #7F9FC9",
"D+	c #667687",
"E+	c #83868C",
"F+	c #242634",
"G+	c #6A6D7B",
"H+	c #ADB6BF",
"I+	c #A1A3A5",
"J+	c #B8BDC3",
"K+	c #4D5465",
"L+	c #606777",
"M+	c #5B8198",
"N+	c #1C88BA",
"O+	c #1392CF",
"P+	c #128BCB",
"Q+	c #0C84C8",
"R+	c #0C7BC1",
"S+	c #1272B6",
"T+	c #0E6BB5",
"U+	c #0D63B0",
"V+	c #115CA9",
"W+	c #2F69AD",
"X+	c #507AB6",
"Y+	c #4C6FA9",
"Z+	c #96A2B7",
"`+	c #AEB3BE",
" @	c #667FB2",
".@	c #7B98C5",
"+@	c #7F9FCA",
"@@	c #7996B6",
"#@	c #6B7178",
"$@	c #2C2C38",
"%@	c #9095A0",
"&@	c #979FA9",
"*@	c #858D99",
"=@	c #141529",
"-@	c #545767",
";@	c #4B7F9A",
">@	c #118FC4",
",@	c #1297D4",
"'@	c #108DCD",
")@	c #5390B4",
"!@	c #708594",
"~@	c #67747F",
"{@	c #657583",
"]@	c #4F769C",
"^@	c #4B7DB9",
"/@	c #4E7AB6",
"(@	c #4269AA",
"_@	c #919EB6",
":@	c #C9C8C6",
"<@	c #617CAF",
"[@	c #7996C4",
"}@	c #7FA0CB",
"|@	c #7FA3CC",
"1@	c #7A94AF",
"2@	c #8E959D",
"3@	c #99A3AC",
"4@	c #343749",
"5@	c #33364A",
"6@	c #8D9EAD",
"7@	c #515563",
"8@	c #7D909E",
"9@	c #1E80A9",
"0@	c #119DD7",
"a@	c #1095D2",
"b@	c #6D8E9F",
"c@	c #626568",
"d@	c #58575A",
"e@	c #565558",
"f@	c #575758",
"g@	c #545658",
"h@	c #616E7D",
"i@	c #4E7EB6",
"j@	c #4E7BB6",
"k@	c #436CAE",
"l@	c #8695B2",
"m@	c #D5D1C9",
"n@	c #617BAC",
"o@	c #7895C4",
"p@	c #80A0CB",
"q@	c #7FA4CE",
"r@	c #80A8CF",
"s@	c #8CA8C1",
"t@	c #646E7B",
"u@	c #333745",
"v@	c #4A4B57",
"w@	c #8F9DAB",
"x@	c #6E8294",
"y@	c #4583A1",
"z@	c #1495CD",
"A@	c #0C9CDB",
"B@	c #578EA8",
"C@	c #585859",
"D@	c #424347",
"E@	c #313339",
"F@	c #383940",
"G@	c #36383E",
"H@	c #444449",
"I@	c #4F4F4F",
"J@	c #5A697E",
"K@	c #4D7BBA",
"L@	c #4970B0",
"M@	c #7186AC",
"N@	c #667EAB",
"O@	c #7A96C3",
"P@	c #7FA3CD",
"Q@	c #80A8D0",
"R@	c #80ACD3",
"S@	c #7EA6C7",
"T@	c #7A9BB4",
"U@	c #7D9DB4",
"V@	c #78A4C0",
"W@	c #75ACC9",
"X@	c #50A5D0",
"Y@	c #0F94D3",
"Z@	c #1990C8",
"`@	c #5B6268",
" #	c #505154",
".#	c #35363E",
"+#	c #464850",
"@#	c #50525C",
"##	c #505460",
"$#	c #445770",
"%#	c #5B5F67",
"&#	c #44474C",
"*#	c #4E71A3",
"=#	c #4C72B2",
"-#	c #5F76A6",
";#	c #ADB3BE",
">#	c #7286AE",
",#	c #7590C0",
"'#	c #809ECA",
")#	c #80A2CC",
"!#	c #80A7CF",
"~#	c #7FABD2",
"{#	c #80AFD6",
"]#	c #80B3D9",
"^#	c #80B8DC",
"/#	c #80BADE",
"(#	c #80BEE0",
"_#	c #50AAD8",
":#	c #0A8BCE",
"<#	c #3486B1",
"[#	c #555A5C",
"}#	c #383B41",
"|#	c #4C5362",
"1#	c #5E606B",
"2#	c #5F6064",
"3#	c #617187",
"4#	c #525867",
"5#	c #5D7A98",
"6#	c #5B5A5C",
"7#	c #4C6388",
"8#	c #4D73B3",
"9#	c #4D68A1",
"0#	c #ADB2BF",
"a#	c #8A99B5",
"b#	c #6784B8",
"c#	c #80A1CB",
"d#	c #80A5CE",
"e#	c #80A9D1",
"f#	c #80ADD4",
"g#	c #80B2D7",
"h#	c #80B4D9",
"i#	c #80B8DD",
"j#	c #7EB9DD",
"k#	c #48A0D2",
"l#	c #0B84C9",
"m#	c #357AA2",
"n#	c #545758",
"o#	c #41576F",
"p#	c #525C6E",
"q#	c #5F6D7F",
"r#	c #514F4D",
"s#	c #717782",
"t#	c #777F90",
"u#	c #7F8B9C",
"v#	c #606165",
"w#	c #485C7C",
"x#	c #4E72B3",
"y#	c #3F5C9F",
"z#	c #A8AEBB",
"A#	c #A5ACBC",
"B#	c #5876AF",
"C#	c #80A0CA",
"D#	c #80A3CD",
"E#	c #80A7D0",
"F#	c #80ABD3",
"G#	c #80AED5",
"H#	c #7BB5DA",
"I#	c #4096CC",
"J#	c #0C7DC3",
"K#	c #2672A3",
"L#	c #505354",
"M#	c #627991",
"N#	c #646A78",
"O#	c #7E889A",
"P#	c #72757F",
"Q#	c #9CA1B4",
"R#	c #A0A7BC",
"S#	c #8E92A2",
"T#	c #545559",
"U#	c #496087",
"V#	c #4F70B0",
"W#	c #3D5BA3",
"X#	c #99A0B3",
"Y#	c #C2C3C6",
"Z#	c #4B69A7",
"`#	c #8099C6",
" $	c #80AFD5",
".$	c #80B1D7",
"+$	c #78AFD6",
"@$	c #398BC5",
"#$	c #0F75BC",
"$$	c #1575B7",
"%$	c #354048",
"&$	c #727174",
"*$	c #7B8598",
"=$	c #9398AB",
"-$	c #B9BED6",
";$	c #BFC4DD",
">$	c #B3B8CE",
",$	c #9597A3",
"'$	c #373A41",
")$	c #4C6AA1",
"!$	c #4E6CAC",
"~$	c #4861A5",
"{$	c #7C87A8",
"]$	c #D5D2CB",
"^$	c #4662A2",
"/$	c #7F9CC7",
"($	c #809FCA",
"_$	c #80A6CE",
":$	c #80A8D1",
"<$	c #75A9D3",
"[$	c #3080BE",
"}$	c #106DB5",
"|$	c #1072BB",
"1$	c #295B84",
"2$	c #47484A",
"3$	c #797A81",
"4$	c #9499A9",
"5$	c #B5BBD0",
"6$	c #B8BDD3",
"7$	c #A1A5B4",
"8$	c #48484A",
"9$	c #3C4D6C",
"0$	c #4F72B4",
"a$	c #4E69A9",
"b$	c #4B61A5",
"c$	c #65709E",
"d$	c #D0CDC6",
"e$	c #4E66A0",
"f$	c #7F96C2",
"g$	c #80ABD2",
"h$	c #72A3CF",
"i$	c #2874B7",
"j$	c #1066AF",
"k$	c #1368B0",
"l$	c #1167B2",
"m$	c #2B4D6E",
"n$	c #3E454D",
"o$	c #6C6C71",
"p$	c #84858D",
"q$	c #75757A",
"r$	c #3C3B3D",
"s$	c #253045",
"t$	c #21488F",
"u$	c #3D5DA2",
"v$	c #4B63A5",
"w$	c #4E61A4",
"x$	c #4F5B95",
"y$	c #CCCAC3",
"z$	c #6173A3",
"A$	c #768BBC",
"B$	c #8097C3",
"C$	c #809DC8",
"D$	c #80A4CE",
"E$	c #6F9DCB",
"F$	c #2068AF",
"G$	c #115FAA",
"H$	c #1360AA",
"I$	c #115EAB",
"J$	c #1E4E82",
"K$	c #203550",
"L$	c #1A2533",
"M$	c #1C283C",
"N$	c #192E50",
"O$	c #0D3172",
"P$	c #103787",
"Q$	c #15378C",
"R$	c #2D4694",
"S$	c #44549B",
"T$	c #3E4991",
"U$	c #BBBCC0",
"V$	c #7E89AD",
"W$	c #6579B1",
"X$	c #8397C3",
"Y$	c #8298C4",
"Z$	c #819BC7",
"`$	c #819EC9",
" %	c #81A0CB",
".%	c #81A3CC",
"+%	c #81A4CE",
"@%	c #6C97C7",
"#%	c #1358A6",
"$%	c #0E55A4",
"%%	c #0E54A3",
"&%	c #0D52A2",
"*%	c #0B4FA2",
"=%	c #084390",
"-%	c #073679",
";%	c #06357E",
">%	c #08398E",
",%	c #0B3890",
"'%	c #0A3089",
")%	c #092883",
"!%	c #08207E",
"~%	c #162680",
"{%	c #1B2480",
"]%	c #A4A4B2",
"^%	c #9DA2B8",
"/%	c #3F539C",
"(%	c #697CB5",
"_%	c #667EB4",
":%	c #6680B5",
"<%	c #6988B9",
"[%	c #6B8BBB",
"}%	c #6C8EBC",
"|%	c #6086B8",
"1%	c #2B60A3",
"2%	c #3064A4",
"3%	c #3467A5",
"4%	c #3969A6",
"5%	c #3E6CA7",
"6%	c #426CA6",
"7%	c #476EA6",
"8%	c #4C70A9",
"9%	c #5170A7",
"0%	c #5570A4",
"a%	c #5970A3",
"b%	c #5E71A2",
"c%	c #6271A1",
"d%	c #6671A0",
"e%	c #69719F",
"f%	c #6D709F",
"g%	c #A9ACBA",
"h%	c #C1C2C6",
"i%	c #8F96B3",
"j%	c #8E95AB",
"k%	c #969FB4",
"l%	c #A1ABBF",
"m%	c #A2ACBF",
"n%	c #A4AEC0",
"o%	c #A5AFC1",
"p%	c #A6B1C1",
"q%	c #A1AEBF",
"r%	c #A5B1C0",
"s%	c #A8B3C1",
"t%	c #ABB4C1",
"u%	c #ADB6C2",
"v%	c #AFB6C1",
"w%	c #B1B8C2",
"x%	c #B4B9C2",
"y%	c #B5B9C1",
"z%	c #BABDC4",
"A%	c #BBBEC3",
"B%	c #BEBFC3",
"C%	c #C3C4C6",
"D%	c #C4C5C5",
"E%	c #C7C7C6",
"F%	c #CDCDC9",
"G%	c #C3C5C8",
"H%	c #CECECA",
"I%	c #BDBCB8",
"J%	c #C4C3BF",
"K%	c #D6D4D1",
"L%	c #D8D6D3",
"M%	c #DBD9D5",
"N%	c #272727",
"O%	c #242424",
"P%	c #383838",
"Q%	c #3C3C3C",
"R%	c #404040",
"S%	c #444444",
"T%	c #474747",
"U%	c #4B4B4B",
"V%	c #5F5F5F",
"W%	c #6B6B6B",
"X%	c #717171",
"Y%	c #787878",
"Z%	c #7F7F7F",
"`%	c #878787",
" &	c #8F8F8F",
".&	c #B4B4B4",
"+&	c #CFCFCF",
"@&	c #D5D5D5",
"#&	c #D9D9D9",
"$&	c #DADADA",
"%&	c #D8D8D8",
"&&	c #D3D3D3",
"*&	c #838383",
"=&	c #818181",
"-&	c #727272",
";&	c #666666",
">&	c #5C5C5C",
",&	c #545454",
"'&	c #4E4E4E",
")&	c #4A4A4A",
"!&	c #4C4C4C",
"    . + @ @                                                     ",
"    # $ % & * = - ; > , , , ' '                                 ",
"    ) ! ~ { ] ^ / ( _ : < [ } | 1 2 3 4 5 6 7 7 8 9             ",
"    0 a b c d e f g h i j k l m n o p q r s t u v w x y z       ",
"    A B C D E F G H I J K L M N O P Q R S T U V W X Y Z `       ",
"     ...+.@.#.$.%.&.*.=.-.;.>.,.'.).!.~.{.].^./.(._.:.<.[.      ",
"    }.|.1.2.3.4.5.6.7.8.9.0.a.b.c.d.d.e.f.g.h.^.i.j.k.l.m.      ",
"      n.o.p.q.r.s.t.u.v.w.x.y.z.A.B.C.D.E.F.~.G.q H.I.J.K.      ",
"      L.M.N.O.P.Q.R.S.T.U.V.W.X.Y.Z.`. +.+++@+#+$+%+&+*+=+      ",
"      -+;+>+,+'+)+!+~+{+]+^+/+(+_+:+<+[+}+|+1+2+3+4+5+6+7+8+    ",
"      9+0+a+b+c+d+e+f+g+h+i+j+k+l+m+n+o+p+q+r+s+t+u+v+w+x+y+    ",
"      z+A+B+C+D+E+F+G+H+I+J+K+L+M+N+O+P+Q+R+S+T+U+V+W+X+Y+Z+    ",
"      `+ @.@+@@@#@$@%@&@*@a.=@-@;@>@,@'@)@!@~@{@]@$+^@/@(@_@    ",
"      :@<@[@}@|@1@2@3@4@5@6@7@8@9@0@a@b@c@d@e@f@g@h@i@j@k@l@    ",
"      m@n@o@p@q@r@s@t@u@v@w@x@y@z@A@B@C@D@E@F@G@H@I@J@K@L@M@    ",
"        N@O@+@P@Q@R@S@T@U@V@W@X@Y@Z@`@ #.#+#@###$#%#&#*#=#-#;#  ",
"        >#,#'#)#!#~#{#]#^#/#(#_#:#<#[#}#|#1#2#3#4#5#6#7#8#9#0#  ",
"        a#b#b+c#d#e#f#g#h#i#j#k#l#m#n#o#p#q#r#s#t#u#v#w#x#y#z#  ",
"        A#B#,+C#D#E#F#G#g#h#H#I#J#K#L#M#N#O#P#Q#R#S#T#U#V#W#X#  ",
"        Y#Z#`#b+c#d#Q@F# $.$+$@$#$$$%$&$*$=$-$;$>$,$'$)$!$~${$  ",
"        ]$^$N./$($)#_$:$R@G#<$[$}$|$1$2$3$4$5$6$7$8$9$0$a$b$c$  ",
"        d$e$f$>+,+($)#_$Q@g$h$i$j$k$l$m$n$o$p$q$r$s$t$u$v$w$x$Y#",
"        y$z$A$B$>+C$($)#D$!#E$F$G$H$3+I$J$K$L$M$N$O$P$Q$R$S$T$U$",
"          V$W$X$Y$Z$`$ %.%+%@%#%$%$%%%&%*%=%-%;%>%,%'%)%!%~%{%]%",
"          ^%/%(%_%:%b#<%[%}%|%1%2%3%4%5%6%7%8%9%0%a%b%c%d%e%f%g%",
"          h%i%j%k%l%m%n%o%p%p%q%r%s%t%u%v%w%x%y%z%A%B%C%D%E%F%G%",
"          E%H%I%J%K%L%M%                                        ",
"                            N%O%                                ",
"                    P%Q%R%S%T%U%                                ",
"                  V%W%X%Y%Z%`% &                                ",
"                  .&+&@&#&$&%&&&                                ",
"                  *&=&-&;&>&,&'&)&!&                            "};
