<?xml version="1.0" encoding="UTF-8" standalone="no"?>
<svg
   xmlns:dc="http://purl.org/dc/elements/1.1/"
   xmlns:cc="http://creativecommons.org/ns#"
   xmlns:rdf="http://www.w3.org/1999/02/22-rdf-syntax-ns#"
   xmlns:svg="http://www.w3.org/2000/svg"
   xmlns="http://www.w3.org/2000/svg"
   xmlns:xlink="http://www.w3.org/1999/xlink"
   xmlns:sodipodi="http://sodipodi.sourceforge.net/DTD/sodipodi-0.dtd"
   xmlns:inkscape="http://www.inkscape.org/namespaces/inkscape"
   width="32"
   height="32"
   id="svg2"
   version="1.1"
   inkscape:version="0.91 r13725"
   sodipodi:docname="application-x-python-bytecode.svg">
  <metadata
     id="metadata41">
    <rdf:RDF>
      <cc:Work
         rdf:about="">
        <dc:format>image/svg+xml</dc:format>
        <dc:type
           rdf:resource="http://purl.org/dc/dcmitype/StillImage" />
      </cc:Work>
    </rdf:RDF>
  </metadata>
  <sodipodi:namedview
     pagecolor="#ffffff"
     bordercolor="#666666"
     borderopacity="1"
     objecttolerance="10"
     gridtolerance="10"
     guidetolerance="10"
     inkscape:pageopacity="0"
     inkscape:pageshadow="2"
     inkscape:window-width="1920"
     inkscape:window-height="1025"
     id="namedview39"
     showgrid="false"
     inkscape:zoom="7.375"
     inkscape:cx="-33.355932"
     inkscape:cy="13.830508"
     inkscape:window-x="0"
     inkscape:window-y="26"
     inkscape:window-maximized="1"
     inkscape:current-layer="svg2" />
  <defs
     id="defs4">
    <linearGradient
       id="c"
       y1="524.8"
       x1="404.57"
       y2="531.8"
       x2="411.57"
       gradientUnits="userSpaceOnUse"
       gradientTransform="translate(-384.57,-515.8)">
      <stop
         stop-color="#383e51"
         id="stop17" />
      <stop
         offset="1"
         stop-color="#655c6f"
         stop-opacity="0"
         id="stop19" />
    </linearGradient>
    <linearGradient
       inkscape:collect="always"
       xlink:href="#a-7"
       id="linearGradient4379"
       x1="15.354919"
       y1="30.381832"
       x2="13.19344"
       y2="2.1934404"
       gradientUnits="userSpaceOnUse" />
    <linearGradient
       id="a-7"
       y1="392.35999"
       y2="365.35999"
       gradientUnits="userSpaceOnUse"
       x2="0"
       gradientTransform="translate(309.57,152.44)">
      <stop
         stop-color="#ffffff"
         stop-opacity="0"
         id="stop7-9" />
      <stop
         offset="1"
         stop-color="#ffffff"
         stop-opacity=".2"
         id="stop9-2" />
    </linearGradient>
  </defs>
  <path
     inkscape:connector-curvature="0"
     style="fill:#fbc31f;fill-opacity:1"
     id="path23"
     d="m 5,30 0,-28 15,0 7,7 0,21 -7,0 z" />
  <rect
     width="15"
     x="5.0000072"
     y="-2.9999878"
     height="1"
     id="rect27"
     style="fill:#ffffff;fill-opacity:0.41199999"
     transform="scale(1,-1)" />
  <rect
     width="22"
     x="5.0000072"
     y="-29.999989"
     height="1"
     id="rect29"
     style="fill:#2e3132;fill-opacity:0.294"
     transform="scale(1,-1)" />
  <path
     d="M 27,9 20,2 20,9 Z"
     id="path33"
     style="fill:#000000;fill-rule:evenodd;fill-opacity:1;opacity:0.6"
     inkscape:connector-curvature="0" />
  <path
     d="M 27,16 20,9 27,9 Z"
     id="path35"
     style="opacity:0.2;fill:url(#c);fill-rule:evenodd"
     inkscape:connector-curvature="0" />
  <path
     style="fill:#000000;fill-opacity:1;opacity:0.6"
     inkscape:connector-curvature="0"
     id="path37"
     d="m 15,12 c -1.108,0 -2,0.892 -2,2 l 3,0 0,1 -4,0 c -1.108,0 -2,0.892 -2,2 l 0,2 c 0,1.108 0.892,2 2,2 l 0,-1 c 0,-0.889 0.39,-1.676 1,-2.225 10e-4,-10e-4 10e-4,-10e-4 0.002,-0.002 0.132,-0.119 0.275,-0.226 0.426,-0.32 10e-4,-10e-4 0.003,-10e-4 0.004,-0.002 0.149,-0.093 0.306,-0.172 0.471,-0.238 0.03,-0.012 0.062,-0.019 0.092,-0.029 0.14,-0.051 0.283,-0.097 0.432,-0.127 C 14.613,17.021 14.804,17 15.001,17 l 4,0 0,-3 c 0,-1.108 -0.892,-2 -2,-2 z m 0,0.5 c 0.277,0 0.5,0.223 0.5,0.5 0,0.277 -0.223,0.5 -0.5,0.5 -0.277,0 -0.5,-0.223 -0.5,-0.5 0,-0.277 0.223,-0.5 0.5,-0.5 m 5,2.5 0,1 c 0,0.889 -0.392,1.678 -1,2.227 -0.132,0.119 -0.275,0.226 -0.426,0.32 -0.001,10e-4 -0.003,10e-4 -0.004,0.002 -0.149,0.093 -0.306,0.172 -0.471,0.238 -0.03,0.012 -0.062,0.019 -0.092,0.029 -0.14,0.051 -0.283,0.097 -0.432,0.127 C 17.389,18.979 17.198,19 17.001,19 l -4,0 0,3 c 0,1.108 0.892,2 2,2 l 2,0 c 1.108,0 2,-0.892 2,-2 l -3,0 0,-1 4,0 c 1.108,0 2,-0.892 2,-2 l 0,-2 c 0,-1.108 -0.892,-2 -2,-2 m -3,7.5 c 0.277,0 0.5,0.223 0.5,0.5 0,0.277 -0.223,0.5 -0.5,0.5 -0.277,0 -0.5,-0.223 -0.5,-0.5 0,-0.277 0.223,-0.5 0.5,-0.5" />
  <path
     inkscape:connector-curvature="0"
     style="fill:url(#linearGradient4379);fill-opacity:1"
     id="path23-3"
     d="m 5,30 0,-28 15,0 7,7 0,21 -7,0 z" />
</svg>
