<?xml version="1.0" encoding="UTF-8" standalone="no"?>
<svg
   xmlns:dc="http://purl.org/dc/elements/1.1/"
   xmlns:cc="http://creativecommons.org/ns#"
   xmlns:rdf="http://www.w3.org/1999/02/22-rdf-syntax-ns#"
   xmlns:svg="http://www.w3.org/2000/svg"
   xmlns="http://www.w3.org/2000/svg"
   xmlns:xlink="http://www.w3.org/1999/xlink"
   xmlns:sodipodi="http://sodipodi.sourceforge.net/DTD/sodipodi-0.dtd"
   xmlns:inkscape="http://www.inkscape.org/namespaces/inkscape"
   width="32"
   height="32"
   id="svg2"
   version="1.1"
   inkscape:version="0.91 r13725"
   sodipodi:docname="application-x-trash.svg">
  <metadata
     id="metadata41">
    <rdf:RDF>
      <cc:Work
         rdf:about="">
        <dc:format>image/svg+xml</dc:format>
        <dc:type
           rdf:resource="http://purl.org/dc/dcmitype/StillImage" />
      </cc:Work>
    </rdf:RDF>
  </metadata>
  <sodipodi:namedview
     pagecolor="#ffffff"
     bordercolor="#666666"
     borderopacity="1"
     objecttolerance="10"
     gridtolerance="10"
     guidetolerance="10"
     inkscape:pageopacity="0"
     inkscape:pageshadow="2"
     inkscape:window-width="1920"
     inkscape:window-height="1023"
     id="namedview39"
     showgrid="false"
     inkscape:zoom="7.375"
     inkscape:cx="-4.5423729"
     inkscape:cy="16"
     inkscape:window-x="0"
     inkscape:window-y="28"
     inkscape:window-maximized="1"
     inkscape:current-layer="svg2" />
  <defs
     id="defs4">
    <linearGradient
       id="c"
       y1="524.8"
       x1="404.57"
       y2="531.8"
       x2="411.57"
       gradientUnits="userSpaceOnUse"
       gradientTransform="translate(-384.57,-515.8)">
      <stop
         stop-color="#383e51"
         id="stop17" />
      <stop
         offset="1"
         stop-color="#655c6f"
         stop-opacity="0"
         id="stop19" />
    </linearGradient>
    <linearGradient
       inkscape:collect="always"
       xlink:href="#linearGradient4241"
       id="linearGradient4180"
       x1="15.259041"
       y1="29.806559"
       x2="14.535745"
       y2="2.3851981"
       gradientUnits="userSpaceOnUse" />
    <linearGradient
       id="linearGradient4241"
       y1="392.35999"
       y2="365.35999"
       x2="0"
       gradientUnits="userSpaceOnUse"
       gradientTransform="translate(309.57,152.44)">
      <stop
         stop-color="#ffffff"
         stop-opacity="0"
         id="stop4243" />
      <stop
         offset="1"
         stop-color="#ffffff"
         stop-opacity=".2"
         id="stop4245" />
    </linearGradient>
  </defs>
  <path
     inkscape:connector-curvature="0"
     style="fill:#2cbd2c;fill-opacity:1"
     id="path23"
     d="m 5,30 0,-28 15,0 7,7 0,21 -7,0 z" />
  <rect
     width="15"
     x="5.0000072"
     y="-2.9999878"
     height="1"
     id="rect27"
     style="fill:#ffffff;fill-opacity:0.41199999"
     transform="scale(1,-1)" />
  <rect
     width="22"
     x="5.0000072"
     y="-29.999989"
     height="1"
     id="rect29"
     style="fill:#2e3132;fill-opacity:0.294"
     transform="scale(1,-1)" />
  <path
     d="M 27,9 20,2 20,9 Z"
     id="path33"
     style="fill:#000000;fill-rule:evenodd;fill-opacity:1;opacity:0.6"
     inkscape:connector-curvature="0" />
  <path
     d="M 27,16 20,9 27,9 Z"
     id="path35"
     style="opacity:0.2;fill:url(#c);fill-rule:evenodd"
     inkscape:connector-curvature="0" />
  <path
     style="fill:#000000;fill-opacity:1;opacity:0.7"
     inkscape:connector-curvature="0"
     id="path37"
     d="m 12.111859,20.153847 c -0.121937,0.219063 -0.219063,0.548842 -0.219063,0.756558 0,0.04825 0,0.109594 0.01197,0.194626 l -1.524836,-2.62202 c -0.04888,-0.08503 -0.08516,-0.207219 -0.08516,-0.317186 0,-0.110093 0.03641,-0.243999 0.08516,-0.32928 l 0.731996,-1.280838 -0.817153,-0.463186 2.659176,-0.04925 1.292806,2.329771 -0.829246,-0.475654 -1.305774,2.256708 m 1.171244,-7.392278 c 0.231531,-0.402965 0.610059,-0.622527 1.073245,-0.622527 0.499967,0 0.890964,0.23203 1.171244,0.707185 l 0.414935,0.695216 -1.43968,2.488862 -2.32977,-1.354025 1.110026,-1.914711 m 0.170313,9.501863 c -0.695216,0 -1.26837,-0.573278 -1.26837,-1.268494 0,-0.195249 0.08566,-0.524778 0.207592,-0.731996 l 0.389875,-0.695216 2.891329,0 0,2.695831 -2.220675,0 m 2.318175,-9.575424 c -0.182781,-0.316687 -0.42678,-0.536872 -0.719653,-0.658934 l 3.001047,0 c 0.268436,0 0.47553,0.110092 0.597966,0.317685 l 0.743965,1.268494 0.80481,-0.476153 -1.293306,2.318175 -2.646956,-0.03728 0.817152,-0.463186 -1.305275,-2.269176 m 4.623135,6.903531 c 0.365562,0 0.670778,-0.09762 0.926746,-0.292374 l -1.512867,2.634488 c -0.121937,0.207218 -0.341124,0.32928 -0.597217,0.32928 l -1.427586,0 0,0.93909 -1.365994,-2.280771 1.365994,-2.28152 0,0.951807 2.611049,0 m 1.170246,-2.195739 c 0.110092,0.195249 0.17131,0.402342 0.17131,0.622028 0,0.439248 -0.280904,0.902808 -0.670778,1.12212 -0.18328,0.09812 -0.439746,0.159341 -0.695216,0.159341 l -0.805807,0 -1.438807,-2.488862 2.329771,-1.329712 1.109527,1.915085" />
  <path
     inkscape:connector-curvature="0"
     style="fill:url(#linearGradient4180);fill-opacity:1"
     id="path23-3"
     d="m 5,30 0,-28 15,0 7,7 0,21 -7,0 z" />
</svg>
