<?xml version="1.0" encoding="UTF-8" standalone="no"?>
<svg
   xmlns:dc="http://purl.org/dc/elements/1.1/"
   xmlns:cc="http://creativecommons.org/ns#"
   xmlns:rdf="http://www.w3.org/1999/02/22-rdf-syntax-ns#"
   xmlns:svg="http://www.w3.org/2000/svg"
   xmlns="http://www.w3.org/2000/svg"
   xmlns:xlink="http://www.w3.org/1999/xlink"
   xmlns:sodipodi="http://sodipodi.sourceforge.net/DTD/sodipodi-0.dtd"
   xmlns:inkscape="http://www.inkscape.org/namespaces/inkscape"
   width="32"
   height="32"
   id="svg2"
   version="1.1"
   inkscape:version="0.91 r13725"
   sodipodi:docname="application-x-designer.svg">
  <metadata
     id="metadata49">
    <rdf:RDF>
      <cc:Work
         rdf:about="">
        <dc:format>image/svg+xml</dc:format>
        <dc:type
           rdf:resource="http://purl.org/dc/dcmitype/StillImage" />
      </cc:Work>
    </rdf:RDF>
  </metadata>
  <sodipodi:namedview
     pagecolor="#ffffff"
     bordercolor="#666666"
     borderopacity="1"
     objecttolerance="10"
     gridtolerance="10"
     guidetolerance="10"
     inkscape:pageopacity="0"
     inkscape:pageshadow="2"
     inkscape:window-width="1920"
     inkscape:window-height="1025"
     id="namedview47"
     showgrid="false"
     inkscape:zoom="7.375"
     inkscape:cx="-8.6779661"
     inkscape:cy="14.915254"
     inkscape:window-x="0"
     inkscape:window-y="26"
     inkscape:window-maximized="1"
     inkscape:current-layer="svg2" />
  <defs
     id="defs4">
    <linearGradient
       id="a"
       y1="61"
       y2="3"
       x2="0"
       gradientUnits="userSpaceOnUse"
       gradientTransform="matrix(0.5,0,0,-0.48276,0,31.45)">
      <stop
         stop-color="#22a7f0"
         id="stop7" />
      <stop
         offset="1"
         stop-color="#19b5fe"
         id="stop9" />
    </linearGradient>
    <linearGradient
       id="b"
       y1="518.04"
       y2="524.8"
       x2="0"
       gradientUnits="userSpaceOnUse"
       gradientTransform="translate(-384.57,-515.8)">
      <stop
         stop-color="#c8e3fe"
         id="stop12" />
      <stop
         offset="1"
         stop-color="#ffffff"
         id="stop14" />
    </linearGradient>
    <linearGradient
       id="c"
       y1="524.8"
       x1="404.57"
       y2="531.8"
       x2="411.57"
       gradientUnits="userSpaceOnUse"
       gradientTransform="translate(-384.57,-515.8)">
      <stop
         stop-color="#383e51"
         id="stop17" />
      <stop
         offset="1"
         stop-color="#655c6f"
         stop-opacity="0"
         id="stop19" />
    </linearGradient>
    <linearGradient
       inkscape:collect="always"
       id="linearGradient6251">
      <stop
         style="stop-color:#ffffff;stop-opacity:0"
         offset="0"
         id="stop6253" />
      <stop
         style="stop-color:#ffffff;stop-opacity:0.2"
         offset="1"
         id="stop6255" />
    </linearGradient>
    <linearGradient
       inkscape:collect="always"
       xlink:href="#linearGradient6251"
       id="linearGradient4232"
       x1="15.033898"
       y1="30.101694"
       x2="14.932203"
       y2="2.0338984"
       gradientUnits="userSpaceOnUse" />
  </defs>
  <path
     inkscape:connector-curvature="0"
     style="fill:#47cffb;fill-opacity:1"
     id="path23"
     d="m 5,30 0,-28 15,0 7,7 0,21 -7,0 z" />
  <rect
     width="15"
     x="5.0000072"
     y="-2.9999878"
     height="1"
     id="rect27"
     style="fill:#ffffff;fill-opacity:0.41199999"
     transform="scale(1,-1)" />
  <rect
     width="22"
     x="5.0000072"
     y="-29.999989"
     height="1"
     id="rect29"
     style="fill:#2e3132;fill-opacity:0.294"
     transform="scale(1,-1)" />
  <path
     d="M 27,9 20,2 20,9 Z"
     id="path33"
     style="fill:#000000;fill-rule:evenodd;fill-opacity:1;opacity:0.4"
     inkscape:connector-curvature="0" />
  <path
     d="M 27,16 20,9 27,9 Z"
     id="path35"
     style="opacity:0.2;fill:url(#c);fill-rule:evenodd"
     inkscape:connector-curvature="0" />
  <path
     style="fill:#000000;fill-opacity:1;opacity:0.4"
     d="M 15.917969 10.382812 C 15.670752 10.382812 15.46875 10.582861 15.46875 10.830078 L 15.46875 11.238281 C 14.671697 11.442566 14.099609 12.150483 14.099609 13 C 14.099609 13.594464 14.383182 14.122121 14.826172 14.455078 C 14.873332 14.510808 14.902344 14.581561 14.902344 14.660156 C 14.902344 14.683016 14.901338 14.705132 14.898438 14.726562 L 12.929688 18.900391 L 12.115234 18.900391 C 11.982337 18.900391 11.873047 19.007728 11.873047 19.140625 C 11.873047 19.273522 11.982337 19.380859 12.115234 19.380859 L 12.703125 19.380859 L 11.183594 22.603516 C 11.087854 22.807863 11.135107 23.044363 11.285156 23.197266 L 10.699219 24.386719 L 11.625 23.384766 C 11.870788 23.449066 12.134632 23.331491 12.246094 23.095703 L 13.998047 19.380859 L 15.537109 19.380859 L 15.537109 19.699219 C 15.537109 19.902137 15.703856 20.066406 15.908203 20.066406 L 15.927734 20.066406 C 16.132081 20.066406 16.298828 19.902137 16.298828 19.699219 L 16.298828 19.380859 L 17.873047 19.380859 L 19.626953 23.095703 C 19.736986 23.332917 19.999782 23.449071 20.244141 23.384766 L 21.169922 24.386719 L 20.585938 23.197266 C 20.734554 23.044363 20.783243 22.809292 20.6875 22.603516 L 19.167969 19.380859 L 19.71875 19.380859 C 19.853076 19.380859 19.960938 19.273522 19.960938 19.140625 C 19.960938 19.007728 19.853076 18.901791 19.71875 18.900391 L 18.941406 18.900391 L 16.972656 14.726562 C 16.969756 14.705122 16.96875 14.683016 16.96875 14.660156 C 16.96875 14.582986 16.997239 14.510809 17.042969 14.455078 C 17.485959 14.122121 17.773438 13.594464 17.773438 13 C 17.773438 12.139546 17.1725 11.424614 16.367188 11.230469 L 16.367188 10.830078 C 16.367187 10.582861 16.166615 10.382812 15.917969 10.382812 z M 16.347656 12.03125 C 16.726252 12.190673 16.990234 12.56487 16.990234 13 C 16.990234 13.580174 16.518579 14.048828 15.935547 14.048828 C 15.349657 14.048828 14.880859 13.580174 14.880859 13 C 14.880859 12.579518 15.134264 12.222407 15.494141 12.054688 C 15.549555 12.238025 15.714519 12.375 15.917969 12.375 C 16.129145 12.375 16.3003 12.227601 16.347656 12.03125 z M 15.927734 15.519531 L 15.935547 15.519531 L 15.945312 15.519531 C 16.002472 15.519531 16.052546 15.547881 16.083984 15.587891 L 17.646484 18.900391 L 16.298828 18.900391 L 16.298828 18.511719 C 16.298828 18.307372 16.132081 18.144531 15.927734 18.144531 L 15.908203 18.144531 C 15.703856 18.144531 15.537109 18.308801 15.537109 18.511719 L 15.537109 18.900391 L 14.224609 18.900391 L 15.787109 15.587891 C 15.819979 15.546451 15.870572 15.519531 15.927734 15.519531 z "
     id="path39" />
  <path
     inkscape:connector-curvature="0"
     style="fill:url(#linearGradient4232);fill-opacity:1"
     id="path23-3"
     d="m 5,30 0,-28 15,0 7,7 0,21 -7,0 z" />
</svg>
