<svg xmlns="http://www.w3.org/2000/svg" viewBox="0 0 32 32">
 <g transform="translate(-384.57-515.8)">
  <circle fill="#fff" cx="400.57" cy="531.8" r="11"/>
  <path fill="#da4453" d="M16 4A12 12 0 0 0 4 16 12 12 0 0 0 16 28 12 12 0 0 0 28 16 12 12 0 0 0 16 4M10.707 10L16 15.293 21.293 10C21.293 10 22.02 10.716 22 10.707L16.707 16 22 21.293C22 21.293 21.299 21.999 21.293 22L16 16.707 10.707 22C10.708 21.995 10 21.293 10 21.293L15.293 16 10 10.707C10.02 10.708 10.707 10 10.707 10" transform="translate(384.57 515.8)"/>
 </g>
</svg>
