<svg width="22" height="22" xmlns="http://www.w3.org/2000/svg">
    <style type="text/css" id="current-color-scheme">
        .ColorScheme-Text {
            color:#232629;
        }
    </style>
    <path id="bell" d="m11 3a1 1 0 0 0 -1 1 1 1 0 0 0 .0098.128906 3.9999999 3.9999999 0 0 0 -3.0098 3.871094c0 3-1 4-3 6v1h7 7v-1c-2-2-3-3-3-6a3.9999999 3.9999999 0 0 0 -3.009766-3.871094 1 1 0 0 0 .009766-.128906 1 1 0 0 0 -1-1zm.269531 13a2 2 0 0 0 -.269531 1 2 2 0 0 0 2 2 2 2 0 0 0 2-2 2 2 0 0 0 -.271484-1z" class="ColorScheme-Text" fill="currentColor"/>
</svg>
