<svg xmlns="http://www.w3.org/2000/svg" viewBox="0 0 16 16">
  <defs id="defs3051">
    <style type="text/css" id="current-color-scheme">
      .ColorScheme-Text {
        color:#4d4d4d;
      }
      .ColorScheme-NegativeText {
        color:#da4453;
      }
      </style>
  </defs>
  <g transform="translate(-421.71-531.79)">
 <path style="fill:currentColor;fill-opacity:1;stroke:none" 
     d="m426.71 533.79c-.552 0-1 .448-1 1v2h-2v9h6v-1h-5v-7h10v2h1v-3h-2v-2c0-.552-.448-1-1-1zm0 1h6v2h-6z"
     class="ColorScheme-Text"
     />
  <path d="m433.21429 540.79074a2.499985 2.499985 0 0 0 -2.5 2.5 2.499985 2.499985 0 0 0 2.5 2.5 2.499985 2.499985 0 0 0 2.5 -2.5 2.499985 2.499985 0 0 0 -2.5 -2.5m0 1a1.5 1.5 0 0 1 .64453 .14844l-1.996 1.996a1.5 1.5 0 0 1 -.14844 -.64453 1.5 1.5 0 0 1 1.5 -1.5m1.35156.85547a1.5 1.5 0 0 1 .14844 .64453 1.5 1.5 0 0 1 -1.5 1.5 1.5 1.5 0 0 1 -.64453 -.14844z"  style="fill:currentColor;fill-opacity:1;stroke:none" 
     class="ColorScheme-NegativeText"
    />
</g>
</svg>
