<?xml version="1.0" encoding="UTF-8" standalone="no"?>
<svg
   xmlns:dc="http://purl.org/dc/elements/1.1/"
   xmlns:cc="http://creativecommons.org/ns#"
   xmlns:rdf="http://www.w3.org/1999/02/22-rdf-syntax-ns#"
   xmlns:svg="http://www.w3.org/2000/svg"
   xmlns="http://www.w3.org/2000/svg"
   xmlns:xlink="http://www.w3.org/1999/xlink"
   xmlns:sodipodi="http://sodipodi.sourceforge.net/DTD/sodipodi-0.dtd"
   xmlns:inkscape="http://www.inkscape.org/namespaces/inkscape"
   width="64"
   viewBox="0 0 64 64"
   height="64"
   id="svg2"
   version="1.1"
   inkscape:version="0.91 r13725"
   sodipodi:docname="application-octet-stream.svg">
  <metadata
     id="metadata39">
    <rdf:RDF>
      <cc:Work
         rdf:about="">
        <dc:format>image/svg+xml</dc:format>
        <dc:type
           rdf:resource="http://purl.org/dc/dcmitype/StillImage" />
      </cc:Work>
    </rdf:RDF>
  </metadata>
  <sodipodi:namedview
     pagecolor="#ffffff"
     bordercolor="#666666"
     borderopacity="1"
     objecttolerance="10"
     gridtolerance="10"
     guidetolerance="10"
     inkscape:pageopacity="0"
     inkscape:pageshadow="2"
     inkscape:window-width="640"
     inkscape:window-height="480"
     id="namedview37"
     showgrid="false"
     inkscape:snap-bbox="true"
     inkscape:bbox-nodes="true"
     inkscape:zoom="1"
     inkscape:cx="53.71532"
     inkscape:cy="40.965837"
     inkscape:current-layer="svg2">
    <inkscape:grid
       type="xygrid"
       id="grid4228" />
  </sodipodi:namedview>
  <defs
     id="defs4">
    <linearGradient
       id="a"
       y1="61"
       y2="3"
       x2="0"
       gradientUnits="userSpaceOnUse"
       gradientTransform="matrix(1 0 0-1 0 64)">
      <stop
         stop-color="#5e6b78"
         id="stop7" />
      <stop
         offset="1"
         stop-color="#768492"
         id="stop9" />
    </linearGradient>
    <linearGradient
       id="b"
       y1="61"
       y2="47"
       x2="0"
       gradientUnits="userSpaceOnUse"
       gradientTransform="matrix(1,0,0,-1,0,64)">
      <stop
         stop-color="#dedede"
         id="stop12" />
      <stop
         offset="1"
         stop-color="#fbfbfb"
         id="stop14" />
    </linearGradient>
    <linearGradient
       id="c"
       y1="17"
       x1="40"
       y2="31"
       x2="54"
       gradientUnits="userSpaceOnUse">
      <stop
         stop-color="#383e51"
         id="stop17" />
      <stop
         offset="1"
         stop-color="#655c6f"
         stop-opacity="0"
         id="stop19" />
    </linearGradient>
    <linearGradient
       x2="54"
       gradientUnits="userSpaceOnUse"
       y2="31"
       x1="40"
       y1="17"
       id="a-3"
       gradientTransform="translate(50,0)">
      <stop
         id="stop4172"
         stop-color="#060606" />
      <stop
         id="stop4174"
         stop-opacity="0"
         offset="1" />
    </linearGradient>
    <linearGradient
       gradientTransform="translate(-48,-332.36)"
       x2="0"
       gradientUnits="userSpaceOnUse"
       y2="336.36"
       y1="392.36"
       id="b-6">
      <stop
         id="stop4177"
         stop-opacity="0"
         stop-color="#ffffff" />
      <stop
         id="stop4179"
         stop-opacity=".2"
         stop-color="#ffffff"
         offset="1" />
    </linearGradient>
    <path
       d="m10 61v-58h30l14 14v44h-14z"
       id="c-7" />
  </defs>
  <g
     id="g4270"
     transform="translate(-50,0)">
    <use
       transform="translate(50,0)"
       height="100%"
       width="100%"
       y="0"
       x="0"
       style="color:#000000;color-interpolation:sRGB;color-interpolation-filters:linearRGB;fill:#555555;color-rendering:auto;image-rendering:auto;shape-rendering:auto;text-rendering:auto"
       xlink:href="#c-7"
       id="use4184" />
    <g
       transform="matrix(1,0,0,-1,50,0)"
       id="g4186"
       style="color:#000000;color-interpolation:sRGB;color-interpolation-filters:linearRGB;color-rendering:auto;image-rendering:auto;shape-rendering:auto;text-rendering:auto">
      <rect
         style="opacity:0.4;fill:#ffffff"
         x="10"
         y="-4"
         width="30"
         height="1"
         id="rect4188" />
      <rect
         style="opacity:0.35"
         x="10"
         y="-61"
         width="44"
         height="1"
         id="rect4190" />
    </g>
    <path
       style="color:#000000;opacity:0.5;color-interpolation:sRGB;color-interpolation-filters:linearRGB;fill:#ffffff;fill-rule:evenodd;color-rendering:auto;image-rendering:auto;shape-rendering:auto;text-rendering:auto"
       inkscape:connector-curvature="0"
       d="M 104,17 90,3 90,17 Z"
       id="path4192" />
    <path
       style="opacity:0.4;fill:url(#a-3);fill-rule:evenodd"
       id="path4194"
       d="m 90,17 14,14 0,-14 z"
       inkscape:connector-curvature="0" />
    <path
       inkscape:connector-curvature="0"
       style="color:#000000;clip-rule:nonzero;display:inline;overflow:visible;visibility:visible;opacity:1;isolation:auto;mix-blend-mode:normal;color-interpolation:sRGB;color-interpolation-filters:linearRGB;solid-color:#000000;solid-opacity:1;fill:#343434;fill-opacity:1;fill-rule:nonzero;stroke-width:1;stroke-linecap:butt;stroke-linejoin:miter;stroke-miterlimit:4;stroke-dasharray:none;stroke-dashoffset:0;stroke-opacity:1;color-rendering:auto;image-rendering:auto;shape-rendering:auto;text-rendering:auto;enable-background:accumulate"
       d="m 70,24 0,22 26,0 0,-22 -26,0 z m 18,1 c 0.552,0 1,0.448 1,1 0,0.552 -0.448,1 -1,1 -0.552,0 -1,-0.448 -1,-1 0,-0.552 0.448,-1 1,-1 z m 3,0 c 0.552,0 1,0.448 1,1 0,0.552 -0.448,1 -1,1 -0.552,0 -1,-0.448 -1,-1 0,-0.552 0.448,-1 1,-1 z m 3,0 c 0.552,0 1,0.448 1,1 0,0.552 -0.448,1 -1,1 -0.552,0 -1,-0.448 -1,-1 0,-0.552 0.448,-1 1,-1 z m -23,3 24,0 0,17 -24,0 0,-17 z m 12.5,2 c -0.972,0 -1.879531,0.341469 -2.519531,0.980469 C 80.340469,31.620469 80,32.527 80,33.5 l 2,0 c 0,-0.528 0.158531,-0.870469 0.394531,-1.105469 C 82.629531,32.159531 82.973,32 83.5,32 c 0.528,0 0.870469,0.158531 1.105469,0.394531 C 84.840469,32.629531 85,32.973 85,33.5 c 0,0.458 -0.08994,0.653172 -0.210938,0.826172 -0.521,0.526 -1.152203,0.97625 -1.658203,1.40625 C 82.558859,36.161422 82,36.724 82,37.5 l 0,0.5 2,0 0,-0.5 c 0.711,-0.728 1.769687,-1.362297 2.429688,-2.029297 C 86.777687,34.971703 87,34.292 87,33.5 87,32.528 86.658531,31.620469 86.019531,30.980469 85.379531,30.340469 84.473,30 83.5,30 Z m -1.5,10 0,2 2,0 0,-2 -2,0 z"
       id="path4263" />
    <path
       id="path4200"
       d="m 69,23 0,22 26,0 0,-22 -26,0 z m 18,1 c 0.552,0 1,0.448 1,1 0,0.552 -0.448,1 -1,1 -0.552,0 -1,-0.448 -1,-1 0,-0.552 0.448,-1 1,-1 z m 3,0 c 0.552,0 1,0.448 1,1 0,0.552 -0.448,1 -1,1 -0.552,0 -1,-0.448 -1,-1 0,-0.552 0.448,-1 1,-1 z m 3,0 c 0.552,0 1,0.448 1,1 0,0.552 -0.448,1 -1,1 -0.552,0 -1,-0.448 -1,-1 0,-0.552 0.448,-1 1,-1 z m -23,3 24,0 0,17 -24,0 0,-17 z m 12.5,2 c -0.972,0 -1.879531,0.341469 -2.519531,0.980469 C 79.340469,30.620469 79,31.527 79,32.5 l 2,0 c 0,-0.528 0.158531,-0.870469 0.394531,-1.105469 C 81.629531,31.159531 81.973,31 82.5,31 c 0.528,0 0.870469,0.158531 1.105469,0.394531 C 83.840469,31.629531 84,31.973 84,32.5 c 0,0.458 -0.08994,0.653172 -0.210938,0.826172 -0.521,0.526 -1.152203,0.97625 -1.658203,1.40625 C 81.558859,35.161422 81,35.724 81,36.5 l 0,0.5 2,0 0,-0.5 c 0.711,-0.728 1.769687,-1.362297 2.429688,-2.029297 C 85.777687,33.971703 86,33.292 86,32.5 86,31.528 85.658531,30.620469 85.019531,29.980469 84.379531,29.340469 83.473,29 82.5,29 Z m -1.5,10 0,2 2,0 0,-2 -2,0 z"
       style="color:#000000;color-interpolation:sRGB;color-interpolation-filters:linearRGB;fill:#e0e0e0;color-rendering:auto;image-rendering:auto;shape-rendering:auto;text-rendering:auto"
       inkscape:connector-curvature="0" />
    <use
       transform="translate(50,0)"
       style="fill:url(#b-6)"
       id="use4202"
       xlink:href="#c-7"
       x="0"
       y="0"
       width="100%"
       height="100%" />
  </g>
</svg>
