<?xml version="1.0" encoding="UTF-8" standalone="no"?>
<svg
   xmlns:dc="http://purl.org/dc/elements/1.1/"
   xmlns:cc="http://creativecommons.org/ns#"
   xmlns:rdf="http://www.w3.org/1999/02/22-rdf-syntax-ns#"
   xmlns:svg="http://www.w3.org/2000/svg"
   xmlns="http://www.w3.org/2000/svg"
   xmlns:xlink="http://www.w3.org/1999/xlink"
   xmlns:sodipodi="http://sodipodi.sourceforge.net/DTD/sodipodi-0.dtd"
   xmlns:inkscape="http://www.inkscape.org/namespaces/inkscape"
   width="64"
   viewBox="0 0 64 64"
   height="64"
   id="svg2"
   version="1.1"
   inkscape:version="0.91 r13725"
   sodipodi:docname="application-x-m4.svg">
  <metadata
     id="metadata43">
    <rdf:RDF>
      <cc:Work
         rdf:about="">
        <dc:format>image/svg+xml</dc:format>
        <dc:type
           rdf:resource="http://purl.org/dc/dcmitype/StillImage" />
      </cc:Work>
    </rdf:RDF>
  </metadata>
  <sodipodi:namedview
     pagecolor="#ffffff"
     bordercolor="#666666"
     borderopacity="1"
     objecttolerance="10"
     gridtolerance="10"
     guidetolerance="10"
     inkscape:pageopacity="0"
     inkscape:pageshadow="2"
     inkscape:window-width="640"
     inkscape:window-height="480"
     id="namedview41"
     showgrid="false"
     inkscape:snap-bbox="true"
     inkscape:bbox-nodes="true"
     inkscape:zoom="2.8284271"
     inkscape:cx="63.547814"
     inkscape:cy="26.944696"
     inkscape:current-layer="svg2">
    <inkscape:grid
       type="xygrid"
       id="grid4227" />
  </sodipodi:namedview>
  <defs
     id="defs4">
    <linearGradient
       id="a"
       y1="3"
       y2="61"
       x2="0"
       gradientUnits="userSpaceOnUse"
       gradientTransform="matrix(1,0,0,-1,-40,64)">
      <stop
         stop-color="#bdc3c7"
         id="stop7" />
      <stop
         offset="1"
         stop-color="#dadfe1"
         id="stop9" />
    </linearGradient>
    <linearGradient
       id="b"
       y1="61"
       y2="47"
       x2="0"
       gradientUnits="userSpaceOnUse"
       gradientTransform="matrix(1 0 0-1 0 64)">
      <stop
         stop-color="#566472"
         id="stop12" />
      <stop
         offset="1"
         stop-color="#5e6b78"
         id="stop14" />
    </linearGradient>
    <linearGradient
       id="c"
       y1="17"
       x1="40"
       y2="31"
       x2="54"
       gradientUnits="userSpaceOnUse">
      <stop
         stop-color="#383e51"
         id="stop17" />
      <stop
         offset="1"
         stop-color="#655c6f"
         stop-opacity="0"
         id="stop19" />
    </linearGradient>
    <linearGradient
       x2="54"
       gradientUnits="userSpaceOnUse"
       y2="31"
       x1="40"
       y1="17"
       id="a-3">
      <stop
         id="stop4176"
         stop-color="#060606" />
      <stop
         id="stop4178"
         stop-opacity="0"
         offset="1" />
    </linearGradient>
    <linearGradient
       gradientTransform="translate(268,343)"
       x2="0"
       gradientUnits="userSpaceOnUse"
       y2="336.36"
       y1="392.36"
       id="b-6">
      <stop
         id="stop4181"
         stop-opacity="0"
         stop-color="#ffffff" />
      <stop
         id="stop4183"
         stop-opacity=".2"
         stop-color="#ffffff"
         offset="1" />
    </linearGradient>
    <path
       d="m326 736.36v-58h30l14 14v44h-14z"
       id="c-7" />
  </defs>
  <use
     height="100%"
     width="100%"
     y="0"
     x="0"
     style="fill:#d2d6d9"
     xlink:href="#c-7"
     id="use4188"
     transform="translate(-316,-675.36)" />
  <g
     style="color:#000000;color-interpolation:sRGB;color-interpolation-filters:linearRGB;color-rendering:auto;image-rendering:auto;shape-rendering:auto;text-rendering:auto"
     id="g4192"
     transform="matrix(1,0,0,-1,-316,-675.36)">
    <rect
       id="rect4194"
       height="1"
       width="30"
       y="-679.35999"
       x="326"
       style="opacity:0.5;fill:#ffffff" />
    <rect
       id="rect4196"
       height="1"
       width="44"
       y="-736.35999"
       x="326"
       style="opacity:0.25" />
  </g>
  <path
     id="path4198"
     d="M 54,17 40,3 40,17 Z"
     inkscape:connector-curvature="0"
     style="color:#000000;color-interpolation:sRGB;color-interpolation-filters:linearRGB;fill:#5e6b78;color-rendering:auto;image-rendering:auto;shape-rendering:auto;text-rendering:auto" />
  <path
     inkscape:connector-curvature="0"
     d="M 40,17 54,31 54,17 Z"
     id="path4200"
     style="opacity:0.2;fill:url(#a-3);fill-rule:evenodd" />
  <g
     id="g35"
     style="color:#000000;clip-rule:nonzero;display:inline;overflow:visible;visibility:visible;opacity:1;isolation:auto;mix-blend-mode:normal;color-interpolation:sRGB;color-interpolation-filters:linearRGB;solid-color:#000000;solid-opacity:1;fill:#4b5560;fill-opacity:1;fill-rule:nonzero;stroke-width:1;stroke-linecap:butt;stroke-linejoin:miter;stroke-miterlimit:4;stroke-dasharray:none;stroke-dashoffset:0;stroke-opacity:1;color-rendering:auto;image-rendering:auto;shape-rendering:auto;text-rendering:auto;enable-background:accumulate"
     transform="translate(0,2)">
    <path
       d="m 35.883,27.17 c 0.035,-0.284 0.062,-0.572 0.062,-0.865 0,-0.293 -0.027,-0.581 -0.062,-0.865 l 1.876,-1.468 c 0.169,-0.133 0.217,-0.373 0.106,-0.568 L 36.091,20.33 C 35.98,20.139 35.749,20.059 35.55,20.139 l -2.209,0.891 c -0.457,-0.35 -0.958,-0.648 -1.499,-0.874 l -0.333,-2.351 c -0.04,-0.208 -0.222,-0.373 -0.444,-0.373 l -3.548,0 c -0.222,0 -0.404,0.164 -0.439,0.373 l -0.333,2.351 c -0.541,0.226 -1.042,0.519 -1.499,0.874 l -2.209,-0.891 c -0.2,-0.075 -0.43,0 -0.541,0.191 l -1.774,3.074 c -0.111,0.191 -0.062,0.43 0.106,0.568 L 22.7,25.44 c -0.035,0.284 -0.062,0.572 -0.062,0.865 0,0.293 0.027,0.581 0.062,0.865 l -1.872,1.468 c -0.169,0.133 -0.217,0.373 -0.106,0.568 l 1.774,3.074 c 0.111,0.191 0.342,0.271 0.541,0.191 l 2.209,-0.891 c 0.457,0.35 0.958,0.648 1.499,0.874 l 0.333,2.351 c 0.035,0.208 0.217,0.373 0.439,0.373 l 3.548,0 c 0.222,0 0.404,-0.164 0.439,-0.373 l 0.333,-2.351 c 0.541,-0.226 1.042,-0.519 1.499,-0.874 l 2.209,0.891 c 0.2,0.075 0.43,0 0.541,-0.191 l 1.774,-3.074 c 0.111,-0.191 0.062,-0.43 -0.106,-0.568 z m -6.591,2.24 c -1.716,0 -3.105,-1.388 -3.105,-3.105 0,-1.716 1.388,-3.105 3.105,-3.105 1.716,0 3.105,1.388 3.105,3.105 0,1.716 -1.388,3.105 -3.105,3.105"
       id="path37"
       style="color:#000000;clip-rule:nonzero;display:inline;overflow:visible;visibility:visible;isolation:auto;mix-blend-mode:normal;color-interpolation:sRGB;color-interpolation-filters:linearRGB;solid-color:#000000;solid-opacity:1;fill:#4b5560;fill-opacity:1;fill-rule:nonzero;stroke-width:1;stroke-linecap:butt;stroke-linejoin:miter;stroke-miterlimit:4;stroke-dasharray:none;stroke-dashoffset:0;stroke-opacity:1;color-rendering:auto;image-rendering:auto;shape-rendering:auto;text-rendering:auto;enable-background:accumulate"
       inkscape:connector-curvature="0" />
    <path
       d="m 40.96,42.841 c 0.122,-0.17 0.241,-0.346 0.343,-0.534 0.103,-0.188 0.187,-0.383 0.263,-0.578 l 1.721,-0.285 c 0.155,-0.026 0.27,-0.163 0.268,-0.328 L 43.493,38.519 C 43.489,38.358 43.368,38.225 43.212,38.207 L 41.48,38.005 C 41.309,37.62 41.091,37.253 40.823,36.918 l 0.611,-1.627 C 41.481,35.143 41.422,34.974 41.28,34.896 L 39,33.652 c -0.143,-0.078 -0.317,-0.036 -0.413,0.085 l -1.038,1.394 c -0.427,-0.044 -0.852,-0.032 -1.27,0.036 L 35.172,33.819 C 35.07,33.701 34.896,33.668 34.757,33.752 l -2.218,1.353 c -0.138,0.084 -0.191,0.255 -0.131,0.402 l 0.688,1.6 c -0.122,0.17 -0.241,0.346 -0.343,0.534 -0.103,0.188 -0.187,0.383 -0.263,0.578 l -1.718,0.287 c -0.155,0.026 -0.27,0.163 -0.268,0.328 l 0.062,2.597 c 0.004,0.161 0.125,0.294 0.281,0.312 l 1.732,0.202 c 0.171,0.385 0.389,0.752 0.657,1.087 l -0.611,1.627 c -0.05,0.146 0.009,0.316 0.152,0.393 l 2.28,1.244 c 0.143,0.078 0.317,0.036 0.413,-0.085 l 1.038,-1.394 c 0.427,0.044 0.852,0.032 1.27,-0.036 l 1.107,1.348 c 0.102,0.118 0.276,0.151 0.415,0.067 l 2.218,-1.353 c 0.138,-0.084 0.191,-0.255 0.131,-0.402 z m -5.02,-0.872 c -1.103,-0.602 -1.508,-1.981 -0.906,-3.084 0.602,-1.103 1.981,-1.508 3.084,-0.906 1.103,0.602 1.508,1.981 0.906,3.084 -0.602,1.103 -1.981,1.508 -3.084,0.906"
       id="path39"
       style="color:#000000;clip-rule:nonzero;display:inline;overflow:visible;visibility:visible;isolation:auto;mix-blend-mode:normal;color-interpolation:sRGB;color-interpolation-filters:linearRGB;solid-color:#000000;solid-opacity:1;fill:#4b5560;fill-opacity:1;fill-rule:nonzero;stroke-width:1;stroke-linecap:butt;stroke-linejoin:miter;stroke-miterlimit:4;stroke-dasharray:none;stroke-dashoffset:0;stroke-opacity:1;color-rendering:auto;image-rendering:auto;shape-rendering:auto;text-rendering:auto;enable-background:accumulate"
       inkscape:connector-curvature="0" />
  </g>
  <use
     height="100%"
     width="100%"
     y="0"
     x="0"
     xlink:href="#c-7"
     id="use4204"
     style="fill:url(#b-6)"
     transform="translate(-316,-675.36)" />
</svg>
