<?xml version="1.0" encoding="UTF-8" standalone="no"?>
<svg
   xmlns:dc="http://purl.org/dc/elements/1.1/"
   xmlns:cc="http://creativecommons.org/ns#"
   xmlns:rdf="http://www.w3.org/1999/02/22-rdf-syntax-ns#"
   xmlns:svg="http://www.w3.org/2000/svg"
   xmlns="http://www.w3.org/2000/svg"
   xmlns:xlink="http://www.w3.org/1999/xlink"
   xmlns:sodipodi="http://sodipodi.sourceforge.net/DTD/sodipodi-0.dtd"
   xmlns:inkscape="http://www.inkscape.org/namespaces/inkscape"
   width="64"
   viewBox="0 0 64 64"
   height="64"
   id="svg2"
   version="1.1"
   inkscape:version="0.91 r13725"
   sodipodi:docname="image-vnd.djvu.svg">
  <metadata
     id="metadata41">
    <rdf:RDF>
      <cc:Work
         rdf:about="">
        <dc:format>image/svg+xml</dc:format>
        <dc:type
           rdf:resource="http://purl.org/dc/dcmitype/StillImage" />
      </cc:Work>
    </rdf:RDF>
  </metadata>
  <sodipodi:namedview
     pagecolor="#ffffff"
     bordercolor="#666666"
     borderopacity="1"
     objecttolerance="10"
     gridtolerance="10"
     guidetolerance="10"
     inkscape:pageopacity="0"
     inkscape:pageshadow="2"
     inkscape:window-width="640"
     inkscape:window-height="480"
     id="namedview39"
     showgrid="false"
     inkscape:snap-bbox="true"
     inkscape:bbox-nodes="true"
     inkscape:zoom="1"
     inkscape:cx="51.938724"
     inkscape:cy="0.092874611"
     inkscape:current-layer="svg2">
    <inkscape:grid
       type="xygrid"
       id="grid4272" />
  </sodipodi:namedview>
  <defs
     id="defs4">
    <linearGradient
       id="a"
       y1="3"
       y2="61"
       x2="0"
       gradientUnits="userSpaceOnUse"
       gradientTransform="matrix(1 0 0-1 0 64)">
      <stop
         stop-color="#f9b425"
         id="stop7" />
      <stop
         offset="1"
         stop-color="#f9bf3b"
         id="stop9" />
    </linearGradient>
    <linearGradient
       id="b"
       y1="61"
       y2="47"
       x2="0"
       gradientUnits="userSpaceOnUse"
       gradientTransform="matrix(1 0 0-1 0 64)">
      <stop
         stop-color="#fddda3"
         id="stop12" />
      <stop
         offset="1"
         stop-color="#fde3a7"
         id="stop14" />
    </linearGradient>
    <linearGradient
       id="c"
       y1="17"
       x1="40"
       y2="31"
       x2="54"
       gradientUnits="userSpaceOnUse">
      <stop
         stop-color="#383e51"
         id="stop17" />
      <stop
         offset="1"
         stop-color="#655c6f"
         stop-opacity="0"
         id="stop19" />
    </linearGradient>
    <linearGradient
       gradientTransform="translate(-14,-332.36)"
       gradientUnits="userSpaceOnUse"
       x2="0"
       y2="336.36"
       y1="392.36"
       id="a-3">
      <stop
         id="stop4174"
         stop-opacity="0"
         stop-color="#ffffff" />
      <stop
         id="stop4176"
         stop-opacity=".15"
         stop-color="#ffffff"
         offset="1" />
    </linearGradient>
    <path
       d="m10 3v58h44v-58h-14z"
       color="#000000"
       color-interpolation="sRGB"
       id="b-6"
       text-rendering="auto"
       image-rendering="auto"
       shape-rendering="auto"
       color-interpolation-filters="linearRGB"
       color-rendering="auto" />
    <linearGradient
       gradientTransform="translate(46.08356,0.980501)"
       gradientUnits="userSpaceOnUse"
       x2="54"
       x1="40"
       y2="31"
       y1="17"
       id="a-7">
      <stop
         id="stop4221"
         stop-color="#060606" />
      <stop
         id="stop4223"
         stop-opacity="0"
         offset="1" />
    </linearGradient>
    <linearGradient
       gradientTransform="translate(190,-254)"
       gradientUnits="userSpaceOnUse"
       x2="0"
       y2="336.36"
       y1="392.36"
       id="b-5">
      <stop
         id="stop4226"
         stop-opacity="0"
         stop-color="#ffffff" />
      <stop
         id="stop4228"
         stop-opacity=".2"
         stop-color="#ffffff"
         offset="1" />
    </linearGradient>
    <path
       d="m248 139.36v-58h30l14 14v44h-14z"
       id="c-3" />
  </defs>
  <g
     id="g4330"
     transform="translate(50,-3)">
    <use
       transform="translate(-50,3)"
       id="use4179"
       xlink:href="#b-6"
       style="color:#000000;clip-rule:nonzero;display:inline;overflow:visible;visibility:visible;opacity:1;isolation:auto;mix-blend-mode:normal;color-interpolation:sRGB;color-interpolation-filters:linearRGB;solid-color:#000000;solid-opacity:1;fill:#209ae7;fill-opacity:1;fill-rule:nonzero;stroke-width:1;stroke-linecap:butt;stroke-linejoin:miter;stroke-miterlimit:4;stroke-dasharray:none;stroke-dashoffset:0;stroke-opacity:1;color-rendering:auto;image-rendering:auto;shape-rendering:auto;text-rendering:auto;enable-background:accumulate"
       x="0"
       y="0"
       width="100%"
       height="100%" />
    <rect
       style="color:#000000;opacity:0.25;color-interpolation:sRGB;color-interpolation-filters:linearRGB;color-rendering:auto;image-rendering:auto;shape-rendering:auto;text-rendering:auto"
       x="-40"
       y="63"
       width="44"
       height="1"
       id="rect4183" />
    <rect
       id="rect4187"
       height="1"
       width="44"
       y="6"
       x="-40"
       style="color:#000000;opacity:0.5;color-interpolation:sRGB;color-interpolation-filters:linearRGB;fill:#ffffff;color-rendering:auto;image-rendering:auto;shape-rendering:auto;text-rendering:auto" />
    <rect
       id="rect4191"
       height="56"
       y="7"
       x="-34"
       width="1"
       style="fill:#ffffff;fill-opacity:0.25200004" />
    <rect
       id="rect4193"
       height="56"
       width="1"
       y="7"
       x="-33"
       style="color:#000000;color-interpolation:sRGB;color-interpolation-filters:linearRGB;fill-opacity:0.08299997;color-rendering:auto;image-rendering:auto;shape-rendering:auto;text-rendering:auto" />
    <path
       inkscape:connector-curvature="0"
       style="color:#000000;clip-rule:nonzero;display:inline;overflow:visible;visibility:visible;opacity:0.8;isolation:auto;mix-blend-mode:normal;color-interpolation:sRGB;color-interpolation-filters:linearRGB;solid-color:#000000;solid-opacity:1;fill:#ffffff;fill-opacity:1;fill-rule:nonzero;stroke-width:1;stroke-linecap:butt;stroke-linejoin:miter;stroke-miterlimit:4;stroke-dasharray:none;stroke-dashoffset:0;stroke-opacity:1;color-rendering:auto;image-rendering:auto;shape-rendering:auto;text-rendering:auto;enable-background:accumulate"
       id="path35"
       d="m -27,22 0,22 1.375,0 c 6.875,0 13.75,0 20.625,0 0,-6.417 0,-12.833 0,-19.25 l 0,-2.75 -1,0 0,1 -2,0 0,-1 -2,0 0,1 -2,0 0,-1 -2,0 0,1 -3,0 0,-1 -2,0 0,1 -3,0 0,-1 -2,0 0,1 -2,0 0,-1 z m 1,3 20,0 c 0,6.07 0,12.198 0,18 -6.417,0 -13.583,0 -20,0 0,-5.5 0,-12.5 0,-18 m 3,4 0,1 14,0 0,-1 z m 0,4 0,1 8,0 0,-1 z m 0,4 0,1 11,0 0,-1 z m 11,3 0,1 3,0 0,-1 z" />
    <use
       transform="translate(-50,3)"
       style="fill:url(#a-3)"
       id="use4195"
       xlink:href="#b-6"
       x="0"
       y="0"
       width="100%"
       height="100%" />
  </g>
</svg>
