<?xml version="1.0" encoding="UTF-8" standalone="no"?>
<svg
   xmlns:dc="http://purl.org/dc/elements/1.1/"
   xmlns:cc="http://creativecommons.org/ns#"
   xmlns:rdf="http://www.w3.org/1999/02/22-rdf-syntax-ns#"
   xmlns:svg="http://www.w3.org/2000/svg"
   xmlns="http://www.w3.org/2000/svg"
   xmlns:xlink="http://www.w3.org/1999/xlink"
   xmlns:sodipodi="http://sodipodi.sourceforge.net/DTD/sodipodi-0.dtd"
   xmlns:inkscape="http://www.inkscape.org/namespaces/inkscape"
   width="64"
   viewBox="0 0 64 64"
   height="64"
   id="svg2"
   version="1.1"
   inkscape:version="0.91 r13725"
   sodipodi:docname="application-x-trash.svg">
  <metadata
     id="metadata39">
    <rdf:RDF>
      <cc:Work
         rdf:about="">
        <dc:format>image/svg+xml</dc:format>
        <dc:type
           rdf:resource="http://purl.org/dc/dcmitype/StillImage" />
      </cc:Work>
    </rdf:RDF>
  </metadata>
  <sodipodi:namedview
     pagecolor="#ffffff"
     bordercolor="#666666"
     borderopacity="1"
     objecttolerance="10"
     gridtolerance="10"
     guidetolerance="10"
     inkscape:pageopacity="0"
     inkscape:pageshadow="2"
     inkscape:window-width="640"
     inkscape:window-height="480"
     id="namedview37"
     showgrid="false"
     inkscape:snap-bbox="true"
     inkscape:bbox-paths="false"
     inkscape:bbox-nodes="true"
     inkscape:zoom="1"
     inkscape:cx="30.062573"
     inkscape:cy="27.591855"
     inkscape:current-layer="svg2">
    <inkscape:grid
       type="xygrid"
       id="grid4226" />
  </sodipodi:namedview>
  <defs
     id="defs4">
    <linearGradient
       id="a"
       y1="61"
       y2="3"
       x2="0"
       gradientUnits="userSpaceOnUse"
       gradientTransform="matrix(1 0 0-1 0 64)">
      <stop
         stop-color="#26c281"
         id="stop7" />
      <stop
         offset="1"
         stop-color="#3fc380"
         id="stop9" />
    </linearGradient>
    <linearGradient
       id="b"
       y1="61"
       y2="47"
       x2="0"
       gradientUnits="userSpaceOnUse"
       gradientTransform="matrix(1 0 0-1 0 64)">
      <stop
         stop-color="#036b53"
         id="stop12" />
      <stop
         offset="1"
         stop-color="#036b53"
         id="stop14" />
    </linearGradient>
    <linearGradient
       id="c"
       y1="17"
       x1="40"
       y2="31"
       x2="54"
       gradientUnits="userSpaceOnUse">
      <stop
         stop-color="#383e51"
         id="stop17" />
      <stop
         offset="1"
         stop-color="#655c6f"
         stop-opacity="0"
         id="stop19" />
    </linearGradient>
    <linearGradient
       gradientTransform="translate(-45.675,-337.95)"
       x2="0"
       gradientUnits="userSpaceOnUse"
       y2="336.36"
       y1="392.36"
       id="a-3">
      <stop
         id="stop4172"
         stop-opacity="0"
         stop-color="#ffffff" />
      <stop
         id="stop4174"
         stop-opacity=".2"
         stop-color="#ffffff"
         offset="1" />
    </linearGradient>
    <linearGradient
       gradientTransform="translate(0,-0.005)"
       x2="54"
       gradientUnits="userSpaceOnUse"
       y2="31"
       x1="40"
       y1="17"
       id="b-6">
      <stop
         id="stop4177"
         stop-color="#060606" />
      <stop
         id="stop4179"
         stop-opacity="0"
         offset="1" />
    </linearGradient>
    <path
       d="m12.325 55.42v-58h30l14 14v44h-14z"
       id="c-7" />
    <linearGradient
       inkscape:collect="always"
       xlink:href="#linearGradient6251"
       id="linearGradient7808"
       gradientUnits="userSpaceOnUse"
       gradientTransform="translate(-48,-332.36218)"
       x1="58"
       y1="392.36221"
       x2="58"
       y2="336.36221" />
    <linearGradient
       inkscape:collect="always"
       id="linearGradient6251">
      <stop
         style="stop-color:#ffffff;stop-opacity:0"
         offset="0"
         id="stop6253" />
      <stop
         style="stop-color:#ffffff;stop-opacity:0.2"
         offset="1"
         id="stop6255" />
    </linearGradient>
    <linearGradient
       inkscape:collect="always"
       xlink:href="#linearGradient9654"
       id="linearGradient7802"
       gradientUnits="userSpaceOnUse"
       gradientTransform="translate(0,1.9073486e-5)"
       x1="40"
       y1="17"
       x2="54"
       y2="31" />
    <linearGradient
       inkscape:collect="always"
       id="linearGradient9654">
      <stop
         style="stop-color:#060606;stop-opacity:1"
         offset="0"
         id="stop9656" />
      <stop
         style="stop-color:#000000;stop-opacity:0"
         offset="1"
         id="stop9658" />
    </linearGradient>
  </defs>
  <g
     id="g4204">
    <path
       inkscape:export-ydpi="96"
       inkscape:export-xdpi="96"
       d="m 10,61.000019 0,-57.9999999 30,0 14,13.9999999 0,30 0,14 -14,0 -30,0 z"
       id="path7156"
       style="fill:#2cbd2c;fill-opacity:1"
       inkscape:connector-curvature="0" />
    <rect
       inkscape:export-ydpi="96"
       inkscape:export-xdpi="96"
       transform="scale(1,-1)"
       id="rect7158"
       style="color:#000000;clip-rule:nonzero;display:inline;overflow:visible;visibility:visible;opacity:0.5;isolation:auto;mix-blend-mode:normal;color-interpolation:sRGB;color-interpolation-filters:linearRGB;solid-color:#000000;solid-opacity:1;fill:#ffffff;fill-opacity:1;fill-rule:nonzero;stroke-width:1;stroke-linecap:butt;stroke-linejoin:miter;stroke-miterlimit:4;stroke-dasharray:none;stroke-dashoffset:0;stroke-opacity:1;color-rendering:auto;image-rendering:auto;shape-rendering:auto;text-rendering:auto;enable-background:accumulate"
       height="1"
       y="-4.0000029"
       x="10"
       width="30" />
    <rect
       inkscape:export-ydpi="96"
       inkscape:export-xdpi="96"
       transform="scale(1,-1)"
       id="rect7160"
       style="color:#000000;clip-rule:nonzero;display:inline;overflow:visible;visibility:visible;opacity:0.25;isolation:auto;mix-blend-mode:normal;color-interpolation:sRGB;color-interpolation-filters:linearRGB;solid-color:#000000;solid-opacity:1;fill:#000000;fill-opacity:1;fill-rule:nonzero;stroke-width:1;stroke-linecap:butt;stroke-linejoin:miter;stroke-miterlimit:4;stroke-dasharray:none;stroke-dashoffset:0;stroke-opacity:1;color-rendering:auto;image-rendering:auto;shape-rendering:auto;text-rendering:auto;enable-background:accumulate"
       height="1"
       y="-61"
       x="10"
       width="44" />
    <path
       inkscape:export-ydpi="96"
       inkscape:export-xdpi="96"
       d="M 54,17.000019 40,3.0000191 40,17.000019 Z"
       id="path7162"
       style="opacity:0.6;fill:#000000;fill-opacity:1;fill-rule:evenodd"
       inkscape:connector-curvature="0" />
    <path
       inkscape:export-ydpi="96"
       inkscape:export-xdpi="96"
       d="m 40,17.000019 14,14 0,-14 z"
       id="path7514"
       style="opacity:0.2;fill:url(#linearGradient7802);fill-rule:evenodd"
       inkscape:connector-curvature="0" />
    <path
       inkscape:export-ydpi="96"
       inkscape:export-xdpi="96"
       inkscape:connector-curvature="0"
       style="fill:url(#linearGradient7808);fill-opacity:1"
       id="path7520"
       d="m 10,61.000019 0,-57.9999999 30,0 14,13.9999999 0,30 0,14 -14,0 -30,0 z" />
    <path
       style="color:#000000;clip-rule:nonzero;display:inline;overflow:visible;visibility:visible;opacity:0.7;isolation:auto;mix-blend-mode:normal;color-interpolation:sRGB;color-interpolation-filters:linearRGB;solid-color:#000000;solid-opacity:1;fill:#000000;fill-opacity:1;fill-rule:nonzero;stroke-width:2;stroke-linecap:square;stroke-linejoin:miter;stroke-miterlimit:4;stroke-dasharray:none;stroke-dashoffset:0;stroke-opacity:1;color-rendering:auto;image-rendering:auto;shape-rendering:auto;text-rendering:auto;enable-background:accumulate;filter-blend-mode:normal;filter-gaussianBlur-deviation:0"
       id="path35"
       d="m 23.759807,38.57941 c -0.251708,0.452199 -0.452199,1.132943 -0.452199,1.561721 0,0.0996 0,0.226228 0.02471,0.401755 L 20.18468,35.130394 c -0.100889,-0.175526 -0.175784,-0.427749 -0.175784,-0.654749 0,-0.227258 0.07515,-0.503673 0.175784,-0.679714 l 1.511019,-2.643962 -1.686803,-0.95613 5.489188,-0.101661 2.668669,4.809216 -1.711768,-0.981866 -2.695436,4.658397 m 2.417734,-15.259468 c 0.477936,-0.83182 1.259312,-1.285048 2.215441,-1.285048 1.032054,0 1.839166,0.478965 2.417734,1.459802 l 0.856527,1.435096 -2.971851,5.13762 -4.809216,-2.795039 2.291365,-3.952431 m 0.351568,19.614168 c -1.435096,0 -2.618225,-1.183387 -2.618225,-2.618482 0,-0.403042 0.176813,-1.083271 0.428521,-1.51102 l 0.804796,-1.435095 5.96841,0 0,5.564854 -4.584017,0 m 4.78528,-19.766016 c -0.377304,-0.653719 -0.880977,-1.108235 -1.485539,-1.3602 l 6.194895,0 c 0.554118,0 0.98161,0.227258 1.234347,0.655779 l 1.535727,2.618482 1.661323,-0.982896 -2.669699,4.78528 -5.463965,-0.07695 1.686803,-0.95613 -2.694407,-4.684134 m 9.54328,14.250577 c 0.754609,0 1.384651,-0.201521 1.913031,-0.603533 l -3.122927,5.438229 c -0.251708,0.427748 -0.704165,0.679714 -1.232803,0.679714 l -2.946886,0 0,1.938511 -2.819746,-4.70807 2.819746,-4.709613 0,1.964762 5.389842,0 m 2.415675,-4.532543 c 0.227258,0.403041 0.353627,0.830533 0.353627,1.284019 0,0.906714 -0.579855,1.863616 -1.384651,2.31633 -0.378334,0.20255 -0.907744,0.328919 -1.435095,0.328919 l -1.663382,0 -2.97005,-5.13762 4.809216,-2.744851 2.290335,3.953203"
       inkscape:connector-curvature="0" />
  </g>
</svg>
