<?xml version="1.0" encoding="UTF-8" standalone="no"?>
<svg
   xmlns:dc="http://purl.org/dc/elements/1.1/"
   xmlns:cc="http://creativecommons.org/ns#"
   xmlns:rdf="http://www.w3.org/1999/02/22-rdf-syntax-ns#"
   xmlns:svg="http://www.w3.org/2000/svg"
   xmlns="http://www.w3.org/2000/svg"
   xmlns:xlink="http://www.w3.org/1999/xlink"
   xmlns:sodipodi="http://sodipodi.sourceforge.net/DTD/sodipodi-0.dtd"
   xmlns:inkscape="http://www.inkscape.org/namespaces/inkscape"
   width="64"
   viewBox="0 0 64 64"
   height="64"
   id="svg2"
   version="1.1"
   inkscape:version="0.91 r13725"
   sodipodi:docname="application-vnd.ms-access.svg">
  <metadata
     id="metadata39">
    <rdf:RDF>
      <cc:Work
         rdf:about="">
        <dc:format>image/svg+xml</dc:format>
        <dc:type
           rdf:resource="http://purl.org/dc/dcmitype/StillImage" />
      </cc:Work>
    </rdf:RDF>
  </metadata>
  <sodipodi:namedview
     pagecolor="#ffffff"
     bordercolor="#666666"
     borderopacity="1"
     objecttolerance="10"
     gridtolerance="10"
     guidetolerance="10"
     inkscape:pageopacity="0"
     inkscape:pageshadow="2"
     inkscape:window-width="640"
     inkscape:window-height="480"
     id="namedview37"
     showgrid="false"
     inkscape:snap-bbox="true"
     inkscape:bbox-nodes="true"
     inkscape:zoom="1"
     inkscape:cx="41.454301"
     inkscape:cy="31.495086"
     inkscape:current-layer="svg2">
    <inkscape:grid
       type="xygrid"
       id="grid4219" />
  </sodipodi:namedview>
  <defs
     id="defs4">
    <linearGradient
       id="a"
       y1="61"
       y2="3"
       x2="0"
       gradientUnits="userSpaceOnUse"
       gradientTransform="matrix(1,0,0,-1,0,64)">
      <stop
         stop-color="#e3200d"
         id="stop7" />
      <stop
         offset="1"
         stop-color="#f22613"
         id="stop9" />
    </linearGradient>
    <linearGradient
       id="b"
       y1="61"
       y2="47"
       x2="0"
       gradientUnits="userSpaceOnUse"
       gradientTransform="matrix(1 0 0-1 0 64)">
      <stop
         stop-color="#f87e72"
         id="stop12" />
      <stop
         offset="1"
         stop-color="#fbaea7"
         id="stop14" />
    </linearGradient>
    <linearGradient
       id="c"
       y1="17"
       x1="40"
       y2="31"
       x2="54"
       gradientUnits="userSpaceOnUse">
      <stop
         stop-color="#383e51"
         id="stop17" />
      <stop
         offset="1"
         stop-color="#655c6f"
         stop-opacity="0"
         id="stop19" />
    </linearGradient>
    <linearGradient
       gradientTransform="matrix(1 0 0-1 0 64)"
       gradientUnits="userSpaceOnUse"
       x2="0"
       y2="61"
       y1="3"
       id="a-35">
      <stop
         id="stop7-6"
         stop-color="#f39c12" />
      <stop
         id="stop9-2"
         stop-color="#f89406"
         offset="1" />
    </linearGradient>
    <linearGradient
       gradientTransform="matrix(1 0 0-1 0 64)"
       gradientUnits="userSpaceOnUse"
       x2="0"
       y2="47"
       y1="61"
       id="b-9">
      <stop
         id="stop12-1"
         stop-color="#fddda3" />
      <stop
         id="stop14-2"
         stop-color="#fde3a7"
         offset="1" />
    </linearGradient>
    <linearGradient
       id="a-3"
       y1="17"
       x1="40"
       y2="31"
       gradientUnits="userSpaceOnUse"
       x2="54">
      <stop
         stop-color="#060606"
         id="stop4172" />
      <stop
         offset="1"
         stop-opacity="0"
         id="stop4174" />
    </linearGradient>
    <linearGradient
       id="b-6"
       y1="392.36"
       y2="336.36"
       gradientUnits="userSpaceOnUse"
       x2="0"
       gradientTransform="translate(254,-36)">
      <stop
         stop-color="#ffffff"
         stop-opacity="0"
         id="stop4177" />
      <stop
         offset="1"
         stop-color="#ffffff"
         stop-opacity=".2"
         id="stop4179" />
    </linearGradient>
    <path
       id="c-7"
       d="m312 357.36v-58h30l14 14v44h-14z" />
  </defs>
  <g
     id="g4245">
    <use
       id="use4186"
       xlink:href="#c-7"
       style="color:#000000;color-interpolation:sRGB;color-interpolation-filters:linearRGB;fill:#f12613;fill-opacity:1;color-rendering:auto;image-rendering:auto;shape-rendering:auto;text-rendering:auto"
       x="0"
       y="0"
       width="100%"
       height="100%"
       transform="translate(-302,-296.36)" />
    <rect
       transform="scale(1,-1)"
       style="color:#000000;opacity:0.5;color-interpolation:sRGB;color-interpolation-filters:linearRGB;fill:#ffffff;color-rendering:auto;image-rendering:auto;shape-rendering:auto;text-rendering:auto"
       x="10"
       y="-3.9999855"
       width="30"
       height="1"
       id="rect4190" />
    <rect
       transform="scale(1,-1)"
       style="color:#000000;opacity:0.25;color-interpolation:sRGB;color-interpolation-filters:linearRGB;color-rendering:auto;image-rendering:auto;shape-rendering:auto;text-rendering:auto"
       x="10"
       y="-60.999985"
       width="44"
       height="1"
       id="rect4192" />
    <path
       id="path4196"
       d="M 54,17 40,3 40,17 Z"
       inkscape:connector-curvature="0"
       style="opacity:0.5;fill:#ffffff;fill-rule:evenodd" />
    <path
       style="opacity:0.1;fill:url(#a-3);fill-rule:evenodd"
       id="path4198"
       d="M 40,17 54,31 54,17 Z"
       inkscape:connector-curvature="0" />
    <use
       height="100%"
       width="100%"
       y="0"
       x="0"
       xlink:href="#c-7"
       id="use4202"
       style="fill:url(#b-6)"
       transform="translate(-302,-296.36)" />
    <path
       style="color:#4d4d4d;clip-rule:nonzero;display:inline;overflow:visible;visibility:visible;opacity:0.9;isolation:auto;mix-blend-mode:normal;color-interpolation:sRGB;color-interpolation-filters:linearRGB;solid-color:#000000;solid-opacity:1;fill:#ffffff;fill-opacity:1;fill-rule:evenodd;stroke-width:1;stroke-linecap:butt;stroke-linejoin:miter;stroke-miterlimit:4;stroke-dasharray:none;stroke-dashoffset:0;stroke-opacity:1;filter-blend-mode:normal;filter-gaussianBlur-deviation:0;color-rendering:auto;image-rendering:auto;shape-rendering:auto;text-rendering:auto;enable-background:accumulate"
       id="path35"
       d="m32 22a11 3 0 0 0 -11 3v16a11 3 0 0 0 11 3 11 3 0 0 0 11 -3v-16A11 3 0 0 0 32 22m0 1A10 2 0 0 1 42 25 10 2 0 0 1 32 27 10 2 0 0 1 22 25 10 2 0 0 1 32 23M22 26.24219A11 3 0 0 0 32 28 11 3 0 0 0 42 26.24219V30A10 2 0 0 1 32 32 10 2 0 0 1 22 30zm0 5A11 3 0 0 0 32 33 11 3 0 0 0 42 31.24219V36A10 2 0 0 1 32 38 10 2 0 0 1 22 36zm0 6A11 3 0 0 0 32 39 11 3 0 0 0 42 37.24219V41A10 2 0 0 1 32 43 10 2 0 0 1 22 41v-1z"
       fill="#ffffff"
       opacity=".75" />
  </g>
</svg>
