<?xml version="1.0" encoding="UTF-8" standalone="no"?>
<svg
   xmlns:dc="http://purl.org/dc/elements/1.1/"
   xmlns:cc="http://creativecommons.org/ns#"
   xmlns:rdf="http://www.w3.org/1999/02/22-rdf-syntax-ns#"
   xmlns:svg="http://www.w3.org/2000/svg"
   xmlns="http://www.w3.org/2000/svg"
   xmlns:xlink="http://www.w3.org/1999/xlink"
   xmlns:sodipodi="http://sodipodi.sourceforge.net/DTD/sodipodi-0.dtd"
   xmlns:inkscape="http://www.inkscape.org/namespaces/inkscape"
   width="64"
   viewBox="0 0 64 64"
   height="64"
   id="svg2"
   version="1.1"
   inkscape:version="0.91 r13725"
   sodipodi:docname="application-x-ms-shortcut.svg">
  <metadata
     id="metadata39">
    <rdf:RDF>
      <cc:Work
         rdf:about="">
        <dc:format>image/svg+xml</dc:format>
        <dc:type
           rdf:resource="http://purl.org/dc/dcmitype/StillImage" />
      </cc:Work>
    </rdf:RDF>
  </metadata>
  <sodipodi:namedview
     pagecolor="#ffffff"
     bordercolor="#666666"
     borderopacity="1"
     objecttolerance="10"
     gridtolerance="10"
     guidetolerance="10"
     inkscape:pageopacity="0"
     inkscape:pageshadow="2"
     inkscape:window-width="640"
     inkscape:window-height="480"
     id="namedview37"
     showgrid="false"
     inkscape:snap-bbox="true"
     inkscape:bbox-nodes="true"
     inkscape:zoom="1"
     inkscape:cx="19.166409"
     inkscape:cy="27.759527"
     inkscape:current-layer="svg2">
    <inkscape:grid
       type="xygrid"
       id="grid4228" />
  </sodipodi:namedview>
  <defs
     id="defs4">
    <linearGradient
       id="a"
       y1="61"
       y2="3"
       x2="0"
       gradientUnits="userSpaceOnUse"
       gradientTransform="matrix(1 0 0-1 0 64)">
      <stop
         stop-color="#f27935"
         id="stop7" />
      <stop
         offset="1"
         stop-color="#f2784b"
         id="stop9" />
    </linearGradient>
    <linearGradient
       id="b"
       y1="61"
       y2="47"
       x2="0"
       gradientUnits="userSpaceOnUse"
       gradientTransform="matrix(1 0 0-1 0 64)">
      <stop
         stop-color="#f7ab89"
         id="stop12" />
      <stop
         offset="1"
         stop-color="#fbd2bf"
         id="stop14" />
    </linearGradient>
    <linearGradient
       id="c"
       y1="17"
       x1="40"
       y2="31"
       x2="54"
       gradientUnits="userSpaceOnUse">
      <stop
         stop-color="#383e51"
         id="stop17" />
      <stop
         offset="1"
         stop-color="#655c6f"
         stop-opacity="0"
         id="stop19" />
    </linearGradient>
    <linearGradient
       x2="54"
       gradientUnits="userSpaceOnUse"
       y2="31"
       x1="40"
       y1="17"
       id="a-3">
      <stop
         id="stop4172"
         stop-color="#060606" />
      <stop
         id="stop4174"
         stop-opacity="0"
         offset="1" />
    </linearGradient>
    <linearGradient
       gradientTransform="translate(-48,-332.36)"
       x2="0"
       gradientUnits="userSpaceOnUse"
       y2="336.36"
       y1="392.36"
       id="b-6">
      <stop
         id="stop4177"
         stop-opacity="0"
         stop-color="#ffffff" />
      <stop
         id="stop4179"
         stop-opacity=".2"
         stop-color="#ffffff"
         offset="1" />
    </linearGradient>
    <path
       d="m10 61v-58h30l14 14v44h-14z"
       id="c-7" />
  </defs>
  <g
     id="g4212">
    <use
       height="100%"
       width="100%"
       y="0"
       x="0"
       style="color:#000000;color-interpolation:sRGB;color-interpolation-filters:linearRGB;fill:#555555;color-rendering:auto;image-rendering:auto;shape-rendering:auto;text-rendering:auto"
       xlink:href="#c-7"
       id="use4184" />
    <g
       transform="scale(1,-1)"
       id="g4186"
       style="color:#000000;color-interpolation:sRGB;color-interpolation-filters:linearRGB;color-rendering:auto;image-rendering:auto;shape-rendering:auto;text-rendering:auto">
      <rect
         style="opacity:0.4;fill:#ffffff"
         x="10"
         y="-4"
         width="30"
         height="1"
         id="rect4188" />
      <rect
         style="opacity:0.35"
         x="10"
         y="-61"
         width="44"
         height="1"
         id="rect4190" />
    </g>
    <path
       style="color:#000000;opacity:0.5;color-interpolation:sRGB;color-interpolation-filters:linearRGB;fill:#ffffff;fill-rule:evenodd;color-rendering:auto;image-rendering:auto;shape-rendering:auto;text-rendering:auto"
       inkscape:connector-curvature="0"
       d="M 54,17 40,3 40,17 Z"
       id="path4192" />
    <path
       style="opacity:0.4;fill:url(#a-3);fill-rule:evenodd"
       id="path4194"
       d="M 40,17 54,31 54,17 Z"
       inkscape:connector-curvature="0" />
    <path
       style="color:#000000;clip-rule:nonzero;display:inline;overflow:visible;visibility:visible;opacity:0.6;isolation:auto;mix-blend-mode:normal;color-interpolation:sRGB;color-interpolation-filters:linearRGB;solid-color:#000000;solid-opacity:1;fill:#ffffff;fill-opacity:1;fill-rule:nonzero;stroke-width:1;stroke-linecap:butt;stroke-linejoin:miter;stroke-miterlimit:4;stroke-dasharray:none;stroke-dashoffset:0;stroke-opacity:1;color-rendering:auto;image-rendering:auto;shape-rendering:auto;text-rendering:auto;enable-background:accumulate"
       id="path35"
       d="m 23,26 a 2,2 0 0 1 -2,2 l 0,10 a 2,2 0 0 1 2,2 l 18,0 a 2,2 0 0 1 2,-2 l 0,-10 a 2,2 0 0 1 -2,-2 l -17,0 z m 0.826,1 16.35,0 A 3,3 0 0 0 42,28.826172 l 0,8.35 A 3,3 0 0 0 40.17383,39 L 23.824,39 A 3,3 0 0 0 22,37.17383 l 0,-8.35 A 3,3 0 0 0 23.826172,27 M 32,29 a 4,4 0 0 0 -4,4 4,4 0 0 0 4,4 4,4 0 0 0 4,-4 4,4 0 0 0 -4,-4 m 0,1 a 3,3 0 0 1 3,3 3,3 0 0 1 -3,3 3,3 0 0 1 -3,-3 3,3 0 0 1 3,-3"
       inkscape:connector-curvature="0" />
    <use
       style="fill:url(#b-6)"
       id="use4202"
       xlink:href="#c-7"
       x="0"
       y="0"
       width="100%"
       height="100%" />
  </g>
</svg>
