<?xml version="1.0" encoding="UTF-8" standalone="no"?>
<svg
   xmlns:dc="http://purl.org/dc/elements/1.1/"
   xmlns:cc="http://creativecommons.org/ns#"
   xmlns:rdf="http://www.w3.org/1999/02/22-rdf-syntax-ns#"
   xmlns:svg="http://www.w3.org/2000/svg"
   xmlns="http://www.w3.org/2000/svg"
   xmlns:xlink="http://www.w3.org/1999/xlink"
   xmlns:sodipodi="http://sodipodi.sourceforge.net/DTD/sodipodi-0.dtd"
   xmlns:inkscape="http://www.inkscape.org/namespaces/inkscape"
   width="64"
   viewBox="0 0 64 64"
   height="64"
   id="svg2"
   version="1.1"
   inkscape:version="0.91 r13725"
   sodipodi:docname="image-x-adobe-dng.svg">
  <metadata
     id="metadata27">
    <rdf:RDF>
      <cc:Work
         rdf:about="">
        <dc:format>image/svg+xml</dc:format>
        <dc:type
           rdf:resource="http://purl.org/dc/dcmitype/StillImage" />
      </cc:Work>
    </rdf:RDF>
  </metadata>
  <sodipodi:namedview
     pagecolor="#ffffff"
     bordercolor="#666666"
     borderopacity="1"
     objecttolerance="10"
     gridtolerance="10"
     guidetolerance="10"
     inkscape:pageopacity="0"
     inkscape:pageshadow="2"
     inkscape:window-width="640"
     inkscape:window-height="480"
     id="namedview25"
     showgrid="false"
     inkscape:snap-bbox="true"
     inkscape:bbox-nodes="true"
     inkscape:zoom="5.6568542"
     inkscape:cx="26.419413"
     inkscape:cy="21.904678"
     inkscape:current-layer="svg2">
    <inkscape:grid
       type="xygrid"
       id="grid4196" />
  </sodipodi:namedview>
  <defs
     id="defs4">
    <linearGradient
       id="a"
       y1="57"
       y2="7"
       x2="0"
       gradientUnits="userSpaceOnUse">
      <stop
         stop-color="#22a7f0"
         id="stop7" />
      <stop
         offset="1"
         stop-color="#19b5fe"
         id="stop9" />
    </linearGradient>
    <linearGradient
       gradientUnits="userSpaceOnUse"
       x2="0"
       y2="7"
       y1="57"
       id="a-35">
      <stop
         id="stop7-6"
         stop-color="#22a7f0" />
      <stop
         id="stop9-2"
         stop-color="#19b5fe"
         offset="1" />
    </linearGradient>
    <linearGradient
       id="a-3"
       y1="17"
       x1="40"
       y2="31"
       gradientUnits="userSpaceOnUse"
       x2="54"
       gradientTransform="translate(6,8)">
      <stop
         stop-color="#060606"
         id="stop4160" />
      <stop
         offset="1"
         stop-opacity="0"
         id="stop4162" />
    </linearGradient>
    <linearGradient
       id="b"
       y1="392.36"
       y2="320.48"
       gradientUnits="userSpaceOnUse"
       x2="0"
       gradientTransform="matrix(1,0,0,0.84587,11,536.63)">
      <stop
         stop-color="#ffffff"
         stop-opacity="0"
         id="stop4165" />
      <stop
         offset="1"
         stop-color="#ffffff"
         stop-opacity=".2"
         id="stop4167" />
    </linearGradient>
    <path
       color-rendering="auto"
       color-interpolation-filters="linearRGB"
       shape-rendering="auto"
       image-rendering="auto"
       text-rendering="auto"
       id="c"
       color-interpolation="sRGB"
       color="#000000"
       d="m49 870.36v-50h42l14 14v36h-14z" />
  </defs>
  <use
     transform="translate(-45,-809.36)"
     id="use4172"
     xlink:href="#c"
     style="fill:#208ff3;fill-opacity:1"
     x="0"
     y="0"
     width="100%"
     height="100%" />
  <rect
     style="color:#000000;opacity:0.25;color-interpolation:sRGB;color-interpolation-filters:linearRGB;color-rendering:auto;image-rendering:auto;shape-rendering:auto;text-rendering:auto"
     x="4"
     y="59.999985"
     width="56"
     height="1"
     id="rect4176" />
  <rect
     style="color:#000000;opacity:0.5;color-interpolation:sRGB;color-interpolation-filters:linearRGB;fill:#ffffff;color-rendering:auto;image-rendering:auto;shape-rendering:auto;text-rendering:auto"
     x="4"
     y="10.999986"
     width="42"
     height="1"
     id="rect4178" />
  <path
     style="opacity:0.5;fill:#000000;fill-rule:evenodd;fill-opacity:1"
     inkscape:connector-curvature="0"
     d="M 60,25 46,11 46,25 Z"
     id="path4182" />
  <path
     inkscape:connector-curvature="0"
     d="M 46,25 60,39 60,25 Z"
     id="path4184"
     style="opacity:0.2;fill:url(#a-3);fill-rule:evenodd" />
  <path
     d="m 28,25 0,4 4,0 0,-4 z m 1,1 2,0 0,2 -2,0 z m -1.664,1.258 -1.932,0.518 0.26,0.967 1.932,-0.518 z m -3,1 -1.932,0.518 0.26,0.967 1.932,-0.518 z m 8.664,0.275 0,1.035 6.143,1.645 -6.143,1.754 0,14.03 0.029,0 L 41,44.72 41,30.66 Z m -12,0.4668 a 1,1 0 0 0 -1,1 1,1 0 0 0 1,1 1,1 0 0 0 1,-1 1,1 0 0 0 -1,-1 m -2,2 0,14 12,2 0,-14 z m 21,1.01 0,11.303 -6,-1.609 0,-7.979 z m -6,10.729 5.322,1.426 -5.322,1.52 z"
     id="path23"
     style="color:#000000;clip-rule:nonzero;display:inline;overflow:visible;visibility:visible;opacity:0.5;isolation:auto;mix-blend-mode:normal;color-interpolation:sRGB;color-interpolation-filters:linearRGB;solid-color:#000000;solid-opacity:1;fill:#000000;fill-opacity:1;fill-rule:nonzero;stroke-width:2;stroke-linecap:butt;stroke-linejoin:miter;stroke-miterlimit:4;stroke-dasharray:none;stroke-dashoffset:0;stroke-opacity:1;color-rendering:auto;image-rendering:auto;shape-rendering:auto;text-rendering:auto;enable-background:accumulate"
     inkscape:connector-curvature="0" />
  <use
     transform="translate(-45,-809.36)"
     id="use4188"
     xlink:href="#c"
     style="fill:url(#b)"
     x="0"
     y="0"
     width="100%"
     height="100%" />
</svg>
