<?xml version="1.0" encoding="UTF-8" standalone="no"?>
<svg
   xmlns:dc="http://purl.org/dc/elements/1.1/"
   xmlns:cc="http://creativecommons.org/ns#"
   xmlns:rdf="http://www.w3.org/1999/02/22-rdf-syntax-ns#"
   xmlns:svg="http://www.w3.org/2000/svg"
   xmlns="http://www.w3.org/2000/svg"
   xmlns:xlink="http://www.w3.org/1999/xlink"
   xmlns:sodipodi="http://sodipodi.sourceforge.net/DTD/sodipodi-0.dtd"
   xmlns:inkscape="http://www.inkscape.org/namespaces/inkscape"
   width="64"
   viewBox="0 0 64 64"
   height="64"
   id="svg2"
   version="1.1"
   inkscape:version="0.91 r13725"
   sodipodi:docname="text-x-patch.svg">
  <metadata
     id="metadata39">
    <rdf:RDF>
      <cc:Work
         rdf:about="">
        <dc:format>image/svg+xml</dc:format>
        <dc:type
           rdf:resource="http://purl.org/dc/dcmitype/StillImage" />
      </cc:Work>
    </rdf:RDF>
  </metadata>
  <sodipodi:namedview
     pagecolor="#ffffff"
     bordercolor="#666666"
     borderopacity="1"
     objecttolerance="10"
     gridtolerance="10"
     guidetolerance="10"
     inkscape:pageopacity="0"
     inkscape:pageshadow="2"
     inkscape:window-width="640"
     inkscape:window-height="480"
     id="namedview37"
     showgrid="false"
     inkscape:snap-bbox="true"
     inkscape:bbox-nodes="true"
     inkscape:zoom="1"
     inkscape:cx="102.24807"
     inkscape:cy="22.302066"
     inkscape:current-layer="svg2">
    <inkscape:grid
       type="xygrid"
       id="grid4222" />
  </sodipodi:namedview>
  <defs
     id="defs4">
    <linearGradient
       id="a"
       y1="3"
       y2="61"
       x2="0"
       gradientUnits="userSpaceOnUse"
       gradientTransform="matrix(1 0 0-1 0 64)">
      <stop
         stop-color="#5e6b78"
         id="stop7" />
      <stop
         offset="1"
         stop-color="#768492"
         id="stop9" />
    </linearGradient>
    <linearGradient
       id="b"
       y1="61"
       y2="47"
       x2="0"
       gradientUnits="userSpaceOnUse"
       gradientTransform="matrix(1 0 0-1 0 64)">
      <stop
         stop-color="#dedede"
         id="stop12" />
      <stop
         offset="1"
         stop-color="#fbfbfb"
         id="stop14" />
    </linearGradient>
    <linearGradient
       id="c"
       y1="17"
       x1="40"
       y2="31"
       x2="54"
       gradientUnits="userSpaceOnUse">
      <stop
         stop-color="#383e51"
         id="stop17" />
      <stop
         offset="1"
         stop-color="#655c6f"
         stop-opacity="0"
         id="stop19" />
    </linearGradient>
    <linearGradient
       gradientUnits="userSpaceOnUse"
       x2="54"
       x1="40"
       y2="31"
       y1="17"
       id="a-3">
      <stop
         id="stop4172"
         stop-color="#060606" />
      <stop
         id="stop4174"
         stop-opacity="0"
         offset="1" />
    </linearGradient>
    <linearGradient
       gradientTransform="translate(-48,-332.36)"
       gradientUnits="userSpaceOnUse"
       x2="0"
       y2="336.36"
       y1="392.36"
       id="b-6">
      <stop
         id="stop4177"
         stop-opacity="0"
         stop-color="#ffffff" />
      <stop
         id="stop4179"
         stop-opacity=".15"
         stop-color="#ffffff"
         offset="1" />
    </linearGradient>
    <path
       d="m10 61v-58h30l14 14v44h-14z"
       id="c-7" />
  </defs>
  <use
     height="100%"
     width="100%"
     y="0"
     x="0"
     style="fill:#5f6c79;fill-opacity:1"
     xlink:href="#c-7"
     id="use4182" />
  <rect
     id="rect4186"
     height="1"
     width="30"
     y="-4"
     x="10"
     style="color:#000000;opacity:0.4;color-interpolation:sRGB;color-interpolation-filters:linearRGB;fill:#ffffff;color-rendering:auto;image-rendering:auto;shape-rendering:auto;text-rendering:auto"
     transform="scale(1,-1)" />
  <rect
     id="rect4188"
     height="1"
     width="44"
     y="-61"
     x="10"
     style="color:#000000;opacity:0.35;color-interpolation:sRGB;color-interpolation-filters:linearRGB;color-rendering:auto;image-rendering:auto;shape-rendering:auto;text-rendering:auto"
     transform="scale(1,-1)" />
  <path
     id="path4192"
     d="M 54,17 40,3 40,17 Z"
     inkscape:connector-curvature="0"
     style="opacity:0.5;fill:#ffffff;fill-rule:evenodd" />
  <path
     style="opacity:0.3;fill:url(#a-3);fill-rule:evenodd"
     id="path4194"
     d="M 40,17 54,31 54,17 Z"
     inkscape:connector-curvature="0" />
  <path
     d="m 26,22 c -1.104569,0 -2,0.895431 -2,2 0.0013,0.713268 0.38229,1.371883 1,1.728516 l 0,14.541 C 24.381682,40.626502 24.000559,41.286029 24,42 c 0,1.104569 0.895431,2 2,2 1.104569,0 2,-0.895431 2,-2 -0.0013,-0.713268 -0.38229,-1.371883 -1,-1.728516 L 27,25.73 c 0.618168,-0.356899 0.999268,-1.016202 1,-1.73 0,-1.104569 -0.895431,-2 -2,-2 m 2,2 3,2.1 0,-1.1 4,0 c 1.108,0 2,0.892 2,2 l 0,13.27 c -0.618168,0.356899 -0.999268,1.016202 -1,1.73 0,1.104569 0.895431,2 2,2 1.104569,0 2,-0.895431 2,-2 -0.0013,-0.713268 -0.38229,-1.371883 -1,-1.728516 L 39,26 c 0,-1.662 -1.338,-2.967 -3,-3 l -5,0 0,-1 z m -2,-1 c 0.552285,0 1,0.447715 1,1 0,0.552285 -0.447715,1 -1,1 -0.552285,0 -1,-0.447715 -1,-1 0,-0.552285 0.447715,-1 1,-1 m 0,18 c 0.552285,0 1,0.447715 1,1 0,0.552285 -0.447715,1 -1,1 -0.552285,0 -1,-0.447715 -1,-1 0,-0.552285 0.447715,-1 1,-1 m 12,0 c 0.552285,0 1,0.447715 1,1 0,0.552285 -0.447715,1 -1,1 -0.552285,0 -1,-0.447715 -1,-1 0,-0.552285 0.447715,-1 1,-1"
     id="path35"
     inkscape:connector-curvature="0"
     style="color:#000000;clip-rule:nonzero;display:inline;overflow:visible;visibility:visible;opacity:0.75;isolation:auto;mix-blend-mode:normal;color-interpolation:sRGB;color-interpolation-filters:linearRGB;solid-color:#000000;solid-opacity:1;fill:#ffffff;fill-opacity:1;fill-rule:nonzero;stroke-width:1;stroke-linecap:butt;stroke-linejoin:miter;stroke-miterlimit:4;stroke-dasharray:none;stroke-dashoffset:0;stroke-opacity:1;color-rendering:auto;image-rendering:auto;shape-rendering:auto;text-rendering:auto;enable-background:accumulate"
     sodipodi:nodetypes="cccccsccccccccssccsccscccccsssccsssccsssc" />
  <use
     height="100%"
     width="100%"
     y="0"
     x="0"
     xlink:href="#c-7"
     id="use4198"
     style="fill:url(#b-6)" />
</svg>
