<svg xmlns="http://www.w3.org/2000/svg" viewBox="0 0 22 22">
 <g transform="translate(0-1030.3622)" style="fill:#da4453">
  <path d="m11 1033.3622c4.431966 0 8 3.568 8 8 0 1.4417-.382871 2.7893-1.044922 3.9551l-.738281-.7383c.497374-.9629.783203-2.0543.783203-3.2168 0-3.878-3.12203-7-7-7-1.162509 0-2.25389.2858-3.216797.7832l-.738281-.7383c1.165789-.662 2.513364-1.0449 3.955078-1.0449m-6.955078 4.0449l.738281.7383c-.497375.9629-.783203 2.0543-.783203 3.2168 0 3.878 3.12203 7 7 7 1.16251 0 2.25389-.2858 3.216797-.7832l.738281.7383c-1.165789.662-2.513364 1.0449-3.955078 1.0449-4.431966 0-8-3.568-8-8 0-1.4417.382871-2.7893 1.044922-3.9551"/>
  <path d="m7.4999 1040.36h7.0002v2h-7.0002z"/>
 </g>
</svg>
