<svg xmlns="http://www.w3.org/2000/svg" viewBox="0 0 22 22">
 <g transform="translate(-421.71429-525.79074)">
  <circle cx="432.71429" cy="536.79071" r="6" style="fill:#fff"/>
  <path d="m432.71429 528.79074a8 8.00001 0 0 0 -8 8 8 8.00001 0 0 0 8 8 8 8.00001 0 0 0 8 -8 8 8.00001 0 0 0 -8 -8m-3.29297 4l3.29297 3.29297 3.29297-3.29297.70703.70703-3.29297 3.29297 3.29297 3.29297-.70703.70703-3.29297-3.29297-3.29297 3.29297-.70703-.70703 3.29297-3.29297-3.29297-3.29297.70703-.70703" style="fill:#da4453"/>
 </g>
</svg>
