<?xml version="1.0" encoding="UTF-8" standalone="no"?>
<!-- Created with Inkscape (http://www.inkscape.org/) -->

<svg
   xmlns:dc="http://purl.org/dc/elements/1.1/"
   xmlns:cc="http://creativecommons.org/ns#"
   xmlns:rdf="http://www.w3.org/1999/02/22-rdf-syntax-ns#"
   xmlns:svg="http://www.w3.org/2000/svg"
   xmlns="http://www.w3.org/2000/svg"
   xmlns:sodipodi="http://sodipodi.sourceforge.net/DTD/sodipodi-0.dtd"
   xmlns:inkscape="http://www.inkscape.org/namespaces/inkscape"
   width="22"
   version="1.1"
   height="22"
   id="svg2"
   inkscape:version="0.91 r13725"
   sodipodi:docname="application-x-python-bytecode.svg">
  <sodipodi:namedview
     pagecolor="#ffffff"
     bordercolor="#666666"
     borderopacity="1"
     objecttolerance="10"
     gridtolerance="10"
     guidetolerance="10"
     inkscape:pageopacity="0"
     inkscape:pageshadow="2"
     inkscape:window-width="709"
     inkscape:window-height="480"
     id="namedview11"
     showgrid="false"
     inkscape:zoom="10.727273"
     inkscape:cx="11"
     inkscape:cy="11"
     inkscape:window-x="0"
     inkscape:window-y="0"
     inkscape:window-maximized="0"
     inkscape:current-layer="layer1" />
  <defs
     id="defs3871" />
  <metadata
     id="metadata3874">
    <rdf:RDF>
      <cc:Work
         rdf:about="">
        <dc:format>image/svg+xml</dc:format>
        <dc:type
           rdf:resource="http://purl.org/dc/dcmitype/StillImage" />
      </cc:Work>
    </rdf:RDF>
  </metadata>
  <g
     inkscape:label="Capa 1"
     inkscape:groupmode="layer"
     id="layer1"
     transform="matrix(1 0 0 1 -326 -534.3622)">
    <rect
       width="0"
       x="273.38181"
       y="518.47876"
       height="14.668059"
       style="fill:#04896a"
       id="rect4035" />
    <rect
       width="0"
       x="280.34238"
       y="541.04938"
       height="14.668059"
       style="fill:#16907d"
       id="rect4035-8" />
    <rect
       width="0"
       x="282.15567"
       y="539.98865"
       height="14.668059"
       style="fill:#6c7a89"
       id="rect4035-0" />
    <path
       inkscape:label="Capa 1"
       inkscape:connector-curvature="0"
       style="fill:#f59e16;fill-opacity:1"
       id="rect4145"
       d="M 7,2 C 5.8919904,2 5,2.8919904 5,4 L 8,4 8,5 5,5 4,5 C 2.892,5 2,5.892 2,7 l 0,2 c 0,1.108 0.892,2 2,2 L 4,10 C 4,9.111297 4.3898959,8.3237849 5,7.7753906 c 6.778e-4,-6.093e-4 0.00127,-0.00134 0.00195,-0.00195 0.1321461,-0.1185721 0.2745864,-0.2257373 0.4257813,-0.3203125 0.00123,-7.703e-4 0.00267,-0.00118 0.00391,-0.00195 C 5.58055,7.3583221 5.7375989,7.2789548 5.9023438,7.2128906 5.932011,7.2012513 5.9640151,7.194309 5.9941406,7.1835938 6.1341024,7.132672 6.2767096,7.0861344 6.4257812,7.0566406 6.6119891,7.0207317 6.8029991,7 7,7 l 1,0 3,0 0,-3 C 11,2.8919904 10.10801,2 9,2 L 7,2 Z M 7,2.5 C 7.2769999,2.5 7.5,2.7230001 7.5,3 7.5,3.2769999 7.2769999,3.5 7,3.5 6.7230001,3.5 6.5,3.2769999 6.5,3 6.5,2.7230001 6.7230001,2.5 7,2.5 Z m 5,2.5 0,1 c 0,0.888703 -0.391849,1.6781682 -1.001953,2.2265625 -0.132146,0.118577 -0.274587,0.2257355 -0.425781,0.3203125 -0.0012,7.612e-4 -0.0027,0.00119 -0.0039,0.00195 -0.148909,0.092852 -0.305958,0.1722172 -0.470703,0.2382813 -0.02967,0.011639 -0.06167,0.018582 -0.0918,0.029297 C 9.8658976,8.8673278 9.7232904,8.9138661 9.5742188,8.9433594 9.3880109,8.9792683 9.1970009,9 9,9 l -4,0 0,3 c 0,1.108 0.89199,2 2,2 l 2,0 c 1.10801,0 2,-0.892 2,-2 l -3,0 0,-1 4,0 c 1.108,0 2,-0.892 2,-2 L 14,7 C 14,5.892 13.108,5 12,5 Z m -3,7.5 c 0.277,0 0.5,0.223 0.5,0.5 0,0.277 -0.223,0.5 -0.5,0.5 -0.2769999,0 -0.5,-0.223 -0.5,-0.5 0,-0.277 0.2230001,-0.5 0.5,-0.5 z"
       transform="matrix(1.3333333 0 0 1.3333333 326.33333 534.69553)" />
  </g>
</svg>
