<svg xmlns="http://www.w3.org/2000/svg" viewBox="0 0 32 32">
  <defs
     id="defs3051">
    <style
       type="text/css"
       id="current-color-scheme">
      .ColorScheme-Text {
        color:#4d4d4d;
      }
      </style>
  </defs>
  <path
     style="fill:currentColor;fill-opacity:1;stroke:none" 
     d="m 22,4 -4,4 -1,1 5,5 0.707031,-0.70703 L 18.914062,9.5 28,9.5 28,8.46875 18.914062,8.49995 22.707031,4.70698 22,4 Z M 11.5,9 C 9.014719,9 7,11.01472 7,13.5 7,15.98528 9.014719,18 11.5,18 13.985281,18 16,15.98528 16,13.5 16,11.01472 13.985281,9 11.5,9 Z m 0,1 C 13.432997,10 15,11.567 15,13.5 15,15.433 13.432997,17 11.5,17 9.567003,17 8,15.433 8,13.5 8,11.567 9.567003,10 11.5,10 Z m 0,9 C 7.357864,19 4,22.58172 4,27 l 0,1 15,0 0,-1 c 0,-4.41828 -3.357864,-8 -7.5,-8 z m 0,1 c 3.589851,0 6.5,3.13401 6.5,7 L 5,27 c 0,-3.86599 2.910149,-7 6.5,-7 z"
     class="ColorScheme-Text"
     />
</svg>
