<?xml version="1.0" encoding="UTF-8" standalone="no"?>
<svg
   xmlns:dc="http://purl.org/dc/elements/1.1/"
   xmlns:cc="http://creativecommons.org/ns#"
   xmlns:rdf="http://www.w3.org/1999/02/22-rdf-syntax-ns#"
   xmlns:svg="http://www.w3.org/2000/svg"
   xmlns="http://www.w3.org/2000/svg"
   xmlns:xlink="http://www.w3.org/1999/xlink"
   xmlns:sodipodi="http://sodipodi.sourceforge.net/DTD/sodipodi-0.dtd"
   xmlns:inkscape="http://www.inkscape.org/namespaces/inkscape"
   width="32"
   height="32"
   id="svg2"
   version="1.1"
   inkscape:version="0.91 r13725"
   sodipodi:docname="application-x-perl.svg">
  <metadata
     id="metadata41">
    <rdf:RDF>
      <cc:Work
         rdf:about="">
        <dc:format>image/svg+xml</dc:format>
        <dc:type
           rdf:resource="http://purl.org/dc/dcmitype/StillImage" />
      </cc:Work>
    </rdf:RDF>
  </metadata>
  <sodipodi:namedview
     pagecolor="#ffffff"
     bordercolor="#666666"
     borderopacity="1"
     objecttolerance="10"
     gridtolerance="10"
     guidetolerance="10"
     inkscape:pageopacity="0"
     inkscape:pageshadow="2"
     inkscape:window-width="1920"
     inkscape:window-height="1025"
     id="namedview39"
     showgrid="false"
     inkscape:zoom="7.375"
     inkscape:cx="-8.6779661"
     inkscape:cy="14.915254"
     inkscape:window-x="0"
     inkscape:window-y="26"
     inkscape:window-maximized="1"
     inkscape:current-layer="svg2" />
  <defs
     id="defs4">
    <linearGradient
       id="a"
       y1="61"
       y2="3"
       x2="0"
       gradientUnits="userSpaceOnUse"
       gradientTransform="matrix(0.5,0,0,-0.48276,0,31.45)">
      <stop
         stop-color="#22a7f0"
         id="stop7" />
      <stop
         offset="1"
         stop-color="#19b5fe"
         id="stop9" />
    </linearGradient>
    <linearGradient
       id="b"
       y1="518.04"
       y2="524.8"
       x2="0"
       gradientUnits="userSpaceOnUse">
      <stop
         stop-color="#c8e3fe"
         id="stop12" />
      <stop
         offset="1"
         stop-color="#ffffff"
         id="stop14" />
    </linearGradient>
    <linearGradient
       id="c"
       y1="524.8"
       x1="404.57"
       y2="531.8"
       x2="411.57"
       gradientUnits="userSpaceOnUse">
      <stop
         stop-color="#383e51"
         id="stop17" />
      <stop
         offset="1"
         stop-color="#655c6f"
         stop-opacity="0"
         id="stop19" />
    </linearGradient>
    <linearGradient
       inkscape:collect="always"
       id="linearGradient6251">
      <stop
         style="stop-color:#ffffff;stop-opacity:0"
         offset="0"
         id="stop6253" />
      <stop
         style="stop-color:#ffffff;stop-opacity:0.2"
         offset="1"
         id="stop6255" />
    </linearGradient>
    <linearGradient
       inkscape:collect="always"
       xlink:href="#linearGradient6251"
       id="linearGradient4284"
       x1="16.38983"
       y1="29.966103"
       x2="15.338983"
       y2="2.5762713"
       gradientUnits="userSpaceOnUse" />
  </defs>
  <path
     inkscape:connector-curvature="0"
     style="fill:#2e6ea9;fill-opacity:1"
     id="path23"
     d="m 5,30 0,-28 15,0 7,7 0,21 -7,0 z" />
  <g
     id="g25"
     transform="matrix(1,0,0,-1,-384.57,-515.8)">
    <rect
       style="fill:#ffffff;fill-opacity:0.41199999"
       id="rect27"
       height="1"
       y="-518.79999"
       x="389.57001"
       width="15" />
    <rect
       style="fill:#2e3132;fill-opacity:0.294"
       id="rect29"
       height="1"
       y="-545.79999"
       x="389.57001"
       width="22" />
  </g>
  <g
     style="fill-rule:evenodd;fill:#000000;fill-opacity:1;opacity:0.4"
     id="g31"
     transform="translate(-384.57,-515.8)">
    <path
       inkscape:connector-curvature="0"
       style="fill:#000000;fill-opacity:1"
       id="path33"
       d="m 411.57,524.8 -7,-7 0,7 z" />
    <path
       inkscape:connector-curvature="0"
       style="opacity:0.2;fill:#000000;fill-opacity:1"
       id="path35"
       d="m 411.57,531.8 -7,-7 7,0 z" />
  </g>
  <path
     style="fill:#000000;fill-opacity:1;opacity:0.4"
     inkscape:connector-curvature="0"
     id="path37"
     d="m 12.69,23.89 c -0.239,-0.062 -0.215,-0.129 0.179,-0.498 0.679,-0.635 0.792,-1.267 0.599,-3.347 -0.154,-1.659 -0.189,-1.786 -0.448,-1.647 -0.562,0.301 -1.263,-0.087 -2.06,-1.138 -0.394,-0.519 -0.431,-0.672 -0.364,-1.481 0.041,-0.496 0.126,-1.095 0.188,-1.331 0.095,-0.362 0.065,-0.429 -0.198,-0.429 -0.171,0 -0.399,-0.107 -0.507,-0.237 -0.272,-0.328 0.213,-0.855 0.787,-0.855 0.233,0 0.512,-0.105 0.619,-0.234 0.276,-0.332 0.697,-0.29 1.17,0.117 0.503,0.433 0.674,1.435 0.392,2.291 -0.319,0.968 -0.098,1.063 0.349,0.149 0.25,-0.511 0.603,-0.957 0.894,-1.129 0.264,-0.156 0.65,-0.553 0.858,-0.882 0.208,-0.329 0.468,-0.656 0.579,-0.727 0.34,-0.217 1.274,-0.516 1.622,-0.519 0.475,-0.01 1.112,0.552 1.225,1.069 0.054,0.244 0.34,0.82 0.636,1.279 0.296,0.46 0.538,0.916 0.538,1.014 0,0.098 0.21,0.443 0.468,0.767 0.385,0.485 0.467,0.729 0.461,1.386 -0.007,0.901 -0.492,2.049 -0.67,1.586 -0.056,-0.146 -0.033,-0.395 0.052,-0.553 0.177,-0.331 0.021,-1.799 -0.171,-1.607 -0.134,0.134 -0.221,1.566 -0.184,3.01 0.049,1.874 -0.042,3.64 -0.19,3.688 -0.378,0.12 -0.543,-0.191 -0.388,-0.732 0.233,-0.814 0.185,-2.979 -0.074,-3.321 -0.12,-0.158 -0.264,-0.561 -0.32,-0.896 -0.057,-0.335 -0.164,-0.646 -0.239,-0.692 -0.246,-0.152 -0.617,0.832 -0.617,1.635 0,0.629 -0.095,0.919 -0.468,1.434 -0.528,0.729 -0.569,0.944 -0.234,1.222 0.261,0.217 0.312,0.713 0.087,0.852 -0.081,0.05 -0.291,-0.064 -0.468,-0.254 -0.25,-0.268 -0.321,-0.29 -0.321,-0.1 0,0.285 -0.578,0.479 -0.897,0.3 -0.171,-0.095 -0.13,-0.18 0.183,-0.386 0.559,-0.366 0.505,-0.666 -0.242,-1.349 -0.582,-0.532 -0.634,-0.639 -0.538,-1.112 0.302,-1.498 0.301,-1.537 -0.048,-1.537 -0.228,0 -0.329,0.098 -0.329,0.322 0,0.177 -0.077,0.467 -0.172,0.644 -0.167,0.312 -0.217,0.563 -0.621,3.127 -0.201,1.278 -0.251,1.327 -1.121,1.1 m 4.186,-2.721 c 0.202,-0.392 0.232,-0.727 0.145,-1.654 -0.115,-1.231 -0.2,-1.274 -0.537,-0.272 -0.115,0.343 -0.34,0.791 -0.5,0.995 -0.371,0.476 -0.364,0.62 0.049,1.06 0.443,0.471 0.539,0.457 0.843,-0.13" />
  <path
     inkscape:connector-curvature="0"
     style="fill:url(#linearGradient4284);fill-opacity:1"
     id="path23-9"
     d="m 5,30 0,-28 15,0 7,7 0,21 -7,0 z" />
</svg>
