<?xml version="1.0" encoding="UTF-8" standalone="no"?>
<!-- Created with Inkscape (http://www.inkscape.org/) -->

<svg
   xmlns:dc="http://purl.org/dc/elements/1.1/"
   xmlns:cc="http://creativecommons.org/ns#"
   xmlns:rdf="http://www.w3.org/1999/02/22-rdf-syntax-ns#"
   xmlns:svg="http://www.w3.org/2000/svg"
   xmlns="http://www.w3.org/2000/svg"
   xmlns:sodipodi="http://sodipodi.sourceforge.net/DTD/sodipodi-0.dtd"
   xmlns:inkscape="http://www.inkscape.org/namespaces/inkscape"
   width="22"
   height="22"
   viewBox="0 0 5.82083317489 5.82083326231"
   version="1.1"
   id="svg2117"
   inkscape:version="0.92.1 r15371"
   sodipodi:docname="hotspot.svg">
  <defs
     id="defs2111">
    <style
       id="current-color-scheme"
       type="text/css">
      .ColorScheme-Text {
        color:#4d4d4d;
      }
      </style>
  </defs>
  <sodipodi:namedview
     id="base"
     pagecolor="#ffffff"
     bordercolor="#666666"
     borderopacity="1.0"
     inkscape:pageopacity="0.0"
     inkscape:pageshadow="2"
     inkscape:zoom="25.7375085777"
     inkscape:cx="7.11151830086"
     inkscape:cy="12.4046942295"
     inkscape:document-units="mm"
     inkscape:current-layer="layer1"
     showgrid="true"
     fit-margin-top="0"
     fit-margin-left="0"
     fit-margin-right="0"
     fit-margin-bottom="0"
     units="px"
     inkscape:window-width="1920"
     inkscape:window-height="1080"
     inkscape:window-x="324"
     inkscape:window-y="246"
     inkscape:window-maximized="0"
     width="22px">
    <inkscape:grid
       type="xygrid"
       id="grid2133" />
  </sodipodi:namedview>
  <metadata
     id="metadata2114">
    <rdf:RDF>
      <cc:Work
         rdf:about="">
        <dc:format>image/svg+xml</dc:format>
        <dc:type
           rdf:resource="http://purl.org/dc/dcmitype/StillImage" />
        <dc:title></dc:title>
      </cc:Work>
    </rdf:RDF>
  </metadata>
  <g
     inkscape:label="Layer 1"
     inkscape:groupmode="layer"
     id="layer1"
     transform="translate(-63.7191734314,-141.286464288)">
    <path
       style="opacity:1;fill:#4d4d4d;fill-opacity:1;fill-rule:nonzero;stroke:none;stroke-width:0.0156487562;stroke-linecap:round;stroke-linejoin:round;stroke-miterlimit:4;stroke-dasharray:none;stroke-dashoffset:0;stroke-opacity:1"
       d="M 66.7531486639,141.944703414 C 66.694155482,141.985194583 66.6393506473,142.027715144 66.5881748121,142.071854341 66.5881455541,142.071891658 66.5880966111,142.071924477 66.5880673616,142.071961792 V 142.07199761 L 66.5877808214,142.072284147 66.3892821079,142.277301584 66.1764923441,142.630172268 66.0470849352,143.017785599 65.998803399,143.443257672 C 65.9924301552,143.657117398 66.0146588184,143.869611922 66.0608745416,144.067622446 L 66.0611252622,144.070201282 H 66.06151925 C 66.1057417365,144.258680718 66.11413811,144.347685225 66.1983851939,144.498139677 67.1538849822,144.330649106 67.7871558163,145.069164565 67.5735299381,145.866427195 67.4608327235,146.28701891 67.1138103496,146.489572667 66.7810502337,146.565547168 66.3120814807,146.647091961 65.9166673966,146.39394843 65.8214726249,146.038676709 65.8028869342,145.921515897 65.8318099621,145.764046477 65.8988018777,145.724309475 65.860117469,145.737767179 65.8130212096,145.753289005 65.756607742,145.806474046 65.6616037046,145.896041201 65.6592698736,145.927685835 65.5350785918,145.962457788 65.5958577295,145.791172666 65.2622191433,145.651921995 65.3224872556,145.284504313 65.323882026,145.276001242 65.3074100216,145.354851399 65.3087141254,145.346116058 65.1617192063,146.157989217 65.9933113009,147.071910922 66.9159734839,146.824684338 67.5411117375,146.668647567 67.9137633521,146.209624157 68.0369790452,145.691500955 68.1081321441,145.392301489 68.0861388909,145.083775065 68.0215060313,144.824833076 67.9688620931,144.613922919 67.861342804,144.391402285 67.6995813719,144.187072683 67.6477553475,144.121608429 67.5937282156,144.061682657 67.5386190436,144.005945293 L 67.5373654436,144.004118617 67.5326733947,144.000035461 C 67.4086198853,143.875423619 67.279997139,143.772445409 67.1567722707,143.675030529 L 66.7917595651,143.359373877 C 66.784960304,143.352148188 66.7781600608,143.344929179 66.7715586855,143.337597042 L 66.657910828,143.187773852 C 66.648873968,143.173190636 66.6403381541,143.158247909 66.6321224705,143.143074033 L 66.545086763,142.893786584 66.514140738,142.550801436 66.5565840758,142.260610787 C 66.5584342852,142.254377556 66.5604059206,142.248227274 66.5623864546,142.242057497 Z"
       id="path1795"
       inkscape:connector-curvature="0" />
    <path
       style="opacity:1;fill:#4d4d4d;fill-opacity:1;fill-rule:nonzero;stroke:none;stroke-width:0.0156487562;stroke-linecap:round;stroke-linejoin:round;stroke-miterlimit:4;stroke-dasharray:none;stroke-dashoffset:0;stroke-opacity:1"
       d="M 66.9138602717,142.378556702 C 66.8824697382,142.428742275 66.8554708393,142.482640735 66.8312300784,142.53876687 L 66.7579123464,142.680996822 66.6521800828,143.014705324 C 66.6472542834,143.027445328 66.6427852494,143.040599045 66.6394649896,143.054748911 L 66.8051551864,143.326171368 66.8896478685,143.414532307 C 66.8997348886,143.425674089 66.9100825918,143.436699312 66.9210953403,143.44744828 L 66.891510363,143.256041364 C 66.8907775081,143.250386208 66.8900358958,143.24479253 66.8893255142,143.239099846 L 66.881803911,142.55706944 Z"
       id="path1793"
       inkscape:connector-curvature="0" />
    <path
       style="opacity:1;fill:#4d4d4d;fill-opacity:1;fill-rule:nonzero;stroke:none;stroke-width:0.0156487562;stroke-linecap:round;stroke-linejoin:round;stroke-miterlimit:4;stroke-dasharray:none;stroke-dashoffset:0;stroke-opacity:1"
       d="M 65.3992054069,144.164873048 65.4103803627,144.536010485 65.3312960659,144.692925473 65.3223417757,144.96989959 65.3979518069,145.108691094 C 65.4033375636,145.120026215 65.4089242851,145.130979866 65.4145351535,145.141678701 65.444776035,145.006187021 65.5017271557,144.876733641 65.5828400009,144.764058358 L 65.6077329294,144.606140488 65.5354538937,144.330563241 Z"
       id="path1791"
       inkscape:connector-curvature="0" />
    <path
       style="opacity:1;fill:#4d4d4d;fill-opacity:1;fill-rule:nonzero;stroke:none;stroke-width:0.0150003694;stroke-linecap:round;stroke-linejoin:round;stroke-miterlimit:4;stroke-dasharray:none;stroke-dashoffset:0;stroke-opacity:1"
       d="M 66.4702836983,144.690334202 C 66.4388571053,144.691060194 66.4074849868,144.693490949 66.376285069,144.697478687 65.9078190244,144.757447652 65.5656684975,145.165809753 65.5524768636,145.642199496 65.5533046016,145.643492121 65.5537557028,145.644749691 65.5545891925,145.646046526 65.5813728179,145.687719392 65.6113275995,145.730679478 65.6374980971,145.780143023 65.6520542303,145.764397907 65.6580805581,145.757730541 65.6839693274,145.732329928 65.7523475411,145.665241046 65.824930818,145.637244732 65.8598206954,145.62461307 A 0.117227503629,0.12199881334 0 0 1 65.9575159023,145.845542543 C 65.9782397425,145.832749641 65.9548221956,145.851503562 65.9458980891,145.892806062 65.9373966103,145.932152581 65.9366781996,145.983690475 65.9416734313,146.022505952 66.0164286819,146.29840643 66.3189692128,146.511436228 66.703696024,146.443481019 66.9885766659,146.375206567 67.2660189884,146.207002102 67.3585179311,145.847740847 67.4193073304,145.61163786 67.3982673223,145.38685079 67.3157432757,145.195394366 67.1503253895,144.885368385 66.8298392591,144.681954653 66.4702836983,144.690334202 Z"
       id="path1767"
       inkscape:connector-curvature="0" />
    <path
       style="opacity:1;fill:#4d4d4d;fill-opacity:1;fill-rule:nonzero;stroke:none;stroke-width:0.0156487562;stroke-linecap:round;stroke-linejoin:round;stroke-miterlimit:4;stroke-dasharray:none;stroke-dashoffset:0;stroke-opacity:1"
       d="M 66.9661175147,141.525105357 66.9490685437,141.714076706 66.8993543232,141.788862941 66.8778640267,141.928836411 66.9077355386,142.003873367 C 66.9151546556,142.025999142 66.9238752376,142.046044029 66.9318046717,142.064261103 L 66.9477433099,142.10430469 66.9830590324,141.979875868 C 66.9884914348,141.96133917 66.9938271564,141.942765813 66.9990334847,141.923463837 L 67.0449152712,141.761749349 67.0251083823,141.617513636 Z"
       id="path1797"
       inkscape:connector-curvature="0" />
  </g>
</svg>
