<svg xmlns="http://www.w3.org/2000/svg" viewBox="0 0 22 22">
 <g transform="translate(-421.71429-525.79071)">
  <g style="fill:#da4453">
   <path d="m432.71429 528.79032a3.99999 4.00003 0 0 0 -4 4 3.99999 4.00003 0 0 0 4 4 3.99999 4.00003 0 0 0 4 -4 3.99999 4.00003 0 0 0 -4 -4m0 1a3 3.00003 0 0 1 3 3 3 3.00003 0 0 1 -3 3 3 3.00003 0 0 1 -3 -3 3 3.00003 0 0 1 3 -3"/>
   <path d="m12 13a7.99995 8.00003 0 0 0 -7.927734 7h1.00781A6.99996 7.00003 0 0 1 12 14a6.99996 7.00003 0 0 1 1 .08008v-1.00977A7.99995 8.00003 0 0 0 12 13" transform="translate(420.71429 524.79071)"/>
   <circle cx="437.21429" cy="541.29071" r="3.5"/>
  </g>
  <path d="m434.714 540.791h5v1h-5z" style="fill:#fff"/>
 </g>
</svg>
