<svg xmlns="http://www.w3.org/2000/svg" viewBox="0 0 22 22">
  <defs id="defs3051">
    <style type="text/css" id="current-color-scheme">
      .ColorScheme-Text {
        color:#4d4d4d;
      }
      </style>
  </defs>
 <path 
     style="fill:currentColor;fill-opacity:1;stroke:none" d="m 16.294294,1033.3622 -3.291358,3.293 -0.206944,0.207 0.206944,0.207 3.291358,3.293 0.70668,-0.707 -2.291856,-2.293 4.290875,0 0,-1 -4.290875,0 2.291856,-2.293 -0.70668,-0.707 z m -8.296739,3 c -1.6611889,0 -2.998536,1.338 -2.998536,3 0,1.662 1.3373471,3 2.998536,3 1.6611889,0 2.998536,-1.338 2.998536,-3 0,-1.662 -1.3373471,-3 -2.998536,-3 z m 0,7 c -2.7686682,0 -4.997555,2.23 -4.997555,5 l 0,1 9.995125,0 0,-1 c 0,-2.77 -2.228902,-5 -4.99757,-5 z m 0,1 c 2.214929,0 3.998053,1.784 3.998053,4 l -7.996091,0 c 0,-2.216 1.7831094,-4 3.998038,-4 z" id="rect4109-66" transform="translate(0,-1030.3622)" 
     class="ColorScheme-Text"
     />
</svg>
