<svg xmlns="http://www.w3.org/2000/svg" viewBox="0 0 16 16">
  <defs id="defs3051">
    <style type="text/css" id="current-color-scheme">
      .ColorScheme-Text {
        color:#4d4d4d;
      }
      .ColorScheme-Highlight {
        color:#3daee9;
      }
      .ColorScheme-NeutralText {
        color:#f67400;
      }
      </style>
  </defs>
  <path 
        style="fill:currentColor;fill-opacity:1;stroke:none"
        d="M 5 2 C 4.448 2 4 2.448 4 3 L 4 5 L 2 5 L 2 9 L 3 9 L 3 6 L 13 6 L 13 8 L 14 8 L 14 5 L 12 5 L 12 3 C 12 2.448 11.552 2 11 2 L 5 2 z M 5 3 L 11 3 L 11 5 L 5 5 L 5 3 z M 7.3398438 9 L 4.1914062 12.609375 L 2.6679688 11.056641 L 2.0058594 11.732422 L 4.2324219 14 L 8.0058594 9.6777344 L 7.3398438 9 z "
        class="ColorScheme-Text"
        />
  <path
         style="fill:currentColor;fill-opacity:1;stroke:none" 
     class="ColorScheme-NeutralText"
    d="m 11.50429,8.00074 a 1.5,1.5 0 0 0 -1.5,1.5 l 0,1.5 -1,0 0,3 5,0 0,-3 -1,0 0,-1.5 a 1.5,1.5 0 0 0 -1.5,-1.5 m 0,1 a 0.5,0.5 0 0 1 0.5,0.5 l 0,1.5 -1,0 0,-1.5 a 0.5,0.5 0 0 1 0.5,-0.5 m -1.5,3 3,0 0,1 -3,0 z"
      />
</svg>
