<?xml version="1.0" encoding="UTF-8" standalone="no"?>

<!-- Created with Inkscape (http://www.inkscape.org/) -->
<svg width="32" version="1.1" xmlns="http://www.w3.org/2000/svg" height="32" xmlns:xlink="http://www.w3.org/1999/xlink" xmlns:inkscape="http://www.inkscape.org/namespaces/inkscape">
 <defs id="defs5455">
  <linearGradient inkscape:collect="always" id="linearGradient4155">
   <stop style="stop-color:#fcd994" id="stop4157"/>
   <stop offset="1" style="stop-color:#fff6e1" id="stop4159"/>
  </linearGradient>
  <linearGradient inkscape:collect="always" id="linearGradient4143">
   <stop style="stop-color:#faae2a" id="stop4145"/>
   <stop offset="1" style="stop-color:#ffc35a" id="stop4147"/>
  </linearGradient>
  <linearGradient inkscape:collect="always" xlink:href="#linearGradient4143" id="linearGradient4149" y1="545.79797" y2="517.79797" x2="0" gradientUnits="userSpaceOnUse"/>
  <linearGradient inkscape:collect="always" xlink:href="#linearGradient4155" id="linearGradient4153" y1="22.999973" y2="9" x2="0" gradientUnits="userSpaceOnUse"/>
  <linearGradient inkscape:collect="always" id="linearGradient4410">
   <stop style="stop-color:#383e51" id="stop4412"/>
   <stop offset="1" style="stop-color:#655c6f;stop-opacity:0" id="stop4414"/>
  </linearGradient>
  <linearGradient inkscape:collect="always" xlink:href="#linearGradient4410" id="linearGradient4188" y1="9" x1="9.00001" y2="23.00003" x2="23.00004" gradientUnits="userSpaceOnUse"/>
 </defs>
 <metadata id="metadata5458"/>
 <g inkscape:label="Capa 1" inkscape:groupmode="layer" id="layer1" transform="matrix(1 0 0 1 -384.57143 -515.798)">
  <rect width="28.00001" x="386.57144" y="517.79797" rx="14.00001" height="28.00003" style="fill:url(#linearGradient4149)" id="rect4130"/>
  <path style="fill:url(#linearGradient4188);opacity:0.2;fill-rule:evenodd" id="path4179" d="M 17 9 L 17 19 L 15 19 L 23.699219 27.699219 C 26.115391 26.109995 27.995146 23.79022 29.050781 21.050781 L 17 9 z M 16.599609 21.199219 L 15.199219 22.599609 L 21.441406 28.908203 C 22.113852 28.625776 22.751626 28.281779 23.365234 27.902344 L 16.599609 21.199219 z " transform="matrix(1 0 0 1 384.57143 515.798)"/>
  <path style="fill:url(#linearGradient4153)" id="rect4142" d="M 15 9 L 15 19 L 17 19 L 17 9 L 15 9 z M 16 21 C 15.446 21 15 21.446 15 22 C 15 22.554 15.446 23 16 23 C 16.554 23 17 22.554 17 22 C 17 21.446 16.554 21 16 21 z " transform="matrix(1 0 0 1 384.57143 515.798)"/>
 </g>
</svg>
