<svg xmlns="http://www.w3.org/2000/svg" viewBox="0 0 32 32">
  <defs
     id="defs3051">
    <style
       type="text/css"
       id="current-color-scheme">
      .ColorScheme-Text {
        color:#4d4d4d;
      }
      </style>
  </defs>
  <path
     style="fill:currentColor;fill-opacity:1;stroke:none" 
     d="M 16,4 C 9.372583,4 4,9.37258 4,16 l 1,0 22,0 1,0 C 28,9.37258 22.627417,4 16,4 Z m 0,1 c 5.737617,0 10.443404,4.39409 10.949219,10 L 5.050781,15 C 5.556596,9.39409 10.262383,5 16,5 Z M 4.050781,17 C 4.560255,23.15821 9.710283,28 16,28 22.289717,28 27.439745,23.15821 27.949219,17 l -1,0 -21.898438,0 -1,0 z m 1.138672,1 21.621094,0 C 25.868905,23.11884 21.391149,27 16,27 10.608851,27 6.131095,23.11884 5.189453,18 Z"
     class="ColorScheme-Text"
     />
</svg>
