<svg xmlns="http://www.w3.org/2000/svg" viewBox="0 0 32 32">
  <defs
     id="defs3051">
    <style
       type="text/css"
       id="current-color-scheme">
      .ColorScheme-Text {
        color:#4d4d4d;
      }
      </style>
  </defs>
  <path
     style="fill:currentColor;fill-opacity:1;stroke:none" 
     d="M 16,4 A 1,1 0 0 0 15,5 1,1 0 0 0 16,6 1,1 0 0 0 17,5 1,1 0 0 0 16,4 Z M 7.162109,6.453125 6.453125,7.162109 8.576172,9.283203 9.283203,8.576172 7.162109,6.453125 Z m 17.675782,0 -2.121094,2.123047 0.707031,0.707031 2.123047,-2.121094 -0.708984,-0.708984 z M 16,7 a 9,9 0 0 0 -9,9 9,9 0 0 0 9,9 9,9 0 0 0 9,-9 9,9 0 0 0 -9,-9 z m 0,1 a 8,8 0 0 1 8,8 8,8 0 0 1 -8,8 8,8 0 0 1 -8,-8 8,8 0 0 1 8,-8 z M 5,15 a 1,1 0 0 0 -1,1 1,1 0 0 0 1,1 1,1 0 0 0 1,-1 1,1 0 0 0 -1,-1 z m 22,0 a 1,1 0 0 0 -1,1 1,1 0 0 0 1,1 1,1 0 0 0 1,-1 1,1 0 0 0 -1,-1 z M 8.576172,22.716797 6.453125,24.837891 7.162109,25.546875 9.283203,23.423828 8.576172,22.716797 Z m 14.847656,0 -0.707031,0.707031 2.121094,2.123047 0.708984,-0.708984 -2.123047,-2.121094 z M 16,26 a 1,1 0 0 0 -1,1 1,1 0 0 0 1,1 1,1 0 0 0 1,-1 1,1 0 0 0 -1,-1 z"
     class="ColorScheme-Text"
     />
</svg>
