<svg xmlns="http://www.w3.org/2000/svg" viewBox="0 0 22 22">
  <defs id="defs3051">
    <style type="text/css" id="current-color-scheme">
      .ColorScheme-Text {
        color:#4d4d4d;
      }
      .ColorScheme-NegativeText {
        color:#da4453;
      }
      </style>
  </defs>
  <path 
     style="fill:currentColor;fill-opacity:1;stroke:none" 
     d="M 3 3 L 3 19 L 19 19 L 19 3 L 3 3 z M 4 4 L 18 4 L 18 18 L 4 18 L 4 4 z M 5 15 L 5 17 L 10 17 L 10 15 L 5 15 z M 12 15 L 12 17 L 17 17 L 17 15 L 12 15 z "
     class="ColorScheme-Text"/>
  <path
     style="fill:currentColor;fill-opacity:1;stroke:none" 
     d="M 8.8476562 7 L 8 7.8476562 L 10.152344 10 L 8 12.152344 L 8.8476562 13 L 11 10.847656 L 13.152344 13 L 14 12.152344 L 11.847656 10 L 14 7.8476562 L 13.152344 7 L 11 9.1523438 L 8.8476562 7 z "
     class="ColorScheme-NegativeText"
     />
</svg>
