<?xml version="1.0" encoding="UTF-8" standalone="no"?>
<svg
   xmlns:dc="http://purl.org/dc/elements/1.1/"
   xmlns:cc="http://creativecommons.org/ns#"
   xmlns:rdf="http://www.w3.org/1999/02/22-rdf-syntax-ns#"
   xmlns:svg="http://www.w3.org/2000/svg"
   xmlns="http://www.w3.org/2000/svg"
   xmlns:xlink="http://www.w3.org/1999/xlink"
   xmlns:sodipodi="http://sodipodi.sourceforge.net/DTD/sodipodi-0.dtd"
   xmlns:inkscape="http://www.inkscape.org/namespaces/inkscape"
   width="64"
   viewBox="0 0 64 64"
   height="64"
   id="svg2"
   version="1.1"
   inkscape:version="0.91 r13725"
   sodipodi:docname="text-x-authors.svg">
  <metadata
     id="metadata39">
    <rdf:RDF>
      <cc:Work
         rdf:about="">
        <dc:format>image/svg+xml</dc:format>
        <dc:type
           rdf:resource="http://purl.org/dc/dcmitype/StillImage" />
      </cc:Work>
    </rdf:RDF>
  </metadata>
  <sodipodi:namedview
     pagecolor="#ffffff"
     bordercolor="#666666"
     borderopacity="1"
     objecttolerance="10"
     gridtolerance="10"
     guidetolerance="10"
     inkscape:pageopacity="0"
     inkscape:pageshadow="2"
     inkscape:window-width="640"
     inkscape:window-height="480"
     id="namedview37"
     showgrid="false"
     inkscape:snap-bbox="true"
     inkscape:bbox-nodes="true"
     inkscape:zoom="1"
     inkscape:cx="-101.15002"
     inkscape:cy="19.556334"
     inkscape:current-layer="svg2">
    <inkscape:grid
       type="xygrid"
       id="grid4167" />
  </sodipodi:namedview>
  <defs
     id="defs4">
    <linearGradient
       id="a"
       y1="3"
       y2="61"
       x2="0"
       gradientUnits="userSpaceOnUse"
       gradientTransform="matrix(1 0 0-1 0 64)">
      <stop
         stop-color="#5e6b78"
         id="stop7" />
      <stop
         offset="1"
         stop-color="#768492"
         id="stop9" />
    </linearGradient>
    <linearGradient
       id="b"
       y1="61"
       y2="47"
       x2="0"
       gradientUnits="userSpaceOnUse"
       gradientTransform="matrix(1 0 0-1 0 64)">
      <stop
         stop-color="#dedede"
         id="stop12" />
      <stop
         offset="1"
         stop-color="#fbfbfb"
         id="stop14" />
    </linearGradient>
    <linearGradient
       id="c"
       y1="17"
       x1="40"
       y2="31"
       x2="54"
       gradientUnits="userSpaceOnUse">
      <stop
         stop-color="#383e51"
         id="stop17" />
      <stop
         offset="1"
         stop-color="#655c6f"
         stop-opacity="0"
         id="stop19" />
    </linearGradient>
    <linearGradient
       inkscape:collect="always"
       id="linearGradient6251">
      <stop
         style="stop-color:#ffffff;stop-opacity:0"
         offset="0"
         id="stop6253" />
      <stop
         style="stop-color:#ffffff;stop-opacity:0.2"
         offset="1"
         id="stop6255" />
    </linearGradient>
    <linearGradient
       inkscape:collect="always"
       id="linearGradient9654">
      <stop
         style="stop-color:#060606;stop-opacity:1"
         offset="0"
         id="stop9656" />
      <stop
         style="stop-color:#000000;stop-opacity:0"
         offset="1"
         id="stop9658" />
    </linearGradient>
    <linearGradient
       y2="31"
       x2="54"
       y1="17"
       x1="40"
       gradientTransform="translate(50.000006,-2.8862061e-5)"
       gradientUnits="userSpaceOnUse"
       id="linearGradient7912"
       xlink:href="#linearGradient9654"
       inkscape:collect="always" />
    <linearGradient
       y2="336.36221"
       x2="58"
       y1="392.36221"
       x1="58"
       gradientTransform="translate(2.000006,-332.36223)"
       gradientUnits="userSpaceOnUse"
       id="linearGradient7916"
       xlink:href="#linearGradient6251"
       inkscape:collect="always" />
  </defs>
  <g
     id="g4279"
     transform="translate(-50,0)">
    <path
       inkscape:export-ydpi="96"
       inkscape:export-xdpi="96"
       d="m 60.000006,60.999971 0,-57.9999999 29.999997,0 14.000007,13.9999999 0,30 0,14 -14.000007,0 -29.999997,0 z"
       id="path7348"
       style="fill:#eeeeee;fill-opacity:1"
       inkscape:connector-curvature="0" />
    <rect
       inkscape:export-ydpi="96"
       inkscape:export-xdpi="96"
       transform="scale(1,-1)"
       id="rect7350"
       style="opacity:0.6;fill:#ffffff;fill-opacity:1"
       height="1"
       y="-3.999954"
       x="60.000004"
       width="30" />
    <rect
       inkscape:export-ydpi="96"
       inkscape:export-xdpi="96"
       transform="scale(1,-1)"
       id="rect7352"
       style="opacity:0.15;fill:#000000;fill-opacity:1"
       height="1"
       y="-60.999954"
       x="60.000004"
       width="44" />
    <path
       inkscape:export-ydpi="96"
       inkscape:export-xdpi="96"
       d="M 104.00001,16.999971 90.000003,2.9999711 l 0,13.9999999 z"
       id="path7354"
       style="opacity:0.5;fill:#000000;fill-opacity:1;fill-rule:evenodd"
       inkscape:connector-curvature="0" />
    <path
       inkscape:export-ydpi="96"
       inkscape:export-xdpi="96"
       inkscape:connector-curvature="0"
       style="opacity:0.1;fill:url(#linearGradient7912);fill-rule:evenodd"
       id="path7624"
       d="m 90.000003,16.999971 14.000007,14 0,-14 z" />
    <path
       inkscape:export-ydpi="96"
       inkscape:export-xdpi="96"
       inkscape:connector-curvature="0"
       d="m 82,22 c -6.0751,0 -11,4.92487 -11,11 0,6.07513 4.9249,11 11,11 6.0751,0 11,-4.92487 11,-11 0,-6.07513 -4.9249,-11 -11,-11 z m 0,1 c 5.5228,0 10,4.47715 10,10 0,5.52285 -4.4772,10 -10,10 -5.5228,0 -10,-4.47715 -10,-10 0,-5.52285 4.4772,-10 10,-10 z m 0,3 a 7,7 0 0 0 -7,7 7,7 0 0 0 7,7 7,7 0 0 0 4.9473,-2.05273 L 86.2402,37.24023 A 6,6 0 0 1 82,39 a 6,6 0 0 1 -6,-6 6,6 0 0 1 6,-6 6,6 0 0 1 4.2402,1.75977 l 0.7071,-0.70704 A 7,7 0 0 0 82,26 Z"
       id="path14537"
       style="color:#000000;clip-rule:nonzero;display:inline;overflow:visible;visibility:visible;opacity:0.6;isolation:auto;mix-blend-mode:normal;color-interpolation:sRGB;color-interpolation-filters:linearRGB;solid-color:#000000;solid-opacity:1;fill:#000000;fill-opacity:1;fill-rule:nonzero;stroke-width:1;stroke-linecap:butt;stroke-linejoin:miter;stroke-miterlimit:4;stroke-dasharray:none;stroke-dashoffset:0;stroke-opacity:1;color-rendering:auto;image-rendering:auto;shape-rendering:auto;text-rendering:auto;enable-background:accumulate" />
    <path
       inkscape:export-ydpi="96"
       inkscape:export-xdpi="96"
       inkscape:connector-curvature="0"
       style="fill:url(#linearGradient7916);fill-opacity:1"
       id="path7628"
       d="m 60.000006,60.999971 0,-57.9999999 29.999994,0 14.00001,13.9999999 0,30 0,14 -14.00001,0 -29.999994,0 z" />
  </g>
</svg>
