<svg version="1.1" viewBox="0 0 16 16" xmlns="http://www.w3.org/2000/svg">
    <style
        type="text/css"
        id="current-color-scheme">
        .ColorScheme-Text {
            color:#232629;
        }
    </style>
    <circle cx="9.148" cy="2.5" r="0"/>
    <path d="m8 2a1 1 0 0 0-1 1 1 1 0 0 0 0.013672 0.16992 3 3 0 0 0-2.0137 2.8301c0 2-1 3-2 4v1h10v-1c-1-1-2-1.7909-2-4a3 3 0 0 0-2.0156-2.8301 1 1 0 0 0 0.015625-0.16992 1 1 0 0 0-1-1zm0.087891 10a1.5 1.5 0 0 0-0.087891 0.5 1.5 1.5 0 0 0 1.5 1.5 1.5 1.5 0 0 0 1.5-1.5 1.5 1.5 0 0 0-0.087891-0.5h-2.8242z" class="ColorScheme-Text" fill="currentColor"/>
</svg>
