<svg xmlns="http://www.w3.org/2000/svg" viewBox="0 0 16 16">
  <defs id="defs3051">
    <style type="text/css" id="current-color-scheme">
      .ColorScheme-Text {
        color:#4d4d4d;
      }
      .ColorScheme-NeutralText {
        color:#f67400;
      }
      </style>
  </defs>
  <g transform="translate(-421.71-531.79)">
 <path style="fill:currentColor;fill-opacity:1;stroke:none" 
     d="m426.71 533.79c-.552 0-1 .448-1 1v2h-2v9h6v-1h-5v-7h10v2h1v-3h-2v-2c0-.552-.448-1-1-1zm0 1h6v2h-6z"
     class="ColorScheme-Text"
     />
  <path d="m433.21429 539.79074a1.5 1.5 0 0 0 -1.5 1.5v1.5h-1v3h5v-3h-1v-1.5a1.5 1.5 0 0 0 -1.5 -1.5m0 1a.5 .5 0 0 1 .5 .5v1.5h-1v-1.5a.5 .5 0 0 1 .5 -.5m-1.5 3h3v1h-3z"   style="fill:currentColor;fill-opacity:1;stroke:none" 
     class="ColorScheme-NeutralText"
   />
</g>
</svg>
