<?xml version="1.0" encoding="UTF-8" standalone="no"?>
<!-- Created with Inkscape (http://www.inkscape.org/) -->

<svg
   xmlns:dc="http://purl.org/dc/elements/1.1/"
   xmlns:cc="http://creativecommons.org/ns#"
   xmlns:rdf="http://www.w3.org/1999/02/22-rdf-syntax-ns#"
   xmlns:svg="http://www.w3.org/2000/svg"
   xmlns="http://www.w3.org/2000/svg"
   xmlns:sodipodi="http://sodipodi.sourceforge.net/DTD/sodipodi-0.dtd"
   xmlns:inkscape="http://www.inkscape.org/namespaces/inkscape"
   width="16"
   height="16"
   viewBox="0 0 4.2333332181 4.23333328168"
   version="1.1"
   id="svg2117"
   inkscape:version="0.92.1 r15371"
   sodipodi:docname="hotspot.svg">
  <defs
     id="defs2111">
    <style
       id="current-color-scheme"
       type="text/css">
      .ColorScheme-Text {
        color:#4d4d4d;
      }
      </style>
  </defs>
  <sodipodi:namedview
     id="base"
     pagecolor="#ffffff"
     bordercolor="#666666"
     borderopacity="1.0"
     inkscape:pageopacity="0.0"
     inkscape:pageshadow="2"
     inkscape:zoom="11.3137084781"
     inkscape:cx="-6.44663353986"
     inkscape:cy="2.06657485253"
     inkscape:document-units="mm"
     inkscape:current-layer="layer1"
     showgrid="false"
     fit-margin-top="0"
     fit-margin-left="0"
     fit-margin-right="0"
     fit-margin-bottom="0"
     units="px"
     inkscape:window-width="1920"
     inkscape:window-height="1080"
     inkscape:window-x="324"
     inkscape:window-y="246"
     inkscape:window-maximized="0">
    <inkscape:grid
       type="xygrid"
       id="grid2133" />
  </sodipodi:namedview>
  <metadata
     id="metadata2114">
    <rdf:RDF>
      <cc:Work
         rdf:about="">
        <dc:format>image/svg+xml</dc:format>
        <dc:type
           rdf:resource="http://purl.org/dc/dcmitype/StillImage" />
        <dc:title></dc:title>
      </cc:Work>
    </rdf:RDF>
  </metadata>
  <g
     inkscape:label="Layer 1"
     inkscape:groupmode="layer"
     id="layer1"
     transform="translate(-63.7191734314,-142.873964288)">
    <path
       style="opacity:1;fill:#4d4d4d;fill-opacity:1;fill-rule:nonzero;stroke:none;stroke-width:0.0140805878;stroke-linecap:round;stroke-linejoin:round;stroke-miterlimit:4;stroke-dasharray:none;stroke-dashoffset:0;stroke-opacity:1"
       d="M 66.1143794267,142.873716504 C 66.0588568275,142.908548174 66.0069985084,142.945300731 65.9588333634,142.983270541 L 65.7717646781,143.160003939 65.571260121,143.463344596 65.4498205058,143.796657585 65.4043452434,144.16304349 C 65.3983469403,144.347011793 65.419242778,144.529627259 65.4627396147,144.699961621 V 144.702028678 H 65.4632563805 C 65.4745103218,144.745868774 65.4835036377,144.783631371 65.4921924076,144.817946722 66.269975895,144.55336816 67.1787539892,145.151482697 66.8864253223,146.247154004 66.7803581173,146.608959125 66.4539181507,146.78331222 66.1407344046,146.848667676 65.6993552162,146.918814858 65.3270248045,146.701080342 65.2374303687,146.395465365 65.220726008,146.299220054 65.2459483885,146.174041753 65.303059436,146.132949089 65.3037656407,146.131542435 65.3045164111,146.128432089 65.3051264937,146.127264681 65.269627276,146.138544745 65.2272712916,146.152203842 65.1764521796,146.195994336 65.087037257,146.273042585 65.0845644682,146.29992446 64.967679392,146.329836296 65.0248828758,146.182491895 64.7109690743,146.062989424 64.7676915978,145.746926139 64.7690043178,145.739611552 64.7535451102,145.807150493 64.7547724918,145.7996361 64.6164253244,146.498032802 65.398959958,147.2845813 66.2673416666,147.071909863 66.8557028596,146.937682534 67.2066075304,146.542480105 67.3225744107,146.096775586 67.3895415529,145.839395579 67.3689354981,145.573834033 67.3081050101,145.351084668 67.2585581305,145.169653669 67.1570093146,144.978567937 67.0047643538,144.802797721 66.9559872691,144.746483482 66.9052194878,144.694681783 66.8533524057,144.646734896 L 66.8523188797,144.645184603 66.8476679986,144.641567253 C 66.7309125922,144.534372554 66.6101767151,144.445796842 66.4942012016,144.361997754 L 66.1505529269,144.090696484 C 66.1441536679,144.084480738 66.137645663,144.078400285 66.131432648,144.072092969 L 66.0244624307,143.942901888 C 66.0159572153,143.930356984 66.0079068632,143.917714333 66.0001745105,143.904661328 L 65.9185257479,143.690204134 65.8890701808,143.395131706 65.9293777963,143.145534538 C 65.9311191582,143.140172533 65.9326814247,143.134822264 65.9345454432,143.129514844 Z M 65.3102941406,146.125197624 C 65.3090557439,146.125591392 65.3074167722,146.126348835 65.3061600253,146.126747917 65.3057857733,146.128104749 65.305168573,146.130233927 65.3051264937,146.130365267 65.3070145857,146.129112901 65.3083367207,146.126258836 65.3102941406,146.125197624 Z"
       id="path1795-8"
       inkscape:connector-curvature="0"
       sodipodi:nodetypes="cccccccccccccccscsccsssccccccccccccccccc" />
    <path
       style="opacity:1;fill:#4d4d4d;fill-opacity:1;fill-rule:nonzero;stroke:none;stroke-width:0.0147281354;stroke-linecap:round;stroke-linejoin:round;stroke-miterlimit:4;stroke-dasharray:none;stroke-dashoffset:0;stroke-opacity:1"
       d="M 66.2654842126,142.883765829 C 66.2359403946,142.930998971 66.210529848,142.981726569 66.1877151786,143.034550788 L 66.1187107476,143.168413312 66.0191987436,143.48248965 C 66.0145627299,143.494480156 66.0103566113,143.506860036 66.0072316832,143.520177462 L 66.16317428,143.775632059 66.2426962329,143.8587947 C 66.2521898301,143.869281008 66.2619287771,143.879657614 66.2722936421,143.889774216 L 66.2444491575,143.709627823 C 66.2437594149,143.704305362 66.2430614313,143.699040761 66.2423928441,143.693682979 L 66.2353137371,143.051776613 Z"
       id="path1793-3"
       inkscape:connector-curvature="0" />
    <path
       style="opacity:1;fill:#4d4d4d;fill-opacity:1;fill-rule:nonzero;stroke:none;stroke-width:0.0147281354;stroke-linecap:round;stroke-linejoin:round;stroke-miterlimit:4;stroke-dasharray:none;stroke-dashoffset:0;stroke-opacity:1"
       d="M 64.8399369164,144.564992685 64.8504544468,144.914296003 64.7760227019,145.061979639 64.7841316547,145.322659291 64.855293525,145.453285652 C 64.8603624364,145.463953924 64.8490840321,145.474263169 64.8543648107,145.484332589 64.8828266141,145.356811923 64.9364272828,145.234974321 65.0127682385,145.128927756 L 65.0361967074,144.980300239 64.9681698688,144.720935278 Z"
       id="path1791-9"
       inkscape:connector-curvature="0"
       sodipodi:nodetypes="cccccccccc" />
    <path
       style="opacity:1;fill:#4d4d4d;fill-opacity:1;fill-rule:nonzero;stroke:none;stroke-width:0.0141178938;stroke-linecap:round;stroke-linejoin:round;stroke-miterlimit:4;stroke-dasharray:none;stroke-dashoffset:0;stroke-opacity:1"
       d="M 65.8480033734,145.059540813 C 65.8184256153,145.060224095 65.7888991286,145.062511848 65.7595347108,145.066264986 65.3186286539,145.12270596 64.9966069382,145.507044004 64.9841913703,145.955407606 64.9849704137,145.956624185 64.9853949775,145.957807772 64.9861794311,145.959028314 65.0113873704,145.998249553 65.0395799027,146.038682286 65.0642107822,146.085235876 65.0779105741,146.070417051 65.0835823716,146.064141927 65.1079480976,146.040235639 65.1723036005,145.977093615 65.2406167846,145.950744332 65.2734540795,145.938855794 A 0.110330976847,0.114821589075 0 0 1 65.3654018506,146.146787925 C 65.3849065021,146.134747632 65.3628666146,146.152398255 65.3544675176,146.191270918 65.3464661817,146.22830267 65.3457900366,146.276808575 65.3504913959,146.313340527 65.4208487749,146.573009703 65.705590761,146.773506898 66.0676839878,146.709549513 66.3358050212,146.645291666 66.5969253348,146.486982717 66.6839825391,146.148856902 66.7411956806,145.92664392 66.7213934624,145.715081136 66.6437243295,145.534888147 66.4880380214,145.243101081 66.1864061811,145.051654235 65.8480033734,145.059540813 Z"
       id="path1767-6"
       inkscape:connector-curvature="0" />
  </g>
</svg>
