<svg xmlns="http://www.w3.org/2000/svg" viewBox="0 0 22 22">
  <defs id="defs3051">
    <style type="text/css" id="current-color-scheme">
      .ColorScheme-Text {
        color:#4d4d4d;
      }
      </style>
  </defs>
    <path style="fill:currentColor;fill-opacity:1;stroke:none" 
          d="M 3 3 L 3 19 L 19 19 L 19 18 L 19 16 L 19 3 L 3 3 z M 4 4 L 18 4 L 18 15 L 12 15 L 12 16 L 9 16 L 9 15 L 4 15 L 4 4 z M 6 6 L 6 13 L 16 13 L 16 6 L 6 6 z M 7 7 L 9 7 L 9 9 L 13 9 L 13 7 L 15 7 L 15 12 L 7 12 L 7 7 z M 4 16 L 7 16 L 7 18 L 4 18 L 4 16 z M 13 16 L 17 16 L 17 18 L 13 18 L 13 16 z " 
          id="rect4245" 
          class="ColorScheme-Text"/>
</svg>
