<svg width="32" xmlns="http://www.w3.org/2000/svg" height="32" xmlns:xlink="http://www.w3.org/1999/xlink">
 <defs>
  <linearGradient id="a" y1="392.36" y2="365.36" gradientUnits="userSpaceOnUse" x2="0" gradientTransform="translate(309.57 152.44)">
   <stop stop-color="#ffffff" stop-opacity="0"/>
   <stop offset="1" stop-color="#ffffff" stop-opacity=".2"/>
  </linearGradient>
  <linearGradient id="b" y1="17" x1="47" y2="24" gradientUnits="userSpaceOnUse" x2="54" gradientTransform="translate(357.57 507.8)">
   <stop stop-color="#060606"/>
   <stop offset="1" stop-opacity="0"/>
  </linearGradient>
  <path id="c" d="m389.57 545.8v-28h15l7 7v21h-14z"/>
 </defs>
 <g transform="translate(-384.57-515.8)">
  <g color-rendering="auto" color-interpolation-filters="linearRGB" shape-rendering="auto" image-rendering="auto" text-rendering="auto" color-interpolation="sRGB" color="#000000">
   <use fill="#13a4f7" xlink:href="#c"/>
   <g transform="scale(1-1)">
    <rect opacity=".5" x="389.57" y="-518.8" width="15" fill="#ffffff" height="1"/>
    <rect opacity=".25" x="389.57" y="-545.8" width="22" height="1"/>
   </g>
   <path opacity=".6" fill-rule="evenodd" d="m411.57 524.8l-7-7v7z"/>
  </g>
  <path opacity=".1" fill="url(#b)" fill-rule="evenodd" d="m404.57 524.8l7 7v-7z"/>
  <use fill="url(#a)" xlink:href="#c"/>
  <path opacity=".7" color-interpolation-filters="linearRGB" color="#000000" image-rendering="auto" color-rendering="auto" d="m400.57 526.8c-2.888 0-5.228 2.341-5.228 5.228 0 2.888 2.341 5.228 5.228 5.228 1.831 0 3.528-.962 4.473-2.53l-.478-.275c-.846 1.398-2.36 2.253-3.994 2.255-2.584 0-4.678-2.094-4.678-4.678 0-2.584 2.094-4.678 4.678-4.678 1.363 0 2.656.599 3.543 1.634l.48-.277c-.99-1.203-2.465-1.903-4.02-1.907" color-interpolation="sRGB" text-rendering="auto" shape-rendering="auto"/>
 </g>
</svg>
