<?xml version="1.0" encoding="UTF-8"?>
<svg xmlns:rdf="http://www.w3.org/1999/02/22-rdf-syntax-ns#" xmlns="http://www.w3.org/2000/svg" xmlns:cc="http://creativecommons.org/ns#" xmlns:xlink="http://www.w3.org/1999/xlink" xmlns:dc="http://purl.org/dc/elements/1.1/" xmlns:svg="http://www.w3.org/2000/svg" xmlns:inkscape="http://www.inkscape.org/namespaces/inkscape" xmlns:sodipodi="http://sodipodi.sourceforge.net/DTD/sodipodi-0.dtd" xmlns:ns1="http://sozi.baierouge.fr" id="svg2" style="shape-rendering:geometricPrecision;text-rendering:geometricPrecision;image-rendering:optimizeQuality" fill-rule="evenodd" xml:space="preserve" viewBox="0 0 210 297" version="1.1" clip-rule="evenodd">
 <defs id="defs4">
  <style id="style6" type="text/css">
    .fil21 {fill:#CCCCCC}
    .fil20 {fill:#CECECE}
    .fil19 {fill:#D1D1D1}
    .fil18 {fill:lightgrey}
    .fil17 {fill:#D6D6D6}
    .fil16 {fill:#D8D8D8}
    .fil15 {fill:#DBDBDB}
    .fil14 {fill:#DDDDDD}
    .fil13 {fill:#DFDFDF}
    .fil12 {fill:#E2E2E2}
    .fil11 {fill:#E4E4E4}
    .fil10 {fill:#E7E7E7}
    .fil9 {fill:#E9E9E9}
    .fil8 {fill:#ECECEC}
    .fil7 {fill:#EEEEEE}
    .fil6 {fill:#F0F0F0}
    .fil5 {fill:#F3F3F3}
    .fil4 {fill:whitesmoke}
    .fil3 {fill:#F8F8F8}
    .fil2 {fill:#FAFAFA}
    .fil1 {fill:#FDFDFD}
    .fil0 {fill:white}
    .fil24 {fill:#999999;fill-rule:nonzero}
    .fil22 {fill:#CCCCCC;fill-rule:nonzero}
    .fil30 {fill:white;fill-rule:nonzero}
    .fil29 {fill:url(#id0)}
    .fil28 {fill:url(#id1)}
    .fil27 {fill:url(#id2)}
    .fil31 {fill:url(#id3);fill-rule:nonzero}
    .fil23 {fill:url(#id4);fill-rule:nonzero}
    .fil26 {fill:url(#id5);fill-rule:nonzero}
    .fil32 {fill:url(#id6);fill-rule:nonzero}
    .fil33 {fill:url(#id7);fill-rule:nonzero}
    .fil25 {fill:url(#id8);fill-rule:nonzero}
  </style>
  <linearGradient id="id0" y2="137.08" gradientUnits="userSpaceOnUse" y1="137.08" x2="126.56" x1="117.67">
   <stop id="stop9" stop-color="#5B5B5B" offset="0"/>
   <stop id="stop11" stop-color="#B2B3B3" offset="1"/>
  </linearGradient>
  <radialGradient id="id1" gradientUnits="userSpaceOnUse" cy="137.04" cx="120.67" r="6.8404">
   <stop id="stop14" stop-color="#434242" offset="0"/>
   <stop id="stop16" stop-color="#2B2A29" offset="1"/>
  </radialGradient>
  <radialGradient id="id2" gradientUnits="userSpaceOnUse" cy="136.83" cx="118.1" r="13.488">
   <stop id="stop19" stop-color="#EBECEC" offset="0"/>
   <stop id="stop21" stop-color="#B2B3B3" offset="1"/>
  </radialGradient>
  <linearGradient id="id3" y2="88.167" gradientUnits="userSpaceOnUse" y1="120.34" x2="115.86" x1="115.86">
   <stop id="stop24" stop-color="#FEFEFE" offset="0"/>
   <stop id="stop26" stop-color="#D9DADA" offset="1"/>
  </linearGradient>
  <linearGradient id="id4" y2="84.714" gradientUnits="userSpaceOnUse" y1="166.01" x2="113.75" x1="113.75">
   <stop id="stop29" stop-color="#EBECEC" offset="0"/>
   <stop id="stop31" stop-color="#D9DADA" offset="1"/>
  </linearGradient>
  <linearGradient id="id5" y2="85.352" gradientUnits="userSpaceOnUse" y1="156.91" x2="113.36" x1="113.36">
   <stop id="stop34" stop-color="#B2B3B3" offset="0"/>
   <stop id="stop36" stop-color="#2B2A29" offset="1"/>
  </linearGradient>
  <linearGradient id="id6" y2="104.61" gradientUnits="userSpaceOnUse" y1="104.61" x2="132.85" x1="97.746">
   <stop id="stop39" stop-color="#008DD2" offset="0"/>
   <stop id="stop41" stop-color="#A2D9F7" offset="1"/>
  </linearGradient>
  <linearGradient id="id7" x1="119.56" xlink:href="#id6" gradientUnits="userSpaceOnUse" x2="133.2" y1="107.43" y2="107.43">
  </linearGradient>
  <linearGradient id="id8" y2="98.364" gradientUnits="userSpaceOnUse" y1="148.41" x2="118.42" x1="118.42">
   <stop id="stop45" stop-color="#303030" offset="0"/>
   <stop id="stop47" offset=".54118"/>
   <stop id="stop49" offset="1"/>
  </linearGradient>
 <linearGradient id="linearGradient3072" x1="97.746" xlink:href="#id6" gradientUnits="userSpaceOnUse" x2="132.85" y1="104.61" y2="104.61"/></defs>
 <g id="Layer_x0020_1" transform="matrix(2.3836 0 0 2.3836 -167.92 -173)">
  <g id="_561978472">
   <ellipse id="_637875656" d="m 157.6106,172.967 c 0,8.19325 -19.1092,14.8352 -42.6816,14.8352 -23.572395,0 -42.681598,-6.64195 -42.681598,-14.8352 0,-8.19326 19.109203,-14.83521 42.681598,-14.83521 23.5724,0 42.6816,6.64195 42.6816,14.83521 z" rx="42.682" ry="14.835" cy="172.97" cx="114.93" class="fil0" fill="#fff"/>
   <g id="g55">
    <path id="_637875920" class="fil1" fill="#fdfdfd" d="m114.93 158.69c22.685 0 41.076 6.392 41.076 14.277s-18.39 14.277-41.076 14.277c-22.685 0-41.076-6.392-41.076-14.277s18.39-14.277 41.076-14.277z"/>
    <path id="_637876544" class="fil2" fill="#fafafa" d="m114.93 159.25c21.798 0 39.47 6.1421 39.47 13.719 0 7.5767-17.671 13.719-39.47 13.719-21.798 0-39.47-6.1421-39.47-13.719 0-7.5767 17.671-13.719 39.47-13.719z"/>
    <path id="_270533968" class="fil3" fill="#f8f8f8" d="m114.93 159.81c20.912 0 37.864 5.8922 37.864 13.161 0 7.2684-16.952 13.161-37.864 13.161-20.911 0-37.864-5.8922-37.864-13.161 0-7.2684 16.952-13.161 37.864-13.161z"/>
    <path id="_270533680" class="fil4" fill="#f5f5f5" d="m114.93 160.36c20.025 0 36.258 5.6423 36.258 12.602 0 6.9601-16.233 12.602-36.258 12.602-20.024 0-36.258-5.6423-36.258-12.602 0-6.9601 16.233-12.602 36.258-12.602z"/>
    <path id="_559221440" class="fil5" fill="#f3f3f3" d="m114.93 160.92c19.138 0 34.652 5.3924 34.652 12.044 0 6.6518-15.514 12.044-34.652 12.044s-34.652-5.3924-34.652-12.044c0-6.6518 15.514-12.044 34.652-12.044z"/>
    <path id="_560684984" class="fil6" fill="#f0f0f0" d="m114.93 161.48c18.251 0 33.046 5.1424 33.046 11.486s-14.795 11.486-33.046 11.486-33.046-5.1424-33.046-11.486 14.795-11.486 33.046-11.486z"/>
    <path id="_638401056" class="fil7" fill="#eee" d="m114.93 162.04c17.364 0 31.44 4.8925 31.44 10.928 0 6.0353-14.076 10.928-31.44 10.928s-31.44-4.8925-31.44-10.928c0-6.0353 14.076-10.928 31.44-10.928z"/>
    <path id="_638401152" class="fil8" fill="#ececec" d="m114.93 162.6c16.477 0 29.834 4.6426 29.834 10.37 0 5.727-13.357 10.37-29.834 10.37s-29.834-4.6426-29.834-10.37c0-5.727 13.357-10.37 29.834-10.37z"/>
    <path id="_638401248" class="fil9" fill="#e9e9e9" d="m114.93 163.16c15.59 0 28.228 4.3927 28.228 9.8114s-12.638 9.8114-28.228 9.8114-28.228-4.3927-28.228-9.8114 12.638-9.8114 28.228-9.8114z"/>
    <path id="_638401344" class="fil10" fill="#e7e7e7" d="m114.93 163.71c14.703 0 26.622 4.1428 26.622 9.2532s-11.919 9.2532-26.622 9.2532-26.622-4.1428-26.622-9.2532 11.919-9.2532 26.622-9.2532z"/>
    <path id="_638401440" class="fil11" fill="#e4e4e4" d="m114.93 164.27c13.816 0 25.016 3.8928 25.016 8.6949s-11.2 8.6949-25.016 8.6949-25.016-3.8928-25.016-8.6949 11.2-8.6949 25.016-8.6949z"/>
    <path id="_638401536" class="fil12" fill="#e2e2e2" d="m114.93 164.83c12.929 0 23.41 3.6429 23.41 8.1367s-10.481 8.1367-23.41 8.1367-23.41-3.6429-23.41-8.1367 10.481-8.1367 23.41-8.1367z"/>
    <path id="_638401632" class="fil13" fill="#dfdfdf" d="m114.93 165.39c12.042 0 21.804 3.393 21.804 7.5785s-9.7618 7.5785-21.804 7.5785-21.804-3.393-21.804-7.5785 9.7618-7.5785 21.804-7.5785z"/>
    <path id="_638401728" class="fil14" fill="#ddd" d="m114.93 165.95c11.155 0 20.198 3.1431 20.198 7.0203s-9.0429 7.0203-20.198 7.0203-20.198-3.1431-20.198-7.0203 9.0429-7.0203 20.198-7.0203z"/>
    <path id="_638401824" class="fil15" fill="#dbdbdb" d="m114.93 166.5c10.268 0 18.592 2.8932 18.592 6.4621s-8.3239 6.4621-18.592 6.4621-18.592-2.8932-18.592-6.4621 8.3239-6.4621 18.592-6.4621z"/>
    <path id="_638401920" class="fil16" fill="#d8d8d8" d="m114.93 167.06c9.3811 0 16.986 2.6432 16.986 5.9039s-7.6048 5.9039-16.986 5.9039c-9.3811 0-16.986-2.6432-16.986-5.9039s7.6047-5.9039 16.986-5.9039z"/>
    <path id="_560937632" class="fil17" fill="#d6d6d6" d="m114.93 167.62c8.4941 0 15.38 2.3933 15.38 5.3457s-6.8858 5.3457-15.38 5.3457c-8.4941 0-15.38-2.3933-15.38-5.3457s6.8857-5.3457 15.38-5.3457z"/>
    <path id="_560937728" class="fil18" fill="#d3d3d3" d="m114.93 168.18c7.6072 0 13.774 2.1434 13.774 4.7875s-6.1667 4.7875-13.774 4.7875c-7.6072 0-13.774-2.1434-13.774-4.7875s6.1666-4.7875 13.774-4.7875z"/>
    <path id="_560937824" class="fil19" fill="#d1d1d1" d="m114.93 168.74c6.7202 0 12.168 1.8935 12.168 4.2293s-5.4478 4.2293-12.168 4.2293-12.168-1.8935-12.168-4.2293 5.4477-4.2293 12.168-4.2293z"/>
    <path id="_560937920" class="fil20" fill="#cecece" d="m114.93 169.3c5.8333 0 10.562 1.6436 10.562 3.6711s-4.7287 3.6711-10.562 3.6711-10.562-1.6436-10.562-3.6711 4.7286-3.6711 10.562-3.6711z"/>
   </g>
   <ellipse id="_559221392" d="m 123.88498,172.967 c 0,1.7192 -4.00973,3.1129 -8.95598,3.1129 -4.94625,0 -8.95598,-1.3937 -8.95598,-3.1129 0,-1.71921 4.00973,-3.1129 8.95598,-3.1129 4.94625,0 8.95598,1.39369 8.95598,3.1129 z" rx="8.956" ry="3.1129" cy="172.97" cx="114.93" class="fil21" fill="#ccc"/>
   <path id="_559221320" class="fil22" fill-rule="nonzero" fill="#ccc" d="m142.41 155.9c-7.4612 2.8783-18.126 5.0606-25.962 6.6782-9.5284 1.9672-19.426 4.0101-19.426 4.0101-2.5605 0.5289-5.8784-1.0679-6.1125-3.5331-1.3016-13.742-2.5415-26.825-3.7241-39.305-1.127-11.895-2.2063-23.277-3.238-34.163-0.1754-1.8551 2.1601-3.2555 4.6184-3.8898l4.8925-1.4044c0.5226-0.1593 1.1161-0.2201 1.7507-0.1592 1.4526 0.1397 10.847 1.043 19.292 1.8548 7.9123 0.7606 15.063 1.4481 15.063 1.4481 1.6982 0.1633 3.3289 1.5999 3.6119 3.1809 0.3641 2.0355 2.8942 16.176 5.469 30.56 2.7241 15.219 5.4989 30.722 5.4943 30.723 0.2932 1.6409-0.447 3.2526-1.729 3.9999z"/>
   <path id="_559221248" class="fil23" fill-rule="nonzero" fill="url(#id4)" d="m123.12 90.232c1.6669 0.1603 3.2676 1.5705 3.5454 3.1223 0.3574 1.998 1.0395 16.322 5.3682 29.997l10.019 31.652c-8.4416 3.2455-16.567 4.714-25.484 6.5548-9.3529 1.931-19.068 3.9363-19.068 3.9363-2.5134 0.5191-4.8153-1.0483-5.045-3.4681-1.2777-13.489-2.4947-26.33-3.6555-38.581-1.1064-11.676-2.1657-22.848-3.1784-33.534-0.1722-1.8209 1.1654-3.1955 3.5784-3.8181l4.8016-1.3788c8.4355 1.8565 29.118 5.518 29.118 5.518z"/>
   <path id="_559221176" class="fil24" fill-rule="nonzero" fill="#999" d="m129.44 87.8c1.6669 0.1603 3.2676 1.5705 3.5454 3.1223 0.3574 1.998 2.8409 15.878 5.3682 29.997 2.6739 14.938 5.3976 30.157 5.3931 30.157 0.3534 1.9781-0.8226 3.9132-2.6353 4.2864-1.189 0.2456-9.552 1.9729-18.222 3.763-9.353 1.931-19.068 3.9363-19.068 3.9363-2.5134 0.5191-4.8153-1.0483-5.045-3.4681-1.2777-13.489-2.4947-26.33-3.6555-38.581-1.1064-11.676-2.1657-22.848-3.1784-33.534-0.1722-1.8209 1.5454-3.1351 3.7761-2.9209 1.4258 0.1371 10.647 1.0238 18.936 1.8206l14.786 1.4214z"/>
   <path id="_273540688" class="fil25" fill-rule="nonzero" fill="url(#id8)" d="m96.232 85.488c-1.4119-0.1364-2.5096 0.7155-2.3981 1.8663 0.2303 2.3176 1.8248 18.596 3.4632 35.335 1.7527 17.905 3.5517 36.343 3.5517 36.343 0.1519 1.516 1.6167 2.5239 3.2096 2.2035 1.6064-0.3227 11.917-2.3769 21.087-4.2166 8.5096-1.7073 16.136-3.2287 16.136-3.2287 1.1507-0.2308 1.9109-1.4792 1.6892-2.7379-0.4425-2.5105-3.3319-18.86-5.9524-33.682-2.4785-14.019-4.7364-26.793-4.7364-26.792-0.174-0.9841-1.2077-1.895-2.2677-1.9919 0.001 0.0067-7.0298-0.6406-14.81-1.3559-8.3034-0.7635-17.545-1.6122-18.973-1.7423z"/>
   <path id="_273540616" class="fil26" fill-rule="nonzero" fill="url(#id5)" d="m96.232 85.488c-1.4119-0.1364-2.5096 0.7155-2.3981 1.8663 0.2303 2.3176 1.8248 18.596 3.4632 35.335l2.8112 28.757c0.706-0.1218-0.238-3.4572 0.6389-3.4316 0.5411 0.0158 1.1855 8.8933 2.1888 7.5392l28.849-63.862c0.2511-0.6715 0.4567 2.4632 1.2097 2.9185l-0.7125-4.0317c-0.174-0.9841-1.2077-1.895-2.2677-1.9919 0.001 0.0067-7.0298-0.6406-14.81-1.3559-8.3034-0.7635-17.545-1.6122-18.973-1.7423z"/>
   <path id="_273540520" class="fil27" fill="url(#id2)" d="m121.32 124.19c3.3012-0.2236 6.2982 1.0073 8.6361 3.1239 2.3183 2.0988 3.9884 5.1358 4.5036 8.6593 0.5217 3.5785-0.2376 7.0684-1.9271 9.8362-1.7405 2.8513-4.4841 4.9968-7.8481 5.6673-3.4783 0.6937-6.9183-0.3226-9.6069-2.5431-2.7229-2.2487-4.6296-5.7079-5.0323-9.7456-0.3932-3.9838 0.7648-7.686 2.8901-10.407 2.0625-2.6404 5.0835-4.3674 8.3846-4.591z"/>
   <path id="_273540424" class="fil28" fill="url(#id1)" d="m122.11 130.65c3.3823-0.3318 6.3485 2.3542 6.8479 6.0451 0.5009 3.7402-1.748 7.249-5.1366 7.8125-3.5017 0.5755-6.7914-2.2104-7.2331-6.1829-0.4328-3.9275 2.1395-7.3429 5.5218-7.6747z"/>
   <path id="_273540328" class="fil29" fill="url(#id0)" d="m122.24 131.7c2.3008-0.2387 3.3124 0.5784 4.4031 1.8805-0.9814-0.7487-1.3877-1.2123-3.4629-0.9904-2.0753 0.2219-4.8598 4.1978-4.5935 6.5118s0.6825 2.5051 1.457 3.4052c-1.2951-0.9314-2.1547-1.7481-2.445-4.3134-0.2904-2.5653 2.3404-6.255 4.6413-6.4937z"/>
   <path id="_273540232" class="fil0" fill="#fff" d="m113.57 138.71c0.3155-0.2443 0.6263-0.5031 0.9329-0.7531 0.325-0.2593 0.6498-0.5254 0.9744-0.7837 0.0461 0.4359 0.096 0.8642 0.1422 1.3 0.0461 0.4283 0.096 0.8642 0.1424 1.3-0.3758-0.1741-0.7473-0.3418-1.1185-0.5101-0.354-0.1564-0.7085-0.3203-1.0668-0.4925 0.0442 0.4324 0.0922 0.8571 0.1357 1.2818-0.3791-0.1678-0.7538-0.3444-1.1362-0.5136-0.3533-0.1576-0.7104-0.3159-1.0642-0.4829 0.0461 0.4211 0.0883 0.8498 0.1307 1.2785-0.1473 0.0215-0.2906 0.0354-0.4378 0.0569-0.0905-0.8744-0.1776-1.7565-0.2686-2.6463 0.1467-0.0121 0.2934-0.0319 0.4402-0.0517 0.043 0.4287 0.0852 0.8574 0.1274 1.2784 0.3122-0.2456 0.6243-0.4911 0.9392-0.7513 0.3294-0.2624 0.6586-0.5236 0.9915-0.7922 0.048 0.4323 0.0921 0.857 0.1355 1.2818z"/>
   <path id="_561156040" class="fil0" fill="#fff" d="m131.57 136.34c-0.3116-0.1482-0.6201-0.3043-0.9325-0.4605-0.3247-0.1619-0.6531-0.3243-0.9815-0.4872 0.0579 0.4005 0.1119 0.8011 0.1659 1.2087 0.054 0.4006 0.1118 0.8011 0.1661 1.2087 0.271-0.2406 0.546-0.4875 0.8169-0.7268 0.2611-0.2227 0.5173-0.4515 0.7733-0.6871 0.054 0.3971 0.1117 0.7873 0.1649 1.1774 0.2667-0.2452 0.5373-0.4829 0.8-0.7265 0.2491-0.2192 0.498-0.4385 0.7458-0.6641 0.0539 0.38 0.1077 0.76 0.1658 1.1468 0.1161-0.0172 0.2324-0.0344 0.3525-0.0516-0.1153-0.7793-0.2276-1.5724-0.3437-2.3655-0.1158 0.0158-0.2317 0.0316-0.3513 0.0474 0.0548 0.3869 0.1125 0.7669 0.1664 1.1469-0.3005-0.1481-0.6046-0.2966-0.9019-0.453-0.3214-0.1611-0.6464-0.3223-0.9713-0.4841 0.0577 0.3902 0.1117 0.7873 0.1646 1.1705z"/>
   <path id="_561155944" class="fil30" fill-rule="nonzero" fill="#fff" d="m120.88 128.98c-0.1011-0.8539-0.2059-1.7078-0.3105-2.5544 0.2363-0.0211 0.4725-0.0423 0.7126-0.0566 0.2104 0.5689 0.4252 1.1369 0.6364 1.7043 0.0674-0.5939 0.1345-1.1799 0.2018-1.7723 0.2324-0.0209 0.4648-0.0346 0.6972-0.0555 0.1033 0.8447 0.2108 1.6895 0.3183 2.5342-0.1491 0.008-0.2906 0.0222-0.4321 0.0368-0.0843-0.6584-0.1695-1.3312-0.251-1.9969-0.0713 0.6804-0.1428 1.3618-0.2116 2.0365-0.1492 0.0153-0.2982 0.0306-0.4512 0.0461-0.2402-0.6531-0.4771-1.3145-0.7137-1.97 0.084 0.67 0.1642 1.3401 0.2473 2.0101-0.1491 0.0151-0.2983 0.023-0.4435 0.0377z"/>
   <path id="_561155848" class="fil0" fill="#fff" d="m122.28 148.22c0.1647-0.0304 0.3294-0.0543 0.4941-0.0855 0.0408 0.3437 0.0847 0.6873 0.1248 1.031-0.1648 0.032-0.3337 0.064-0.4946 0.0879-0.04-0.3372-0.0837-0.6816-0.1243-1.0334zm0.8253-0.439c0.1608-0.0298 0.3254-0.0532 0.49-0.0838 0.0557 0.4298 0.1074 0.8667 0.1596 1.3037-0.165 0.0316-0.3298 0.0632-0.4908 0.0941-0.0519-0.438-0.1034-0.876-0.1588-1.314zm0.7958-0.6089c0.1606-0.0295 0.3212-0.0596 0.4858-0.0895 0.0705 0.5876 0.1449 1.1753 0.216 1.7629-0.161 0.0312-0.3259 0.0626-0.4869 0.0935-0.0707-0.5962-0.1447-1.1779-0.2149-1.7669zm0.781-0.6185c0.1567-0.0289 0.3171-0.0584 0.4816-0.088 0.0906 0.7444 0.1852 1.4814 0.2755 2.2257-0.161 0.0313-0.322 0.0553-0.483 0.0858-0.0897-0.7388-0.1838-1.4848-0.2741-2.2235zm0.7742-0.6362c0.1564-0.0282 0.3169-0.057 0.4773-0.0858 0.115 0.8997 0.2301 1.7995 0.3418 2.6992-0.161 0.0309-0.3219 0.0618-0.479 0.0919-0.1111-0.9018-0.2256-1.8036-0.3401-2.7053z"/>
   <path id="_561155776" class="fil31" fill-rule="nonzero" fill="url(#id3)" d="m127.8 90.486c1.4168 0.1213 2.7639 1.2894 2.9889 2.6003 0.2894 1.6825 1.2674 7.3453 2.1935 12.703 0.945 5.4667 1.8333 10.602 1.8333 10.602 0.2475 1.446-0.7432 2.6963-2.2115 2.7574-0.9617 0.0356-7.6763 0.3-14.52 0.5819-7.2469 0.2986-14.64 0.6093-14.64 0.6016-1.8976 0.0756-3.6324-1.2459-3.8031-2.9175-0.4855-4.6616-0.9605-9.2445-1.4271-13.749-0.4576-4.4181-0.9048-8.766-1.3457-13.043-0.1529-1.4911 1.2246-2.5942 3.0233-2.4414 1.1498 0.0931 8.6692 0.7143 15.511 1.2816 6.4762 0.537 12.398 1.0234 12.398 1.0234z"/>
   <path id="_561155704" class="fil32" fill-rule="nonzero" fill="url(#linearGradient3072)" d="m99.316 89.566c-1.1433-0.0873-2.0191 0.6201-1.9202 1.5649 0.2035 1.9131 0.8883 8.3704 1.538 14.492 0.6653 6.2698 1.2883 12.173 1.2883 12.173 0.114 1.0541 1.2185 1.9036 2.4189 1.8539 1.2132-0.0426 9.0969-0.3409 16.239-0.5993 6.7434-0.2439 12.887-0.4634 12.887-0.4634 0.9303-0.0365 1.5708-0.8325 1.4143-1.7623-0.316-1.8391-1.3502-7.8517-2.2779-13.288-0.9056-5.3069-1.7259-10.105-1.7217-10.105-0.1419-0.8347-1.0127-1.5844-1.9133-1.6604 0 0-5.9301-0.4692-12.419-0.9802-6.847-0.5392-14.377-1.1376-15.532-1.226z"/>
   <path id="_561978400" class="fil33" fill-rule="nonzero" fill="url(#id7)" d="m119.43 119.03c6.525-0.2358 12.34-0.4435 12.34-0.4435 0.9303-0.0365 1.5708-0.8325 1.4143-1.7623-0.316-1.8391-1.3502-7.8517-2.2779-13.288-0.5087-2.9812-0.9908-5.8021-1.3146-7.7018l-10.16 23.196z"/>
  </g>
 </g>
<metadata><rdf:RDF><cc:Work><dc:format>image/svg+xml</dc:format><dc:type rdf:resource="http://purl.org/dc/dcmitype/StillImage"/><cc:license rdf:resource="http://creativecommons.org/licenses/publicdomain/"/><dc:publisher><cc:Agent rdf:about="http://openclipart.org/"><dc:title>Openclipart</dc:title></cc:Agent></dc:publisher><dc:title>mp3 player vector</dc:title><dc:date>2013-10-16T22:29:22</dc:date><dc:description>mp3 player. Vector illustration for free use.</dc:description><dc:source>https://openclipart.org/detail/185065/mp3-player-vector-by-waider-185065</dc:source><dc:creator><cc:Agent><dc:title>waider</dc:title></cc:Agent></dc:creator><dc:subject><rdf:Bag><rdf:li>mp3 player vector music sound</rdf:li></rdf:Bag></dc:subject></cc:Work><cc:License rdf:about="http://creativecommons.org/licenses/publicdomain/"><cc:permits rdf:resource="http://creativecommons.org/ns#Reproduction"/><cc:permits rdf:resource="http://creativecommons.org/ns#Distribution"/><cc:permits rdf:resource="http://creativecommons.org/ns#DerivativeWorks"/></cc:License></rdf:RDF></metadata></svg>