<svg width="64" xmlns="http://www.w3.org/2000/svg" viewBox="0 0 64 64" height="64">
 <defs>
  <linearGradient id="a" y1="3" y2="61" x2="0" gradientUnits="userSpaceOnUse" gradientTransform="matrix(1 0 0-1 0 64)">
   <stop stop-color="#f39c12"/>
   <stop offset="1" stop-color="#f89406"/>
  </linearGradient>
  <linearGradient id="b" y1="61" y2="47" x2="0" gradientUnits="userSpaceOnUse" gradientTransform="matrix(1 0 0-1 0 64)">
   <stop stop-color="#fddda3"/>
   <stop offset="1" stop-color="#fde3a7"/>
  </linearGradient>
  <linearGradient id="c" y1="17" x1="40" y2="31" x2="54" gradientUnits="userSpaceOnUse">
   <stop stop-color="#383e51"/>
   <stop offset="1" stop-color="#655c6f" stop-opacity="0"/>
  </linearGradient>
 </defs>
 <path fill="url(#a)" d="m10 61v-58h30l14 14v44h-14z"/>
 <g transform="scale(1-1)">
  <rect width="30" x="10" y="-4" fill="#ffffff" height="1" fill-opacity=".412"/>
  <rect width="44" x="10" y="-61" fill="#2e3132" height="1" fill-opacity=".294"/>
 </g>
 <g fill-rule="evenodd">
  <path fill="url(#b)" d="m54 17l-14-14v14z"/>
  <path opacity=".2" fill="url(#c)" d="m40 17l14 14v-14z"/>
 </g>
 <path fill="#fde3a7" d="m30 22c-1.662 0-3 1.338-3 3v2h5v1h-7c-2.216 0-4 1.784-4 4v2c0 2.216 1.784 4 4 4v-2c0-1.841 1.238-3.369 2.926-3.838.147-.041.297-.072.449-.1.205-.032.411-.062.625-.062h7.225c.477-.531.775-1.227.775-2v-5c0-1.662-1.338-3-3-3zm-1 2c.554 0 1 .446 1 1 0 .554-.446 1-1 1-.554 0-1-.446-1-1 0-.554.446-1 1-1m10 4v2c0 1.841-1.238 3.369-2.926 3.838-.147.041-.297.072-.449.1-.205.032-.411.062-.625.062h-7.225c-.477.531-.775 1.227-.775 2v5c0 1.662 1.338 3 3 3h4c1.662 0 3-1.338 3-3v-2h-5v-1h7c2.216 0 4-1.784 4-4v-2c0-2.216-1.784-4-4-4m-4 12c.554 0 1 .446 1 1 0 .554-.446 1-1 1-.554 0-1-.446-1-1 0-.554.446-1 1-1"/>
</svg>
